LinguisticsPro-Medium.ufo
<glyph name="exclam" format="2">
  <advance width="255"/>
  <unicode hex="0021"/>
  <outline>
    <contour>
      <point x="54.333" y="61.667" type="curve" smooth="yes"/>
      <point x="54.333" y="105.333"/>
      <point x="85" y="135.333"/>
      <point x="128" y="135.333" type="curve" smooth="yes"/>
      <point x="170.333" y="135.333"/>
      <point x="200.333" y="105.333"/>
      <point x="200.333" y="61.667" type="curve" smooth="yes"/>
      <point x="200.333" y="18"/>
      <point x="171" y="-12"/>
      <point x="128" y="-12" type="curve" smooth="yes"/>
      <point x="84.333" y="-12"/>
      <point x="54.333" y="18"/>
    </contour>
    <contour>
      <point x="106.667" y="212.333" type="line"/>
      <point x="63.333" y="624" type="line"/>
      <point x="62" y="634"/>
      <point x="61.333" y="649"/>
      <point x="61.333" y="654.333" type="curve" smooth="yes"/>
      <point x="61.333" y="689.667"/>
      <point x="75" y="707"/>
      <point x="127.333" y="707" type="curve" smooth="yes"/>
      <point x="180.667" y="707"/>
      <point x="194.333" y="689.667"/>
      <point x="194.333" y="654.333" type="curve" smooth="yes"/>
      <point x="194.333" y="645.667"/>
      <point x="193.667" y="634.333"/>
      <point x="192.333" y="624" type="curve" smooth="yes"/>
      <point x="147.333" y="212.333" type="line"/>
    </contour>
  </outline>
</glyph>
<glyph name="numbersign" format="2">
	<unicode hex="0023"/>
	<advance width="540"/>
	<outline>
		<contour>
			<point x="12" y="227.667" type="line"/>
			<point x="20" y="282.333" type="line"/>
			<point x="129.667" y="282.333" type="line"/>
			<point x="162.333" y="406.667" type="line"/>
			<point x="59" y="406.667" type="line"/>
			<point x="67" y="461.333" type="line"/>
			<point x="177" y="461.333" type="line"/>
			<point x="231.333" y="668" type="line"/>
			<point x="292.667" y="668" type="line"/>
			<point x="238.333" y="461.333" type="line"/>
			<point x="366" y="461.333" type="line"/>
			<point x="420.333" y="668" type="line"/>
			<point x="480.667" y="668" type="line"/>
			<point x="426.333" y="461.333" type="line"/>
			<point x="528.333" y="461.333" type="line"/>
			<point x="521.667" y="406.667" type="line"/>
			<point x="411.667" y="406.667" type="line"/>
			<point x="379" y="282.333" type="line"/>
			<point x="481.333" y="282.333" type="line"/>
			<point x="474.667" y="227.667" type="line"/>
			<point x="364.667" y="227.667" type="line"/>
			<point x="305" y="0" type="line"/>
			<point x="243.667" y="0" type="line"/>
			<point x="304.333" y="227.667" type="line"/>
			<point x="177" y="227.667" type="line"/>
			<point x="117" y="0" type="line"/>
			<point x="54.6667" y="0" type="line"/>
			<point x="115.333" y="227.667" type="line"/>
		</contour>
		<contour>
			<point x="191.333" y="282.333" type="line"/>
			<point x="318.667" y="282.333" type="line"/>
			<point x="351.333" y="406.667" type="line"/>
			<point x="224" y="406.667" type="line"/>
		</contour>
	</outline>
</glyph>
<glyph name="dollar" format="2">
  <advance width="540"/>
  <unicode hex="0024"/>
  <outline>
    <contour>
      <point x="42" y="112.667" type="curve" smooth="yes"/>
      <point x="42" y="144.333"/>
      <point x="70.667" y="172"/>
      <point x="99.333" y="172" type="curve" smooth="yes"/>
      <point x="113.333" y="172"/>
      <point x="123" y="164.333"/>
      <point x="130.667" y="146.667" type="curve" smooth="yes"/>
      <point x="159.667" y="82.333"/>
      <point x="201" y="43"/>
      <point x="244.667" y="38.667" type="curve"/>
      <point x="244.667" y="301" type="line"/>
      <point x="206.667" y="314" type="line" smooth="yes"/>
      <point x="100.667" y="349.667"/>
      <point x="50.333" y="407.667"/>
      <point x="50.333" y="491.333" type="curve" smooth="yes"/>
      <point x="50.333" y="594.333"/>
      <point x="126.667" y="662.333"/>
      <point x="244.667" y="667.333" type="curve"/>
      <point x="244.667" y="744.667" type="line"/>
      <point x="290" y="744.667" type="line"/>
      <point x="290" y="668" type="line"/>
      <point x="388.333" y="664"/>
      <point x="470.667" y="616.667"/>
      <point x="470.667" y="565.667" type="curve" smooth="yes"/>
      <point x="470.667" y="536.667"/>
      <point x="444" y="515"/>
      <point x="414.667" y="515" type="curve" smooth="yes"/>
      <point x="398.333" y="515"/>
      <point x="390.333" y="521.667"/>
      <point x="382.667" y="542" type="curve" smooth="yes"/>
      <point x="362.667" y="594.667"/>
      <point x="329.333" y="625.333"/>
      <point x="290" y="629.333" type="curve"/>
      <point x="290" y="398.667" type="line"/>
      <point x="325.333" y="387" type="line" smooth="yes"/>
      <point x="444.333" y="348.333"/>
      <point x="499.333" y="286"/>
      <point x="499.333" y="191.667" type="curve" smooth="yes"/>
      <point x="499.333" y="85"/>
      <point x="405.667" y="0"/>
      <point x="290" y="0" type="curve"/>
      <point x="290" y="-102.667" type="line"/>
      <point x="244.667" y="-102.667" type="line"/>
      <point x="244.667" y="0" type="line"/>
      <point x="131.333" y="4"/>
      <point x="42" y="56.667"/>
    </contour>
    <contour>
      <point x="143.667" y="524.667" type="curve" smooth="yes"/>
      <point x="143.667" y="473"/>
      <point x="176.333" y="437.667"/>
      <point x="244.667" y="416" type="curve"/>
      <point x="244.667" y="628.667" type="line"/>
      <point x="186.667" y="627.667"/>
      <point x="143.667" y="583.667"/>
    </contour>
    <contour>
      <point x="290" y="38.667" type="line"/>
      <point x="356" y="38.667"/>
      <point x="398.333" y="82.333"/>
      <point x="398.333" y="152.667" type="curve" smooth="yes"/>
      <point x="398.333" y="217.333"/>
      <point x="363" y="261"/>
      <point x="290" y="286" type="curve"/>
    </contour>
  </outline>
</glyph>
<glyph name="percent" format="2">
  <advance width="854"/>
  <unicode hex="0025"/>
  <outline>
    <contour>
      <point x="46.667" y="496" type="curve" smooth="yes"/>
      <point x="46.667" y="613.667"/>
      <point x="100.667" y="680"/>
      <point x="214.921" y="680" type="curve" smooth="yes"/>
      <point x="263" y="680"/>
      <point x="296.399" y="668.282"/>
      <point x="322.86" y="647.091" type="curve" smooth="yes"/>
      <point x="336.962" y="635.867"/>
      <point x="346" y="633"/>
      <point x="368" y="633" type="curve" smooth="yes"/>
      <point x="528.667" y="633" type="line" smooth="yes"/>
      <point x="570.706" y="633"/>
      <point x="587" y="641.333"/>
      <point x="605.333" y="667.333" type="curve" smooth="yes"/>
      <point x="628.333" y="700.333" type="line"/>
      <point x="666.667" y="675.333" type="line"/>
      <point x="230" y="-27" type="line"/>
      <point x="190.333" y="3.033" type="line"/>
      <point x="559.333" y="597.333" type="line"/>
      <point x="360.667" y="597.333" type="line"/>
      <point x="367.667" y="577"/>
      <point x="374" y="545.667"/>
      <point x="374" y="503.475" type="curve" smooth="yes"/>
      <point x="374" y="378.333"/>
      <point x="318" y="312.667"/>
      <point x="209" y="312.667" type="curve" smooth="yes"/>
      <point x="100.667" y="312.667"/>
      <point x="46.667" y="378.333"/>
    </contour>
    <contour>
      <point x="134" y="498.208" type="curve" smooth="yes"/>
      <point x="134" y="397.333"/>
      <point x="162.333" y="346.667"/>
      <point x="210" y="346.667" type="curve" smooth="yes"/>
      <point x="258.667" y="346.667"/>
      <point x="286.667" y="397.333"/>
      <point x="286.667" y="498.175" type="curve" smooth="yes"/>
      <point x="286.667" y="602.667"/>
      <point x="256.667" y="645.333"/>
      <point x="210" y="645.333" type="curve" smooth="yes"/>
      <point x="164.333" y="645.333"/>
      <point x="134" y="602.667"/>
    </contour>
    <contour>
      <point x="480.333" y="172.029" type="curve" smooth="yes"/>
      <point x="480.333" y="290.281"/>
      <point x="534.333" y="356"/>
      <point x="644" y="356" type="curve" smooth="yes"/>
      <point x="753.667" y="356"/>
      <point x="807.667" y="290.281"/>
      <point x="807.667" y="172.029" type="curve" smooth="yes"/>
      <point x="807.667" y="53.776"/>
      <point x="753.667" y="-12"/>
      <point x="644" y="-12" type="curve" smooth="yes"/>
      <point x="534.333" y="-12"/>
      <point x="480.333" y="53.776"/>
    </contour>
    <contour>
      <point x="567.667" y="173.653" type="curve" smooth="yes"/>
      <point x="567.667" y="72.867"/>
      <point x="595.667" y="22"/>
      <point x="644" y="22" type="curve" smooth="yes"/>
      <point x="692.333" y="22"/>
      <point x="720.333" y="72.867"/>
      <point x="720.333" y="173.653" type="curve" smooth="yes"/>
      <point x="720.333" y="279.229"/>
      <point x="690" y="322"/>
      <point x="644" y="322" type="curve" smooth="yes"/>
      <point x="598" y="322"/>
      <point x="567.667" y="279.229"/>
    </contour>
  </outline>
</glyph>
<glyph name="quotesingle" format="2">
	<unicode hex="0027"/>
	<advance width="269"/>
	<outline>
		<contour>
			<point x="88.6667" y="675.333" type="line" smooth="yes"/>
			<point x="87.5451" y="681.717"/>
			<point x="86.3546" y="693.039"/>
			<point x="86.3546" y="700.451" type="curve" smooth="yes"/>
			<point x="86.3546" y="727.536"/>
			<point x="101.932" y="742.333"/>
			<point x="140" y="742.333" type="curve" smooth="yes"/>
			<point x="178.178" y="742.333"/>
			<point x="193.948" y="727.686"/>
			<point x="193.948" y="697.615" type="curve" smooth="yes"/>
			<point x="193.948" y="692.871"/>
			<point x="193.521" y="681.951"/>
			<point x="192.333" y="675.333" type="curve" smooth="yes"/>
			<point x="154.333" y="457" type="line"/>
			<point x="125.667" y="457" type="line"/>
		</contour>
	</outline>
</glyph>
<glyph name="parenright" format="2">
  <advance width="355"/>
  <unicode hex="0029"/>
  <outline>
    <contour>
      <point x="23.667" y="-102.333" type="line"/>
      <point x="101" y="-83.333"/>
      <point x="171.667" y="49"/>
      <point x="171.667" y="282" type="curve" smooth="yes"/>
      <point x="171.667" y="513.667"/>
      <point x="104.333" y="646.667"/>
      <point x="23.667" y="666.333" type="curve"/>
      <point x="25.333" y="694.333" type="line"/>
      <point x="211" y="688"/>
      <point x="252" y="459"/>
      <point x="252" y="282" type="curve" smooth="yes"/>
      <point x="252" y="105"/>
      <point x="211" y="-124"/>
      <point x="25.333" y="-130.333" type="curve"/>
    </contour>
  </outline>
</glyph>
<glyph name="asterisk" format="2">
	<unicode hex="002A"/>
	<advance width="422"/>
	<outline>
		<contour>
			<point x="48.3333" y="452" type="curve" smooth="yes"/>
			<point x="48.3333" y="465"/>
			<point x="55.3333" y="475.667"/>
			<point x="71" y="481.667" type="curve" smooth="yes"/>
			<point x="167.667" y="517.667" type="line" smooth="yes"/>
			<point x="175" y="520.333"/>
			<point x="178.667" y="523.667"/>
			<point x="178.667" y="527" type="curve" smooth="yes"/>
			<point x="178.667" y="531.333"/>
			<point x="174.333" y="535.667"/>
			<point x="165.333" y="538.333" type="curve"/>
			<point x="69.6667" y="574" type="line" smooth="yes"/>
			<point x="53.3333" y="580"/>
			<point x="46.6667" y="589.667"/>
			<point x="46.6667" y="601.333" type="curve" smooth="yes"/>
			<point x="46.6667" y="619.667"/>
			<point x="64" y="644.667"/>
			<point x="83.6667" y="644.667" type="curve" smooth="yes"/>
			<point x="91" y="644.667"/>
			<point x="99.3333" y="640.667"/>
			<point x="106.667" y="634.333" type="curve" smooth="yes"/>
			<point x="180.667" y="570" type="line"/>
			<point x="184" y="567.333"/>
			<point x="186.667" y="566"/>
			<point x="188.333" y="566" type="curve"/>
			<point x="193.333" y="566"/>
			<point x="195.667" y="574"/>
			<point x="195.667" y="580.333" type="curve"/>
			<point x="176" y="671.667" type="line"/>
			<point x="175" y="674.667"/>
			<point x="174.667" y="678"/>
			<point x="174.667" y="681" type="curve" smooth="yes"/>
			<point x="174.667" y="698"/>
			<point x="187.667" y="707"/>
			<point x="211" y="707" type="curve" smooth="yes"/>
			<point x="234.333" y="707"/>
			<point x="247.333" y="698"/>
			<point x="247.333" y="681.333" type="curve" smooth="yes"/>
			<point x="247.333" y="678.667"/>
			<point x="247.333" y="675.667"/>
			<point x="246.333" y="672.333" type="curve"/>
			<point x="226.333" y="580.333" type="line"/>
			<point x="226.333" y="572.333"/>
			<point x="228.667" y="566.333"/>
			<point x="233" y="566.333" type="curve" smooth="yes"/>
			<point x="235.333" y="566.333"/>
			<point x="238" y="567.333"/>
			<point x="241.333" y="570" type="curve"/>
			<point x="316" y="635" type="line" smooth="yes"/>
			<point x="323" y="641.333"/>
			<point x="331" y="644.667"/>
			<point x="338.333" y="644.667" type="curve" smooth="yes"/>
			<point x="358" y="644.667"/>
			<point x="376" y="619"/>
			<point x="376" y="601.333" type="curve" smooth="yes"/>
			<point x="376" y="590.333"/>
			<point x="368.667" y="580"/>
			<point x="353" y="574.667" type="curve"/>
			<point x="257" y="538.333" type="line"/>
			<point x="248" y="535.667"/>
			<point x="243.667" y="531.333"/>
			<point x="243.667" y="527.333" type="curve" smooth="yes"/>
			<point x="243.667" y="523.667"/>
			<point x="247.333" y="520.333"/>
			<point x="254.667" y="517.667" type="curve" smooth="yes"/>
			<point x="351" y="481.667" type="line" smooth="yes"/>
			<point x="366.667" y="475.667"/>
			<point x="374.333" y="464.667"/>
			<point x="374.333" y="452.333" type="curve" smooth="yes"/>
			<point x="374.333" y="433.333"/>
			<point x="356.333" y="408.667"/>
			<point x="336.333" y="408.667" type="curve" smooth="yes"/>
			<point x="328.333" y="408.667"/>
			<point x="319.667" y="412.667"/>
			<point x="311.333" y="421" type="curve" smooth="yes"/>
			<point x="242.667" y="488" type="line"/>
			<point x="238.333" y="492"/>
			<point x="235" y="493.667"/>
			<point x="232.333" y="493.667" type="curve" smooth="yes"/>
			<point x="228.333" y="493.667"/>
			<point x="225.667" y="488"/>
			<point x="225.667" y="481.667" type="curve"/>
			<point x="246" y="385.333" type="line" smooth="yes"/>
			<point x="247" y="381"/>
			<point x="248" y="376"/>
			<point x="248" y="372" type="curve" smooth="yes"/>
			<point x="248" y="356.667"/>
			<point x="236.333" y="342.333"/>
			<point x="211" y="342.333" type="curve" smooth="yes"/>
			<point x="185.667" y="342.333"/>
			<point x="174" y="355.333"/>
			<point x="174" y="373" type="curve" smooth="yes"/>
			<point x="174" y="376.667"/>
			<point x="174.333" y="381"/>
			<point x="175.333" y="385.333" type="curve" smooth="yes"/>
			<point x="196.667" y="481.667" type="line"/>
			<point x="196.667" y="490"/>
			<point x="194" y="493.333"/>
			<point x="190" y="493.333" type="curve" smooth="yes"/>
			<point x="187" y="493.333"/>
			<point x="184" y="491.667"/>
			<point x="179.667" y="488" type="curve"/>
			<point x="111" y="421.667" type="line" smooth="yes"/>
			<point x="102" y="413.333"/>
			<point x="93.3333" y="408.667"/>
			<point x="85" y="408.667" type="curve" smooth="yes"/>
			<point x="65" y="408.667"/>
			<point x="48.3333" y="433.333"/>
		</contour>
	</outline>
</glyph>
<glyph name="comma" format="2">
  <advance width="270"/>
  <unicode hex="002C"/>
  <outline>
    <contour>
      <point x="47.333" y="-127.333" type="line"/>
      <point x="80.333" y="-91"/>
      <point x="106" y="-50"/>
      <point x="106" y="-6.667" type="curve" smooth="yes"/>
      <point x="106" y="38"/>
      <point x="70.667" y="57"/>
      <point x="70.667" y="96.333" type="curve" smooth="yes"/>
      <point x="70.667" y="126"/>
      <point x="91" y="154"/>
      <point x="128" y="154" type="curve" smooth="yes"/>
      <point x="170.667" y="154"/>
      <point x="204" y="115"/>
      <point x="204" y="55.667" type="curve" smooth="yes"/>
      <point x="204" y="-27.667"/>
      <point x="125.667" y="-100.333"/>
      <point x="70" y="-149.667" type="curve"/>
    </contour>
  </outline>
</glyph>
<glyph name="hyphen" format="2">
  <advance width="373"/>
  <unicode hex="002D"/>
  <outline>
    <contour>
      <point x="53.3333" y="211.667" type="line"/>
      <point x="53.3333" y="290" type="line"/>
      <point x="320" y="290" type="line"/>
      <point x="320" y="211.667" type="line"/>
    </contour>
  </outline>
</glyph>
<glyph name="period" format="2">
  <advance width="270"/>
  <unicode hex="002E"/>
  <outline>
    <contour>
      <point x="62.333" y="61" type="curve" smooth="yes"/>
      <point x="62.333" y="104"/>
      <point x="91.667" y="135.333"/>
      <point x="135.333" y="135.333" type="curve" smooth="yes"/>
      <point x="179.667" y="135.333"/>
      <point x="208.333" y="104"/>
      <point x="208.333" y="61" type="curve"/>
      <point x="207.667" y="18.667"/>
      <point x="179.667" y="-12"/>
      <point x="135.333" y="-12" type="curve" smooth="yes"/>
      <point x="91.667" y="-12"/>
      <point x="62.333" y="18.667"/>
    </contour>
  </outline>
</glyph>
<glyph name="one" format="2">
  <advance width="480"/>
  <unicode hex="0031"/>
  <outline>
    <contour>
      <point x="73.3337" y="0" type="line"/>
      <point x="73.3337" y="32" type="line"/>
      <point x="152" y="38.667" type="line" smooth="yes"/>
      <point x="179.277" y="41.086"/>
      <point x="185.667" y="57.263"/>
      <point x="185.667" y="85" type="curve" smooth="yes"/>
      <point x="185.667" y="562.333" type="line" smooth="yes"/>
      <point x="185.667" y="593.667"/>
      <point x="178" y="602"/>
      <point x="158" y="605" type="curve" smooth="yes"/>
      <point x="75.3337" y="616.667" type="line"/>
      <point x="75.3337" y="643.667" type="line"/>
      <point x="292.334" y="680" type="line"/>
      <point x="298.667" y="673.333" type="line"/>
      <point x="298.667" y="85" type="line" smooth="yes"/>
      <point x="298.667" y="48.333"/>
      <point x="310.334" y="40.667"/>
      <point x="332.334" y="38.667" type="curve" smooth="yes"/>
      <point x="411" y="32" type="line"/>
      <point x="411" y="0" type="line"/>
    </contour>
  </outline>
</glyph>
<glyph name="three" format="2">
	<unicode hex="0033"/>
	<advance width="540"/>
	<outline>
		<contour>
			<point x="27" y="107.667" type="curve" smooth="yes"/>
			<point x="27" y="147"/>
			<point x="66.3333" y="168.667"/>
			<point x="90.3333" y="168.667" type="curve" smooth="yes"/>
			<point x="107.333" y="168.667"/>
			<point x="119" y="157.333"/>
			<point x="125" y="138.667" type="curve" smooth="yes"/>
			<point x="147" y="71"/>
			<point x="187.667" y="26.6667"/>
			<point x="246.667" y="26.6667" type="curve" smooth="yes"/>
			<point x="314.333" y="26.6667"/>
			<point x="364.333" y="72"/>
			<point x="364.333" y="184.667" type="curve" smooth="yes"/>
			<point x="364.333" y="283.667"/>
			<point x="315.667" y="342.333"/>
			<point x="242.333" y="342.333" type="curve" smooth="yes"/>
			<point x="197" y="342.333"/>
			<point x="167.667" y="331"/>
			<point x="152.333" y="331" type="curve" smooth="yes"/>
			<point x="136.667" y="331"/>
			<point x="130.667" y="344.333"/>
			<point x="130.667" y="363.333" type="curve" smooth="yes"/>
			<point x="130.667" y="383.333"/>
			<point x="136.667" y="395.667"/>
			<point x="152.333" y="395.667" type="curve" smooth="yes"/>
			<point x="167.667" y="395.667"/>
			<point x="197.667" y="384.333"/>
			<point x="242.333" y="384.333" type="curve" smooth="yes"/>
			<point x="323.333" y="384.333"/>
			<point x="339.333" y="466.333"/>
			<point x="339.333" y="518.333" type="curve" smooth="yes"/>
			<point x="339.333" y="569.333"/>
			<point x="323.333" y="641.333"/>
			<point x="250.333" y="641.333" type="curve" smooth="yes"/>
			<point x="197" y="641.333"/>
			<point x="163" y="598.333"/>
			<point x="141" y="528.333" type="curve" smooth="yes"/>
			<point x="136" y="512.333"/>
			<point x="126.333" y="503.333"/>
			<point x="110.333" y="503.333" type="curve" smooth="yes"/>
			<point x="93" y="503.333"/>
			<point x="51.6667" y="520.667"/>
			<point x="51.6667" y="556.333" type="curve" smooth="yes"/>
			<point x="51.6667" y="610"/>
			<point x="128" y="680"/>
			<point x="255" y="680" type="curve" smooth="yes"/>
			<point x="360.667" y="680"/>
			<point x="459.667" y="636.667"/>
			<point x="459.667" y="516.667" type="curve" smooth="yes"/>
			<point x="459.667" y="418"/>
			<point x="373" y="380.667"/>
			<point x="319.333" y="370" type="curve"/>
			<point x="319.333" y="366" type="line"/>
			<point x="368.667" y="360.667"/>
			<point x="488.333" y="324.333"/>
			<point x="488.333" y="187.333" type="curve" smooth="yes"/>
			<point x="488.333" y="59.6667"/>
			<point x="395.333" y="-12"/>
			<point x="244.667" y="-12" type="curve" smooth="yes"/>
			<point x="90" y="-12"/>
			<point x="27" y="66.3333"/>
		</contour>
	</outline>
</glyph>
<glyph name="four" format="2">
  <advance width="533"/>
  <unicode hex="0034"/>
  <outline>
    <contour>
      <point x="19" y="201" type="line"/>
      <point x="110" y="355.667"/>
      <point x="217.333" y="524"/>
      <point x="315.667" y="668" type="curve"/>
      <point x="404.333" y="668" type="line"/>
      <point x="404.333" y="231.333" type="line"/>
      <point x="506.333" y="231.333" type="line"/>
      <point x="506.333" y="177" type="line"/>
      <point x="404.333" y="177" type="line"/>
      <point x="404.333" y="76.333" type="line" smooth="yes"/>
      <point x="404.333" y="46"/>
      <point x="412.333" y="39.333"/>
      <point x="433" y="36.667" type="curve"/>
      <point x="478.667" y="32" type="line"/>
      <point x="478.667" y="0" type="line"/>
      <point x="200.333" y="0" type="line"/>
      <point x="200.333" y="32" type="line"/>
      <point x="265.333" y="37.667" type="line" smooth="yes"/>
      <point x="286.333" y="39.333"/>
      <point x="297.333" y="46"/>
      <point x="297.333" y="76.333" type="curve" smooth="yes"/>
      <point x="297.333" y="177" type="line"/>
      <point x="31.333" y="177" type="line"/>
    </contour>
    <contour>
      <point x="101.667" y="231.333" type="curve"/>
      <point x="297.333" y="231.333" type="line"/>
      <point x="297.333" y="560.333" type="line"/>
      <point x="295.333" y="560.333" type="line"/>
      <point x="223" y="445"/>
      <point x="157.333" y="335"/>
    </contour>
  </outline>
</glyph>
<glyph name="five" format="2">
  <advance width="533"/>
  <unicode hex="0035"/>
  <outline>
    <contour>
      <point x="34.3333" y="109.333" type="curve" smooth="yes"/>
      <point x="34.3333" y="144.333"/>
      <point x="71.0003" y="167.333"/>
      <point x="95.6663" y="167.333" type="curve" smooth="yes"/>
      <point x="113.666" y="167.333"/>
      <point x="124.333" y="156"/>
      <point x="130" y="138.667" type="curve" smooth="yes"/>
      <point x="153" y="71.333"/>
      <point x="187" y="26.667"/>
      <point x="248.333" y="26.667" type="curve" smooth="yes"/>
      <point x="327" y="26.667"/>
      <point x="364" y="100.333"/>
      <point x="364" y="199.667" type="curve" smooth="yes"/>
      <point x="364" y="329.333"/>
      <point x="301" y="377.333"/>
      <point x="231" y="377.333" type="curve" smooth="yes"/>
      <point x="183.333" y="377.333"/>
      <point x="142.666" y="355.333"/>
      <point x="101.666" y="307.333" type="curve"/>
      <point x="72.0003" y="325.333" type="line"/>
      <point x="92.0003" y="659" type="line"/>
      <point x="101.333" y="668" type="line"/>
      <point x="451.666" y="668" type="line"/>
      <point x="458.333" y="658" type="line"/>
      <point x="429.333" y="577" type="line"/>
      <point x="174.666" y="577" type="line" smooth="yes"/>
      <point x="153" y="577"/>
      <point x="147.333" y="572.667"/>
      <point x="143.666" y="544.667" type="curve" smooth="yes"/>
      <point x="121.333" y="376" type="line"/>
      <point x="123.333" y="374" type="line"/>
      <point x="157.666" y="402.333"/>
      <point x="215" y="428.333"/>
      <point x="280.333" y="428.333" type="curve" smooth="yes"/>
      <point x="413.333" y="428.333"/>
      <point x="486.333" y="338.333"/>
      <point x="486.333" y="214" type="curve" smooth="yes"/>
      <point x="486.333" y="89.667"/>
      <point x="414.666" y="-12"/>
      <point x="244.333" y="-12" type="curve" smooth="yes"/>
      <point x="96.6663" y="-12"/>
      <point x="34.3333" y="65.333"/>
    </contour>
  </outline>
</glyph>
<glyph name="seven" format="2">
  <advance width="533"/>
  <unicode hex="0037"/>
  <outline>
    <contour>
      <point x="32.0003" y="518.333" type="line"/>
      <point x="67.0003" y="668" type="line"/>
      <point x="491.666" y="668" type="line"/>
      <point x="502" y="656.667" type="line"/>
      <point x="478.592" y="569.224"/>
      <point x="432.145" y="477.946"/>
      <point x="350.666" y="355.667" type="curve" smooth="yes"/>
      <point x="288.124" y="261.532"/>
      <point x="278.333" y="157.004"/>
      <point x="278.333" y="33" type="curve" smooth="yes"/>
      <point x="278.333" y="-3.336"/>
      <point x="251.072" y="-12"/>
      <point x="217.599" y="-12" type="curve" smooth="yes"/>
      <point x="185.3" y="-12"/>
      <point x="155.666" y="-4"/>
      <point x="155.666" y="39.761" type="curve" smooth="yes"/>
      <point x="155.666" y="144"/>
      <point x="213.745" y="253"/>
      <point x="295.129" y="363.409" type="curve" smooth="yes"/>
      <point x="379.333" y="478"/>
      <point x="399.333" y="542"/>
      <point x="409.333" y="577" type="curve"/>
      <point x="141.333" y="577" type="line" smooth="yes"/>
      <point x="97.0003" y="577"/>
      <point x="84.3333" y="561.667"/>
      <point x="71.6663" y="535.333" type="curve" smooth="yes"/>
      <point x="61.6663" y="515" type="line"/>
    </contour>
  </outline>
</glyph>
<glyph name="eight" format="2">
	<unicode hex="0038"/>
	<advance width="540"/>
	<outline>
		<contour>
			<point x="37" y="184.333" type="curve" smooth="yes"/>
			<point x="37" y="282.333"/>
			<point x="97.6667" y="340.333"/>
			<point x="169" y="359.333" type="curve"/>
			<point x="169" y="362" type="line"/>
			<point x="108.667" y="378.667"/>
			<point x="60" y="427.333"/>
			<point x="60" y="507" type="curve" smooth="yes"/>
			<point x="60" y="617"/>
			<point x="146.667" y="680"/>
			<point x="270" y="680" type="curve" smooth="yes"/>
			<point x="394" y="680"/>
			<point x="480" y="618"/>
			<point x="480" y="507" type="curve" smooth="yes"/>
			<point x="480" y="427.333"/>
			<point x="432" y="378.667"/>
			<point x="371" y="361.667" type="curve"/>
			<point x="371" y="359" type="line"/>
			<point x="443.333" y="340.333"/>
			<point x="503" y="282.333"/>
			<point x="503" y="184.333" type="curve" smooth="yes"/>
			<point x="503" y="67"/>
			<point x="422.333" y="-12"/>
			<point x="270" y="-12" type="curve" smooth="yes"/>
			<point x="118" y="-12"/>
			<point x="37" y="67.3333"/>
		</contour>
		<contour>
			<point x="156.333" y="181.333" type="curve" smooth="yes"/>
			<point x="156.333" y="93"/>
			<point x="193" y="26.6667"/>
			<point x="270" y="26.6667" type="curve" smooth="yes"/>
			<point x="347" y="26.6667"/>
			<point x="383.667" y="93"/>
			<point x="383.667" y="181.333" type="curve" smooth="yes"/>
			<point x="383.667" y="269.333"/>
			<point x="344" y="336"/>
			<point x="270" y="336" type="curve" smooth="yes"/>
			<point x="196" y="336"/>
			<point x="156.333" y="269.333"/>
		</contour>
		<contour>
			<point x="174" y="510" type="curve" smooth="yes"/>
			<point x="174" y="440.667"/>
			<point x="205.667" y="376"/>
			<point x="270" y="376" type="curve" smooth="yes"/>
			<point x="335.333" y="376"/>
			<point x="366" y="440.667"/>
			<point x="366" y="510" type="curve" smooth="yes"/>
			<point x="366" y="585.667"/>
			<point x="333" y="641.333"/>
			<point x="270" y="641.333" type="curve" smooth="yes"/>
			<point x="208" y="641.333"/>
			<point x="174" y="585.667"/>
		</contour>
	</outline>
</glyph>
<glyph name="nine" format="2">
  <advance width="534"/>
  <unicode hex="0039"/>
  <outline>
    <contour>
      <point x="32.6663" y="459.852" type="curve" smooth="yes"/>
      <point x="32.6663" y="590"/>
      <point x="121.72" y="680"/>
      <point x="262.292" y="680" type="curve" smooth="yes"/>
      <point x="449.981" y="680"/>
      <point x="489.666" y="518.562"/>
      <point x="489.666" y="355.374" type="curve" smooth="yes"/>
      <point x="489.666" y="177.534"/>
      <point x="451.992" y="-12"/>
      <point x="234.071" y="-12" type="curve" smooth="yes"/>
      <point x="103.513" y="-12"/>
      <point x="51.2003" y="55.495"/>
      <point x="51.2003" y="98.666" type="curve" smooth="yes"/>
      <point x="51.2003" y="132.205"/>
      <point x="84.6803" y="154.667"/>
      <point x="110.018" y="154.667" type="curve" smooth="yes"/>
      <point x="126.106" y="154.667"/>
      <point x="135.726" y="145.614"/>
      <point x="140.7" y="129.848" type="curve" smooth="yes"/>
      <point x="160.333" y="69.438"/>
      <point x="185.666" y="26.667"/>
      <point x="241.684" y="26.667" type="curve" smooth="yes"/>
      <point x="351.125" y="26.667"/>
      <point x="372.333" y="198.287"/>
      <point x="372.333" y="340.333" type="curve"/>
      <point x="370.333" y="340.333" type="line"/>
      <point x="338" y="297.667"/>
      <point x="288" y="263.667"/>
      <point x="222.598" y="263.667" type="curve" smooth="yes"/>
      <point x="123.733" y="263.667"/>
      <point x="32.6663" y="327.667"/>
    </contour>
    <contour>
      <point x="150" y="485.191" type="curve" smooth="yes"/>
      <point x="150" y="390.333"/>
      <point x="192.333" y="324.333"/>
      <point x="267.857" y="324.333" type="curve" smooth="yes"/>
      <point x="339.002" y="324.333"/>
      <point x="369" y="382.821"/>
      <point x="369" y="446.333" type="curve" smooth="yes"/>
      <point x="369" y="550.333"/>
      <point x="332.666" y="641.333"/>
      <point x="254.609" y="641.333" type="curve" smooth="yes"/>
      <point x="188.333" y="641.333"/>
      <point x="150" y="575.667"/>
    </contour>
  </outline>
</glyph>
<glyph name="colon" format="2">
	<unicode hex="003A"/>
	<advance width="270"/>
	<outline>
		<contour>
			<point x="62.3333" y="61" type="curve" smooth="yes"/>
			<point x="62.3333" y="104"/>
			<point x="91.6667" y="135.333"/>
			<point x="135.333" y="135.333" type="curve" smooth="yes"/>
			<point x="179.667" y="135.333"/>
			<point x="208.333" y="104"/>
			<point x="208.333" y="61" type="curve"/>
			<point x="207.667" y="18.6667"/>
			<point x="179.667" y="-12"/>
			<point x="135.333" y="-12" type="curve" smooth="yes"/>
			<point x="91.6667" y="-12"/>
			<point x="62.3333" y="18.6667"/>
		</contour>
		<contour>
			<point x="62.3333" y="415.667" type="curve" smooth="yes"/>
			<point x="62.3333" y="458.667"/>
			<point x="91.6667" y="490"/>
			<point x="135.333" y="490" type="curve" smooth="yes"/>
			<point x="179.667" y="490"/>
			<point x="208.333" y="458.667"/>
			<point x="208.333" y="415.667" type="curve"/>
			<point x="207.667" y="373.333"/>
			<point x="179.667" y="342.667"/>
			<point x="135.333" y="342.667" type="curve" smooth="yes"/>
			<point x="91.6667" y="342.667"/>
			<point x="62.3333" y="373.333"/>
		</contour>
	</outline>
</glyph>
<glyph name="semicolon" format="2">
	<unicode hex="003B"/>
	<advance width="270"/>
	<outline>
		<contour>
			<point x="47.3333" y="-127.333" type="line"/>
			<point x="80.3333" y="-91"/>
			<point x="106" y="-50"/>
			<point x="106" y="-6.66667" type="curve" smooth="yes"/>
			<point x="106" y="38"/>
			<point x="70.6667" y="57"/>
			<point x="70.6667" y="96.3333" type="curve" smooth="yes"/>
			<point x="70.6667" y="126"/>
			<point x="91" y="154"/>
			<point x="128" y="154" type="curve" smooth="yes"/>
			<point x="170.667" y="154"/>
			<point x="204" y="115"/>
			<point x="204" y="55.6667" type="curve" smooth="yes"/>
			<point x="204" y="-27.6667"/>
			<point x="125.667" y="-100.333"/>
			<point x="70" y="-149.667" type="curve"/>
		</contour>
		<contour>
			<point x="62.3333" y="415.667" type="curve" smooth="yes"/>
			<point x="62.3333" y="458.667"/>
			<point x="91.6667" y="490"/>
			<point x="135.333" y="490" type="curve" smooth="yes"/>
			<point x="179.667" y="490"/>
			<point x="208.333" y="458.667"/>
			<point x="208.333" y="415.667" type="curve"/>
			<point x="207.667" y="373.333"/>
			<point x="179.667" y="342.667"/>
			<point x="135.333" y="342.667" type="curve" smooth="yes"/>
			<point x="91.6667" y="342.667"/>
			<point x="62.3333" y="373.333"/>
		</contour>
	</outline>
</glyph>
<glyph name="equal" format="2">
  <advance width="580"/>
  <unicode hex="003D"/>
  <outline>
    <contour>
      <point x="48" y="108.333" type="line"/>
      <point x="48" y="174.333" type="line"/>
      <point x="532" y="174.333" type="line"/>
      <point x="532" y="108.333" type="line"/>
    </contour>
    <contour>
      <point x="48" y="325.667" type="line"/>
      <point x="48" y="391.667" type="line"/>
      <point x="532" y="391.667" type="line"/>
      <point x="532" y="325.667" type="line"/>
    </contour>
  </outline>
</glyph>
<glyph name="greater" format="2">
	<unicode hex="003E"/>
	<advance width="580"/>
	<outline>
		<contour>
			<point x="51" y="2.33333" type="line"/>
			<point x="51" y="78.3333" type="line"/>
			<point x="457.333" y="249.333" type="line"/>
			<point x="51" y="420.667" type="line"/>
			<point x="51" y="497" type="line"/>
			<point x="529" y="289.667" type="line"/>
			<point x="529" y="208.667" type="line"/>
		</contour>
	</outline>
</glyph>
<glyph name="at" format="2">
	<unicode hex="0040"/>
	<advance width="806"/>
	<outline>
		<contour>
			<point x="45.6667" y="306" type="curve" smooth="yes"/>
			<point x="45.6667" y="557"/>
			<point x="244.667" y="707"/>
			<point x="454.333" y="707" type="curve" smooth="yes"/>
			<point x="650.333" y="707"/>
			<point x="769" y="575.333"/>
			<point x="769" y="423" type="curve" smooth="yes"/>
			<point x="769" y="285.667"/>
			<point x="672.333" y="168.333"/>
			<point x="544.667" y="168.333" type="curve" smooth="yes"/>
			<point x="490" y="168.333"/>
			<point x="465.333" y="190"/>
			<point x="465.333" y="233.333" type="curve" smooth="yes"/>
			<point x="465.333" y="254.333"/>
			<point x="471" y="282.667"/>
			<point x="479.667" y="309.333" type="curve"/>
			<point x="477.333" y="310.667" type="line"/>
			<point x="443.333" y="245.333"/>
			<point x="373.333" y="168.333"/>
			<point x="299.333" y="168.333" type="curve" smooth="yes"/>
			<point x="256.667" y="168.333"/>
			<point x="223.333" y="193.333"/>
			<point x="223.333" y="248" type="curve" smooth="yes"/>
			<point x="223.333" y="328.667"/>
			<point x="294.667" y="536.667"/>
			<point x="478.333" y="536.667" type="curve" smooth="yes"/>
			<point x="501.667" y="536.667"/>
			<point x="516" y="533.333"/>
			<point x="532.667" y="524.667" type="curve"/>
			<point x="536.333" y="532" type="line"/>
			<point x="616.333" y="532" type="line"/>
			<point x="548.333" y="267" type="line"/>
			<point x="546" y="259"/>
			<point x="545" y="248.667"/>
			<point x="545" y="242.333" type="curve" smooth="yes"/>
			<point x="545" y="220.667"/>
			<point x="558.667" y="211.667"/>
			<point x="579" y="211.667" type="curve" smooth="yes"/>
			<point x="649.667" y="211.667"/>
			<point x="710.667" y="318.333"/>
			<point x="710.667" y="409.333" type="curve" smooth="yes"/>
			<point x="710.667" y="572.667"/>
			<point x="597" y="659.667"/>
			<point x="458" y="659.667" type="curve" smooth="yes"/>
			<point x="263" y="659.667"/>
			<point x="134" y="489"/>
			<point x="134" y="313.333" type="curve" smooth="yes"/>
			<point x="134" y="189"/>
			<point x="199" y="30.3333"/>
			<point x="419" y="30.3333" type="curve" smooth="yes"/>
			<point x="481.667" y="30.3333"/>
			<point x="547.667" y="43.3333"/>
			<point x="593.333" y="62.6667" type="curve"/>
			<point x="602.333" y="34.3333" type="line"/>
			<point x="543.333" y="-1.66667"/>
			<point x="457.333" y="-15"/>
			<point x="399" y="-15" type="curve" smooth="yes"/>
			<point x="218.333" y="-15"/>
			<point x="45.6667" y="87.6667"/>
		</contour>
		<contour>
			<point x="318.667" y="260.333" type="curve" smooth="yes"/>
			<point x="318.667" y="233.333"/>
			<point x="329.667" y="217.667"/>
			<point x="347" y="217.667" type="curve" smooth="yes"/>
			<point x="395" y="217.667"/>
			<point x="473.667" y="339.333"/>
			<point x="500" y="420.333" type="curve" smooth="yes"/>
			<point x="524.667" y="492.667" type="line"/>
			<point x="512" y="501.333"/>
			<point x="500.333" y="504.667"/>
			<point x="486.667" y="504.667" type="curve" smooth="yes"/>
			<point x="385" y="504.667"/>
			<point x="318.667" y="327"/>
		</contour>
	</outline>
</glyph>
<glyph name="A" format="2">
	<unicode hex="0041"/>
	<advance width="638"/>
	<outline>
		<contour>
			<point x="-28.6667" y="0" type="line"/>
			<point x="-28.6667" y="32" type="line"/>
			<point x="31.3333" y="35"/>
			<point x="42" y="44.6667"/>
			<point x="60.3333" y="95.3333" type="curve" smooth="yes"/>
			<point x="272" y="692" type="line"/>
			<point x="363.333" y="692" type="line"/>
			<point x="570.333" y="88" type="line" smooth="yes"/>
			<point x="586.667" y="39.6667"/>
			<point x="598.333" y="36"/>
			<point x="654.333" y="32" type="curve"/>
			<point x="654.333" y="0" type="line"/>
			<point x="378.333" y="0" type="line"/>
			<point x="378.333" y="32" type="line"/>
			<point x="427.667" y="36.6667" type="line" smooth="yes"/>
			<point x="447" y="38.3333"/>
			<point x="455.667" y="44.6667"/>
			<point x="455.667" y="57.6667" type="curve" smooth="yes"/>
			<point x="455.667" y="62.6667"/>
			<point x="454" y="69"/>
			<point x="451.333" y="77.3333" type="curve" smooth="yes"/>
			<point x="389.333" y="260" type="line"/>
			<point x="175.333" y="260" type="line"/>
			<point x="118.667" y="75.6667" type="line" smooth="yes"/>
			<point x="116.667" y="68.6667"/>
			<point x="115" y="61.6667"/>
			<point x="115" y="56.6667" type="curve" smooth="yes"/>
			<point x="115" y="45"/>
			<point x="122.333" y="38.6667"/>
			<point x="141.333" y="37" type="curve" smooth="yes"/>
			<point x="196" y="32" type="line"/>
			<point x="196" y="0" type="line"/>
		</contour>
		<contour>
			<point x="189.333" y="301.333" type="line"/>
			<point x="376" y="301.333" type="line"/>
			<point x="284" y="578.333" type="line"/>
			<point x="281" y="578.333" type="line"/>
		</contour>
	</outline>
	<anchor name="aring" x="312" y="666.667"/>
	<anchor name="ogonek" x="518.667" y="10"/>
	<anchor name="tonos" x="165.333" y="703.667"/>
	<anchor name="top" x="313.333" y="736.667"/>
</glyph>
<glyph name="B" format="2">
	<unicode hex="0042"/>
	<advance width="658"/>
	<outline>
		<contour>
			<point x="34.3333" y="0" type="line"/>
			<point x="34.3333" y="32" type="line"/>
			<point x="116.667" y="37"/>
			<point x="120.667" y="40"/>
			<point x="120.667" y="94.3333" type="curve" smooth="yes"/>
			<point x="120.667" y="597.667" type="line" smooth="yes"/>
			<point x="120.667" y="652"/>
			<point x="116.667" y="655"/>
			<point x="34.3333" y="660" type="curve"/>
			<point x="34.3333" y="692" type="line"/>
			<point x="337" y="692" type="line" smooth="yes"/>
			<point x="443" y="692"/>
			<point x="514" y="670.667"/>
			<point x="540" y="612.667" type="curve"/>
			<point x="566.667" y="567.333"/>
			<point x="564.667" y="522.667"/>
			<point x="532" y="479" type="curve"/>
			<point x="532" y="427.557"/>
			<point x="495.333" y="388.47"/>
			<point x="432.667" y="375.667" type="curve"/>
			<point x="463.667" y="370.774"/>
			<point x="491" y="351.6"/>
			<point x="491" y="314.333" type="curve"/>
			<point x="555.667" y="287.667"/>
			<point x="606.333" y="237"/>
			<point x="592.667" y="147.333" type="curve"/>
			<point x="578.667" y="43.3333"/>
			<point x="490.333" y="0"/>
			<point x="351" y="0" type="curve" smooth="yes"/>
		</contour>
		<contour>
			<point x="240" y="111.667" type="line" smooth="yes"/>
			<point x="240" y="54"/>
			<point x="258" y="38.6667"/>
			<point x="328" y="38.6667" type="curve" smooth="yes"/>
			<point x="408.667" y="38.6667"/>
			<point x="482" y="71.6667"/>
			<point x="482" y="187.333" type="curve" smooth="yes"/>
			<point x="482" y="286"/>
			<point x="421" y="351"/>
			<point x="305" y="351" type="curve" smooth="yes"/>
			<point x="240" y="351" type="line"/>
		</contour>
		<contour>
			<point x="240" y="389.667" type="line"/>
			<point x="301" y="389.667" type="line" smooth="yes"/>
			<point x="402.333" y="389.667"/>
			<point x="457.333" y="434"/>
			<point x="457.333" y="524" type="curve" smooth="yes"/>
			<point x="457.333" y="617.667"/>
			<point x="392" y="653.333"/>
			<point x="313.333" y="653.333" type="curve" smooth="yes"/>
			<point x="248" y="653.333"/>
			<point x="240" y="647.667"/>
			<point x="240" y="607.667" type="curve" smooth="yes"/>
		</contour>
	</outline>
</glyph>
<glyph name="C" format="2">
	<unicode hex="0043"/>
	<advance width="686"/>
	<outline>
		<contour>
			<point x="46" y="335" type="curve" smooth="yes"/>
			<point x="46" y="579"/>
			<point x="185.333" y="707"/>
			<point x="420.333" y="707" type="curve" smooth="yes"/>
			<point x="499" y="707"/>
			<point x="584.667" y="692.333"/>
			<point x="634.667" y="666.333" type="curve"/>
			<point x="634.667" y="502.667" type="line"/>
			<point x="602" y="502.667" type="line"/>
			<point x="581.667" y="605.333"/>
			<point x="522.667" y="668.333"/>
			<point x="416.667" y="668.333" type="curve" smooth="yes"/>
			<point x="227.667" y="668.333"/>
			<point x="179.667" y="481.333"/>
			<point x="179.667" y="350" type="curve" smooth="yes"/>
			<point x="179.667" y="229.333"/>
			<point x="216.667" y="23.6667"/>
			<point x="415.333" y="23.6667" type="curve" smooth="yes"/>
			<point x="538.333" y="23.6667"/>
			<point x="586.667" y="103.333"/>
			<point x="618" y="209.333" type="curve"/>
			<point x="650.667" y="209.333" type="line"/>
			<point x="637.333" y="33" type="line"/>
			<point x="585.333" y="3.66667"/>
			<point x="489.333" y="-15"/>
			<point x="411.333" y="-15" type="curve" smooth="yes"/>
			<point x="168.333" y="-15"/>
			<point x="46" y="106.333"/>
		</contour>
	</outline>
	<anchor name="cedilla" x="399" y="10"/>
</glyph>
<glyph name="F" format="2">
	<unicode hex="0046"/>
	<advance width="584"/>
	<outline>
		<contour>
			<point x="35.6667" y="0" type="line"/>
			<point x="35.6667" y="32" type="line"/>
			<point x="118" y="37"/>
			<point x="122" y="40"/>
			<point x="122" y="94.3333" type="curve" smooth="yes"/>
			<point x="122" y="597.667" type="line" smooth="yes"/>
			<point x="122" y="652"/>
			<point x="118" y="655"/>
			<point x="35.6667" y="660" type="curve"/>
			<point x="35.6667" y="692" type="line"/>
			<point x="551.333" y="692" type="line"/>
			<point x="551.333" y="523.667" type="line"/>
			<point x="518.667" y="523.667" type="line"/>
			<point x="499" y="624"/>
			<point x="477.667" y="653.333"/>
			<point x="366" y="653.333" type="curve" smooth="yes"/>
			<point x="277.667" y="653.333" type="line" smooth="yes"/>
			<point x="246.333" y="653.333"/>
			<point x="241.333" y="649"/>
			<point x="241.333" y="617.333" type="curve" smooth="yes"/>
			<point x="241.333" y="366.667" type="line"/>
			<point x="372.667" y="366.667" type="line" smooth="yes"/>
			<point x="450.333" y="366.667"/>
			<point x="457.333" y="388.333"/>
			<point x="468.667" y="455.333" type="curve"/>
			<point x="501.333" y="455.333" type="line"/>
			<point x="501.333" y="235.333" type="line"/>
			<point x="468.667" y="235.333" type="line"/>
			<point x="457.333" y="302.333"/>
			<point x="450.333" y="324"/>
			<point x="372.667" y="324" type="curve" smooth="yes"/>
			<point x="241.333" y="324" type="line"/>
			<point x="241.333" y="94.3333" type="line" smooth="yes"/>
			<point x="241.333" y="40"/>
			<point x="246" y="37"/>
			<point x="344" y="32" type="curve"/>
			<point x="344" y="0" type="line"/>
		</contour>
	</outline>
</glyph>
<glyph name="G" format="2">
  <advance width="731"/>
  <unicode hex="0047"/>
  <outline>
    <contour>
      <point x="46" y="335.333" type="curve" smooth="yes"/>
      <point x="46" y="543.667"/>
      <point x="154.667" y="707"/>
      <point x="424" y="707" type="curve" smooth="yes"/>
      <point x="504.333" y="707"/>
      <point x="590.667" y="692.333"/>
      <point x="644.333" y="665" type="curve"/>
      <point x="644.333" y="499.667" type="line"/>
      <point x="611.667" y="499.667" type="line"/>
      <point x="588.333" y="603.667"/>
      <point x="530" y="668.333"/>
      <point x="419" y="668.333" type="curve" smooth="yes"/>
      <point x="230" y="668.333"/>
      <point x="179.667" y="490"/>
      <point x="179.667" y="351" type="curve" smooth="yes"/>
      <point x="179.667" y="243"/>
      <point x="211.667" y="23.667"/>
      <point x="425.333" y="23.667" type="curve" smooth="yes"/>
      <point x="481.667" y="23.667"/>
      <point x="534.333" y="30.333"/>
      <point x="534.333" y="84.667" type="curve" smooth="yes"/>
      <point x="534.333" y="221.667" type="line" smooth="yes"/>
      <point x="534.333" y="270.667"/>
      <point x="528.333" y="276.333"/>
      <point x="435" y="282.667" type="curve"/>
      <point x="435" y="314.667" type="line"/>
      <point x="719.667" y="314.667" type="line"/>
      <point x="719.667" y="282.667" type="line"/>
      <point x="659.667" y="276.333"/>
      <point x="653.667" y="271.333"/>
      <point x="653.667" y="222.333" type="curve" smooth="yes"/>
      <point x="653.667" y="29" type="line"/>
      <point x="588.333" y="5.333"/>
      <point x="491.333" y="-15"/>
      <point x="419.333" y="-15" type="curve" smooth="yes"/>
      <point x="189.667" y="-15"/>
      <point x="46" y="91"/>
    </contour>
  </outline>
</glyph>
<glyph name="H" format="2">
	<unicode hex="0048"/>
	<advance width="801"/>
	<outline>
		<contour>
			<point x="34.3333" y="0" type="line"/>
			<point x="34.3333" y="32" type="line"/>
			<point x="116.667" y="37"/>
			<point x="120.667" y="40"/>
			<point x="120.667" y="94.3333" type="curve" smooth="yes"/>
			<point x="120.667" y="597.667" type="line" smooth="yes"/>
			<point x="120.667" y="652"/>
			<point x="116.667" y="655"/>
			<point x="34.3333" y="660" type="curve"/>
			<point x="34.3333" y="692" type="line"/>
			<point x="326.333" y="692" type="line"/>
			<point x="326.333" y="660" type="line"/>
			<point x="244.667" y="655"/>
			<point x="240" y="652"/>
			<point x="240" y="597.667" type="curve" smooth="yes"/>
			<point x="240" y="382.333" type="line"/>
			<point x="561" y="382.333" type="line"/>
			<point x="561" y="597.667" type="line" smooth="yes"/>
			<point x="561" y="652"/>
			<point x="557" y="655"/>
			<point x="474.667" y="660" type="curve"/>
			<point x="474.667" y="692" type="line"/>
			<point x="766.667" y="692" type="line"/>
			<point x="766.667" y="660" type="line"/>
			<point x="685" y="655"/>
			<point x="680.333" y="652"/>
			<point x="680.333" y="597.667" type="curve" smooth="yes"/>
			<point x="680.333" y="94.3333" type="line" smooth="yes"/>
			<point x="680.333" y="40"/>
			<point x="685" y="37"/>
			<point x="766.667" y="32" type="curve"/>
			<point x="766.667" y="0" type="line"/>
			<point x="474.667" y="0" type="line"/>
			<point x="474.667" y="32" type="line"/>
			<point x="557" y="37"/>
			<point x="561" y="40"/>
			<point x="561" y="94.3333" type="curve" smooth="yes"/>
			<point x="561" y="341" type="line"/>
			<point x="240" y="341" type="line"/>
			<point x="240" y="94.3333" type="line" smooth="yes"/>
			<point x="240" y="40"/>
			<point x="244.667" y="37"/>
			<point x="326.333" y="32" type="curve"/>
			<point x="326.333" y="0" type="line"/>
		</contour>
	</outline>
	<anchor name="cedilla" x="183.333" y="0"/>
	<anchor name="tonos" x="4" y="702"/>
</glyph>
<glyph name="I" format="2">
  <advance width="361"/>
  <unicode hex="0049"/>
  <anchor x="196.667" y="10" name="ogonek"/>
  <anchor x="0" y="702" name="tonos"/>
  <anchor x="180.667" y="-65.333" name="bottom"/>
  <outline>
    <contour>
      <point x="34.333" y="0" type="line"/>
      <point x="34.333" y="32" type="line"/>
      <point x="116.667" y="37"/>
      <point x="120.667" y="40"/>
      <point x="120.667" y="94.333" type="curve" smooth="yes"/>
      <point x="120.667" y="597.667" type="line" smooth="yes"/>
      <point x="120.667" y="652"/>
      <point x="116.667" y="655"/>
      <point x="34.333" y="660" type="curve"/>
      <point x="34.333" y="692" type="line"/>
      <point x="326.333" y="692" type="line"/>
      <point x="326.333" y="660" type="line"/>
      <point x="244.667" y="655"/>
      <point x="240" y="652"/>
      <point x="240" y="597.667" type="curve" smooth="yes"/>
      <point x="240" y="94.333" type="line" smooth="yes"/>
      <point x="240" y="40"/>
      <point x="244.667" y="37"/>
      <point x="326.333" y="32" type="curve"/>
      <point x="326.333" y="0" type="line"/>
    </contour>
  </outline>
</glyph>
<glyph name="J" format="2">
	<unicode hex="004A"/>
	<advance width="362"/>
	<outline>
		<contour>
			<point x="2" y="-87" type="line"/>
			<point x="37" y="-77.3333"/>
			<point x="68" y="-62"/>
			<point x="89.6667" y="-36.6667" type="curve" smooth="yes"/>
			<point x="113.333" y="-8.66667"/>
			<point x="130" y="43.3333"/>
			<point x="130" y="140" type="curve" smooth="yes"/>
			<point x="130" y="597.667" type="line" smooth="yes"/>
			<point x="130" y="652"/>
			<point x="126" y="655"/>
			<point x="43.6667" y="660" type="curve"/>
			<point x="43.6667" y="692" type="line"/>
			<point x="335.667" y="692" type="line"/>
			<point x="335.667" y="660" type="line"/>
			<point x="254" y="655"/>
			<point x="249.333" y="652"/>
			<point x="249.333" y="597.667" type="curve" smooth="yes"/>
			<point x="249.333" y="143" type="line" smooth="yes"/>
			<point x="249.333" y="37.3333"/>
			<point x="232.333" y="-42.6667"/>
			<point x="146.667" y="-82.3333" type="curve" smooth="yes"/>
			<point x="103.667" y="-102.333"/>
			<point x="52" y="-113"/>
			<point x="7.33333" y="-114" type="curve"/>
		</contour>
	</outline>
</glyph>
<glyph name="L" format="2">
  <advance width="574"/>
  <unicode hex="004C"/>
  <anchor x="511" y="742" name="quote"/>
  <anchor x="379.667" y="383" name="dot"/>
  <outline>
    <contour>
      <point x="34.333" y="0" type="line"/>
      <point x="34.333" y="32" type="line"/>
      <point x="116.667" y="37"/>
      <point x="120.667" y="40"/>
      <point x="120.667" y="94.333" type="curve" smooth="yes"/>
      <point x="120.667" y="597.667" type="line" smooth="yes"/>
      <point x="120.667" y="652"/>
      <point x="116.667" y="655"/>
      <point x="34.333" y="660" type="curve"/>
      <point x="34.333" y="692" type="line"/>
      <point x="334.333" y="692" type="line"/>
      <point x="334.333" y="660" type="line"/>
      <point x="244.667" y="655"/>
      <point x="240" y="652"/>
      <point x="240" y="597.667" type="curve" smooth="yes"/>
      <point x="240" y="119.667" type="line" smooth="yes"/>
      <point x="240" y="45"/>
      <point x="276.333" y="38.667"/>
      <point x="365" y="38.667" type="curve" smooth="yes"/>
      <point x="471" y="38.667"/>
      <point x="514" y="65.667"/>
      <point x="539.333" y="186.333" type="curve"/>
      <point x="572" y="186.333" type="line"/>
      <point x="560" y="0" type="line"/>
    </contour>
  </outline>
</glyph>
<glyph name="M" format="2">
  <advance width="935"/>
  <unicode hex="004D"/>
  <outline>
    <contour>
      <point x="29.667" y="660" type="curve"/>
      <point x="29.667" y="692" type="line"/>
      <point x="253" y="692" type="line"/>
      <point x="467.333" y="185.333" type="line"/>
      <point x="469.667" y="185.333" type="line"/>
      <point x="680.667" y="692" type="line"/>
      <point x="901" y="692" type="line"/>
      <point x="901" y="660" type="line"/>
      <point x="819.333" y="655"/>
      <point x="814.667" y="652"/>
      <point x="814.667" y="597.667" type="curve" smooth="yes"/>
      <point x="814.667" y="94.333" type="line" smooth="yes"/>
      <point x="814.667" y="40"/>
      <point x="819.333" y="37"/>
      <point x="901" y="32" type="curve"/>
      <point x="901" y="0" type="line"/>
      <point x="612" y="0" type="line"/>
      <point x="612" y="32" type="line"/>
      <point x="694.333" y="37"/>
      <point x="698.333" y="40"/>
      <point x="698.333" y="94.333" type="curve" smooth="yes"/>
      <point x="698.333" y="597.667" type="line"/>
      <point x="695.333" y="597.667" type="line"/>
      <point x="451.667" y="14" type="line"/>
      <point x="413.333" y="14" type="line"/>
      <point x="169.667" y="597.667" type="line"/>
      <point x="167.333" y="597.667" type="line"/>
      <point x="167.333" y="209.333" type="line" smooth="yes"/>
      <point x="167.333" y="96.494"/>
      <point x="170.332" y="42.467"/>
      <point x="269" y="32" type="curve"/>
      <point x="269" y="0" type="line"/>
      <point x="31.333" y="0" type="line"/>
      <point x="31.333" y="32" type="line"/>
      <point x="109.856" y="42.352"/>
      <point x="116" y="96.937"/>
      <point x="116" y="209.333" type="curve" smooth="yes"/>
      <point x="116" y="597.667" type="line" smooth="yes"/>
      <point x="116" y="652"/>
      <point x="112" y="655"/>
    </contour>
  </outline>
</glyph>
<glyph name="N" format="2">
  <advance width="766"/>
  <unicode hex="004E"/>
  <outline>
    <contour>
      <point x="31" y="660" type="curve"/>
      <point x="31" y="692" type="line"/>
      <point x="238" y="692" type="line"/>
      <point x="603" y="164" type="line"/>
      <point x="605.667" y="164" type="line"/>
      <point x="605.667" y="472.667" type="line" smooth="yes"/>
      <point x="605.667" y="535.333"/>
      <point x="603.667" y="573.333"/>
      <point x="599.333" y="607.333" type="curve" smooth="yes"/>
      <point x="594.333" y="649.667"/>
      <point x="565" y="655"/>
      <point x="503.333" y="660" type="curve"/>
      <point x="503.333" y="692" type="line"/>
      <point x="741.667" y="692" type="line"/>
      <point x="741.667" y="660" type="line"/>
      <point x="691" y="655"/>
      <point x="668" y="649.333"/>
      <point x="663" y="607.333" type="curve" smooth="yes"/>
      <point x="659" y="573.667"/>
      <point x="657" y="535.333"/>
      <point x="657" y="472.667" type="curve" smooth="yes"/>
      <point x="657" y="0" type="line"/>
      <point x="576.333" y="0" type="line"/>
      <point x="171.333" y="587.333" type="line"/>
      <point x="168.667" y="587.333" type="line"/>
      <point x="168.667" y="219.333" type="line" smooth="yes"/>
      <point x="168.667" y="156.667"/>
      <point x="170.667" y="118.667"/>
      <point x="175" y="84.667" type="curve" smooth="yes"/>
      <point x="180.333" y="40.667"/>
      <point x="209.333" y="37"/>
      <point x="271" y="32" type="curve"/>
      <point x="271" y="0" type="line"/>
      <point x="32.667" y="0" type="line"/>
      <point x="32.667" y="32" type="line"/>
      <point x="85.667" y="37.333"/>
      <point x="108.333" y="43"/>
      <point x="112" y="87.667" type="curve" smooth="yes"/>
      <point x="114.667" y="118.333"/>
      <point x="117.333" y="156.667"/>
      <point x="117.333" y="219.333" type="curve" smooth="yes"/>
      <point x="117.333" y="597.667" type="line" smooth="yes"/>
      <point x="117.333" y="652"/>
      <point x="113.333" y="655"/>
    </contour>
  </outline>
</glyph>
<glyph name="O" format="2">
  <advance width="764"/>
  <unicode hex="004F"/>
  <anchor x="56.667" y="702" name="tonos"/>
  <outline>
    <contour>
      <point x="46" y="346" type="curve" smooth="yes"/>
      <point x="46" y="564.667"/>
      <point x="156" y="707"/>
      <point x="382" y="707" type="curve" smooth="yes"/>
      <point x="608" y="707"/>
      <point x="718" y="564.667"/>
      <point x="718" y="346" type="curve" smooth="yes"/>
      <point x="718" y="127.333"/>
      <point x="608" y="-15"/>
      <point x="382" y="-15" type="curve" smooth="yes"/>
      <point x="156" y="-15"/>
      <point x="46" y="127.333"/>
    </contour>
    <contour>
      <point x="179.667" y="347" type="curve" smooth="yes"/>
      <point x="179.667" y="207.667"/>
      <point x="215" y="23.667"/>
      <point x="382" y="23.667" type="curve" smooth="yes"/>
      <point x="549.667" y="23.667"/>
      <point x="584.333" y="207.667"/>
      <point x="584.333" y="346" type="curve" smooth="yes"/>
      <point x="584.333" y="484.333"/>
      <point x="549.667" y="668.333"/>
      <point x="382" y="668.333" type="curve" smooth="yes"/>
      <point x="214.333" y="668.333"/>
      <point x="179.667" y="484.333"/>
    </contour>
  </outline>
</glyph>
<glyph name="Q" format="2">
  <advance width="764"/>
  <unicode hex="0051"/>
  <outline>
    <contour>
      <point x="46" y="350.667" type="curve" smooth="yes"/>
      <point x="46" y="564.667"/>
      <point x="155.333" y="707"/>
      <point x="382" y="707" type="curve" smooth="yes"/>
      <point x="608.667" y="707"/>
      <point x="718" y="564.667"/>
      <point x="718" y="355" type="curve" smooth="yes"/>
      <point x="718" y="140.667"/>
      <point x="603.667" y="-16.333"/>
      <point x="378.667" y="-16.333" type="curve" smooth="yes"/>
      <point x="160.333" y="-16.333"/>
      <point x="46" y="132"/>
    </contour>
    <contour>
      <point x="179.667" y="348" type="curve" smooth="yes"/>
      <point x="179.667" y="207.333"/>
      <point x="215" y="23.667"/>
      <point x="382" y="23.667" type="curve" smooth="yes"/>
      <point x="549" y="23.667"/>
      <point x="584.333" y="207.333"/>
      <point x="584.333" y="348" type="curve" smooth="yes"/>
      <point x="584.333" y="489.333"/>
      <point x="549" y="668.333"/>
      <point x="382" y="668.333" type="curve" smooth="yes"/>
      <point x="215" y="668.333"/>
      <point x="179.667" y="489.333"/>
    </contour>
    <contour>
      <point x="468" y="4.333" type="line"/>
      <point x="494.667" y="-54.333"/>
      <point x="585" y="-154.333"/>
      <point x="664.333" y="-154.333" type="curve"/>
      <point x="665.102" y="-154.333"/>
      <point x="672.312" y="-154.333"/>
      <point x="680" y="-153.667" type="curve"/>
      <point x="684" y="-172.333" type="line"/>
      <point x="662" y="-186.333"/>
      <point x="630.333" y="-193"/>
      <point x="596" y="-193" type="curve" smooth="yes"/>
      <point x="467" y="-193"/>
      <point x="372" y="-99"/>
      <point x="330.333" y="1" type="curve"/>
    </contour>
  </outline>
</glyph>
<glyph name="R" format="2">
	<unicode hex="0052"/>
	<advance width="657"/>
	<outline>
		<contour>
			<point x="34.3333" y="0" type="line"/>
			<point x="34.3333" y="32" type="line"/>
			<point x="116.667" y="37"/>
			<point x="120.667" y="40"/>
			<point x="120.667" y="94.3333" type="curve" smooth="yes"/>
			<point x="120.667" y="597.667" type="line" smooth="yes"/>
			<point x="120.667" y="652"/>
			<point x="116.667" y="655"/>
			<point x="34.3333" y="660" type="curve"/>
			<point x="34.3333" y="692" type="line"/>
			<point x="344.667" y="692" type="line" smooth="yes"/>
			<point x="503.333" y="692"/>
			<point x="582.333" y="631.333"/>
			<point x="582.333" y="521" type="curve" smooth="yes"/>
			<point x="582.333" y="426"/>
			<point x="513" y="362.333"/>
			<point x="417.333" y="346" type="curve"/>
			<point x="417.333" y="344" type="line"/>
			<point x="522.333" y="318"/>
			<point x="540.667" y="251.333"/>
			<point x="552.667" y="171.333" type="curve" smooth="yes"/>
			<point x="562.333" y="103.333"/>
			<point x="581" y="38.3333"/>
			<point x="654" y="32" type="curve"/>
			<point x="654" y="0" type="line"/>
			<point x="588.667" y="0" type="line" smooth="yes"/>
			<point x="453.333" y="0"/>
			<point x="440.333" y="82"/>
			<point x="423.333" y="189.333" type="curve" smooth="yes"/>
			<point x="411" y="265"/>
			<point x="398.333" y="323.333"/>
			<point x="301.333" y="323.333" type="curve" smooth="yes"/>
			<point x="240" y="323.333" type="line"/>
			<point x="240" y="94.3333" type="line" smooth="yes"/>
			<point x="240" y="43.3333"/>
			<point x="242.667" y="37.6667"/>
			<point x="316.333" y="32" type="curve"/>
			<point x="316.333" y="0" type="line"/>
		</contour>
		<contour>
			<point x="240" y="362" type="line"/>
			<point x="309.333" y="362" type="line" smooth="yes"/>
			<point x="407.667" y="362"/>
			<point x="455" y="412.667"/>
			<point x="455" y="506.667" type="curve" smooth="yes"/>
			<point x="455" y="623"/>
			<point x="382" y="653.333"/>
			<point x="310" y="653.333" type="curve" smooth="yes"/>
			<point x="247.667" y="653.333"/>
			<point x="240" y="644"/>
			<point x="240" y="607" type="curve" smooth="yes"/>
		</contour>
	</outline>
</glyph>
<glyph name="T" format="2">
  <advance width="622"/>
  <unicode hex="0054"/>
  <outline>
    <contour>
      <point x="19.667" y="518.667" type="line"/>
      <point x="19.667" y="692" type="line"/>
      <point x="602.333" y="692" type="line"/>
      <point x="602.333" y="518.667" type="line"/>
      <point x="569.667" y="518.667" type="line"/>
      <point x="550.667" y="624.667"/>
      <point x="532" y="653.333"/>
      <point x="423.333" y="653.333" type="curve" smooth="yes"/>
      <point x="370.667" y="653.333" type="line"/>
      <point x="370.667" y="93.667" type="line" smooth="yes"/>
      <point x="370.667" y="39.667"/>
      <point x="385.667" y="37.333"/>
      <point x="476" y="32" type="curve"/>
      <point x="476" y="0" type="line"/>
      <point x="146" y="0" type="line"/>
      <point x="146" y="32" type="line"/>
      <point x="236.333" y="37.333"/>
      <point x="251.333" y="39.667"/>
      <point x="251.333" y="93.667" type="curve" smooth="yes"/>
      <point x="251.333" y="653.333" type="line"/>
      <point x="198.667" y="653.333" type="line" smooth="yes"/>
      <point x="90" y="653.333"/>
      <point x="71.333" y="624.667"/>
      <point x="52.333" y="518.667" type="curve"/>
    </contour>
  </outline>
</glyph>
<glyph name="U" format="2">
  <advance width="789"/>
  <unicode hex="0055"/>
  <anchor x="425.667" y="0" name="ogonek"/>
  <outline>
    <contour>
      <point x="29" y="660" type="curve"/>
      <point x="29" y="692" type="line"/>
      <point x="319" y="692" type="line"/>
      <point x="319" y="660" type="line"/>
      <point x="238.333" y="655"/>
      <point x="233.667" y="652"/>
      <point x="233.667" y="597.667" type="curve" smooth="yes"/>
      <point x="233.667" y="253.667" type="line" smooth="yes"/>
      <point x="233.667" y="133"/>
      <point x="263.667" y="23.667"/>
      <point x="394.333" y="23.667" type="curve" smooth="yes"/>
      <point x="526.333" y="23.667"/>
      <point x="555.667" y="132.333"/>
      <point x="555.667" y="253.667" type="curve" smooth="yes"/>
      <point x="555.667" y="597.667" type="line" smooth="yes"/>
      <point x="555.667" y="652"/>
      <point x="551.667" y="655"/>
      <point x="470.333" y="660" type="curve"/>
      <point x="470.333" y="692" type="line"/>
      <point x="760.333" y="692" type="line"/>
      <point x="760.333" y="660" type="line"/>
      <point x="679.667" y="655"/>
      <point x="675" y="652"/>
      <point x="675" y="597.667" type="curve" smooth="yes"/>
      <point x="675" y="245" type="line" smooth="yes"/>
      <point x="675" y="64.667"/>
      <point x="584.667" y="-15"/>
      <point x="393.333" y="-15" type="curve" smooth="yes"/>
      <point x="201" y="-15"/>
      <point x="114.333" y="65.333"/>
      <point x="114.333" y="243.667" type="curve" smooth="yes"/>
      <point x="114.333" y="597.667" type="line" smooth="yes"/>
      <point x="114.333" y="652"/>
      <point x="110.333" y="655"/>
    </contour>
  </outline>
</glyph>
<glyph name="V" format="2">
  <advance width="638"/>
  <unicode hex="0056"/>
  <outline>
    <contour>
      <point x="-17.333" y="660" type="curve"/>
      <point x="-17.333" y="692" type="line"/>
      <point x="255.667" y="692" type="line"/>
      <point x="255.667" y="660" type="line"/>
      <point x="205" y="655" type="line" smooth="yes"/>
      <point x="189.333" y="653.333"/>
      <point x="182.667" y="648.667"/>
      <point x="182.667" y="638" type="curve" smooth="yes"/>
      <point x="182.667" y="633"/>
      <point x="184" y="626.667"/>
      <point x="186.667" y="619" type="curve" smooth="yes"/>
      <point x="357.333" y="121.667" type="line"/>
      <point x="360.333" y="121.667" type="line"/>
      <point x="529.333" y="623.333" type="line"/>
      <point x="530.667" y="628"/>
      <point x="531.667" y="633"/>
      <point x="531.667" y="638" type="curve" smooth="yes"/>
      <point x="531.667" y="648"/>
      <point x="526.333" y="653.333"/>
      <point x="509" y="655" type="curve" smooth="yes"/>
      <point x="453.667" y="660" type="line"/>
      <point x="453.667" y="692" type="line"/>
      <point x="678.333" y="692" type="line"/>
      <point x="678.333" y="660" type="line"/>
      <point x="623.667" y="656.667"/>
      <point x="609.667" y="654"/>
      <point x="592" y="605.667" type="curve" smooth="yes"/>
      <point x="368" y="0" type="line"/>
      <point x="278.667" y="0" type="line"/>
      <point x="66.667" y="603.667" type="line" smooth="yes"/>
      <point x="48.667" y="653.333"/>
      <point x="37" y="658"/>
    </contour>
  </outline>
</glyph>
<glyph name="W" format="2">
  <advance width="938"/>
  <unicode hex="0057"/>
  <outline>
    <contour>
      <point x="-12" y="660.667" type="curve"/>
      <point x="-12" y="692" type="line"/>
      <point x="251" y="692" type="line"/>
      <point x="251" y="660.667" type="line"/>
      <point x="202.333" y="655" type="line" smooth="yes"/>
      <point x="186.667" y="653"/>
      <point x="178.667" y="650"/>
      <point x="178.667" y="636" type="curve" smooth="yes"/>
      <point x="178.667" y="631"/>
      <point x="179.667" y="624.333"/>
      <point x="182.333" y="615" type="curve" smooth="yes"/>
      <point x="311" y="133" type="line"/>
      <point x="313" y="133" type="line"/>
      <point x="456.333" y="675" type="line"/>
      <point x="543.333" y="675" type="line"/>
      <point x="700" y="133" type="line"/>
      <point x="703.333" y="133" type="line"/>
      <point x="823.667" y="615.333" type="line" smooth="yes"/>
      <point x="825" y="621"/>
      <point x="826" y="626"/>
      <point x="826" y="630.333" type="curve" smooth="yes"/>
      <point x="826" y="643.333"/>
      <point x="819.667" y="652"/>
      <point x="802.667" y="654" type="curve" smooth="yes"/>
      <point x="742.333" y="660.667" type="line"/>
      <point x="742.333" y="692" type="line"/>
      <point x="971.333" y="692" type="line"/>
      <point x="971.333" y="660.667" type="line"/>
      <point x="912" y="655.667"/>
      <point x="899.333" y="651.333"/>
      <point x="883.667" y="596.667" type="curve" smooth="yes"/>
      <point x="716" y="0" type="line"/>
      <point x="623" y="0" type="line"/>
      <point x="470.667" y="525.333" type="line"/>
      <point x="468.333" y="525.333" type="line"/>
      <point x="324.333" y="0" type="line"/>
      <point x="231" y="0" type="line"/>
      <point x="67.333" y="601.333" type="line"/>
      <point x="52.667" y="652.667"/>
      <point x="44" y="657"/>
    </contour>
  </outline>
</glyph>
<glyph name="X" format="2">
  <advance width="627"/>
  <unicode hex="0058"/>
  <outline>
    <contour>
      <point x="-19" y="0" type="line"/>
      <point x="-19" y="32" type="line"/>
      <point x="45.333" y="37.333"/>
      <point x="55.667" y="39"/>
      <point x="87" y="85" type="curve" smooth="yes"/>
      <point x="261" y="340" type="line"/>
      <point x="99" y="601" type="line" smooth="yes"/>
      <point x="67.667" y="651"/>
      <point x="57" y="658.333"/>
      <point x="-3.333" y="660" type="curve"/>
      <point x="-3.333" y="692" type="line"/>
      <point x="270.333" y="692" type="line"/>
      <point x="270.333" y="660" type="line"/>
      <point x="224.333" y="655" type="line" smooth="yes"/>
      <point x="213" y="654"/>
      <point x="207.667" y="648.667"/>
      <point x="207.667" y="640.667" type="curve" smooth="yes"/>
      <point x="207.667" y="635.333"/>
      <point x="209.667" y="628.667"/>
      <point x="214.667" y="620.667" type="curve" smooth="yes"/>
      <point x="331.333" y="435" type="line"/>
      <point x="333.333" y="435" type="line"/>
      <point x="453.667" y="623.333" type="line" smooth="yes"/>
      <point x="459" y="631.333"/>
      <point x="460.667" y="637.667"/>
      <point x="460.667" y="642.333" type="curve" smooth="yes"/>
      <point x="460.667" y="649.667"/>
      <point x="455.333" y="654"/>
      <point x="444.333" y="655" type="curve" smooth="yes"/>
      <point x="398" y="660" type="line"/>
      <point x="398" y="692" type="line"/>
      <point x="623" y="692" type="line"/>
      <point x="623" y="660" type="line"/>
      <point x="566.667" y="657"/>
      <point x="549" y="654"/>
      <point x="512.667" y="604" type="curve" smooth="yes"/>
      <point x="359" y="393" type="line"/>
      <point x="552" y="90" type="line" smooth="yes"/>
      <point x="581.333" y="43"/>
      <point x="592.667" y="36.333"/>
      <point x="661.667" y="32" type="curve"/>
      <point x="661.667" y="0" type="line"/>
      <point x="360.333" y="0" type="line"/>
      <point x="360.333" y="32" type="line"/>
      <point x="414" y="38" type="line" smooth="yes"/>
      <point x="427.333" y="39.333"/>
      <point x="434.667" y="44.667"/>
      <point x="434.667" y="52.667" type="curve" smooth="yes"/>
      <point x="434.667" y="57"/>
      <point x="433" y="62.333"/>
      <point x="429.333" y="68.333" type="curve" smooth="yes"/>
      <point x="289" y="294.667" type="line"/>
      <point x="286.333" y="294.667" type="line"/>
      <point x="152.667" y="67.667" type="line"/>
      <point x="149.333" y="62.333"/>
      <point x="147.667" y="57"/>
      <point x="147.667" y="52.667" type="curve" smooth="yes"/>
      <point x="147.667" y="44.667"/>
      <point x="154" y="39"/>
      <point x="165.333" y="38" type="curve" smooth="yes"/>
      <point x="227.333" y="32" type="line"/>
      <point x="227.333" y="0" type="line"/>
    </contour>
  </outline>
</glyph>
<glyph name="Y" format="2">
	<unicode hex="0059"/>
	<advance width="598"/>
	<outline>
		<contour>
			<point x="-12" y="660" type="curve"/>
			<point x="-12" y="692" type="line"/>
			<point x="266" y="692" type="line"/>
			<point x="266" y="660" type="line"/>
			<point x="208.667" y="654" type="line" smooth="yes"/>
			<point x="197.333" y="652.667"/>
			<point x="192.667" y="647.333"/>
			<point x="192.667" y="639.333" type="curve" smooth="yes"/>
			<point x="192.667" y="634.333"/>
			<point x="193.667" y="629"/>
			<point x="196.667" y="623" type="curve" smooth="yes"/>
			<point x="340.333" y="330.667" type="line"/>
			<point x="342.667" y="330.667" type="line"/>
			<point x="479.667" y="620" type="line" smooth="yes"/>
			<point x="483" y="627.333"/>
			<point x="484" y="633.667"/>
			<point x="484" y="638" type="curve" smooth="yes"/>
			<point x="484" y="648"/>
			<point x="479" y="653.667"/>
			<point x="466.667" y="654.667" type="curve" smooth="yes"/>
			<point x="413.333" y="660" type="line"/>
			<point x="413.333" y="692" type="line"/>
			<point x="639.667" y="692" type="line"/>
			<point x="639.667" y="660" type="line"/>
			<point x="577" y="656"/>
			<point x="565.333" y="649.333"/>
			<point x="537" y="598" type="curve" smooth="yes"/>
			<point x="505.605" y="541.415"/>
			<point x="417.304" y="374.804"/>
			<point x="384" y="310.333" type="curve" smooth="yes"/>
			<point x="373" y="289.333"/>
			<point x="369.333" y="272.667"/>
			<point x="369.333" y="247.333" type="curve" smooth="yes"/>
			<point x="369.333" y="94.3333" type="line" smooth="yes"/>
			<point x="369.333" y="40.6667"/>
			<point x="374" y="37"/>
			<point x="472" y="32" type="curve"/>
			<point x="472" y="0" type="line"/>
			<point x="147.333" y="0" type="line"/>
			<point x="147.333" y="32" type="line"/>
			<point x="245.333" y="37"/>
			<point x="250" y="40.6667"/>
			<point x="250" y="94.3333" type="curve" smooth="yes"/>
			<point x="250" y="241.333" type="line" smooth="yes"/>
			<point x="250" y="263"/>
			<point x="243.667" y="282.333"/>
			<point x="233" y="303" type="curve" smooth="yes"/>
			<point x="75.3333" y="607.667" type="line" smooth="yes"/>
			<point x="53" y="651"/>
			<point x="40.6667" y="657.333"/>
		</contour>
	</outline>
	<anchor name="tonos" x="-39.3333" y="702"/>
</glyph>
<glyph name="Z" format="2">
  <advance width="611"/>
  <unicode hex="005A"/>
  <outline>
    <contour>
      <point x="6" y="16" type="line"/>
      <point x="439.667" y="653.333" type="line"/>
      <point x="278" y="653.333" type="line" smooth="yes"/>
      <point x="146" y="653.333"/>
      <point x="116.667" y="627.333"/>
      <point x="100.667" y="512" type="curve"/>
      <point x="66.667" y="512" type="line"/>
      <point x="66.667" y="692" type="line"/>
      <point x="585.333" y="692" type="line"/>
      <point x="593.667" y="676.333" type="line"/>
      <point x="159.333" y="38.667" type="line"/>
      <point x="347.667" y="38.667" type="line" smooth="yes"/>
      <point x="499.667" y="38.667"/>
      <point x="539.333" y="67.667"/>
      <point x="564" y="188.333" type="curve"/>
      <point x="598" y="188.333" type="line"/>
      <point x="587.333" y="0" type="line"/>
      <point x="13.667" y="0" type="line"/>
    </contour>
  </outline>
</glyph>
<glyph name="bracketleft" format="2">
  <advance width="304"/>
  <unicode hex="005B"/>
  <outline>
    <contour>
      <point x="101" y="-128" type="line"/>
      <point x="101" y="692" type="line"/>
      <point x="268.666" y="692" type="line"/>
      <point x="268.666" y="662.667" type="line"/>
      <point x="191" y="658"/>
      <point x="174.333" y="654"/>
      <point x="174.333" y="608" type="curve" smooth="yes"/>
      <point x="174.333" y="-44" type="line" smooth="yes"/>
      <point x="174.333" y="-90"/>
      <point x="191" y="-94"/>
      <point x="268.666" y="-98.667" type="curve"/>
      <point x="268.666" y="-128" type="line"/>
    </contour>
  </outline>
</glyph>
<glyph name="backslash" format="2">
  <advance width="433"/>
  <unicode hex="005C"/>
  <outline>
    <contour>
      <point x="72" y="707" type="line"/>
      <point x="150" y="707" type="line"/>
      <point x="361" y="-15" type="line"/>
      <point x="283" y="-15" type="line"/>
    </contour>
  </outline>
</glyph>
<glyph name="asciicircum" format="2">
	<unicode hex="005E"/>
	<advance width="580"/>
	<outline>
		<contour>
			<point x="56" y="223.667" type="line"/>
			<point x="252.333" y="668" type="line"/>
			<point x="332.667" y="668" type="line"/>
			<point x="524" y="223.667" type="line"/>
			<point x="442" y="223.667" type="line"/>
			<point x="292" y="584.667" type="line"/>
			<point x="138" y="223.667" type="line"/>
		</contour>
	</outline>
</glyph>
<glyph name="a" format="2">
  <advance width="530"/>
  <unicode hex="0061"/>
  <anchor x="268.333" y="540" name="aring"/>
  <anchor x="437" y="10" name="ogonek"/>
  <outline>
    <contour>
      <point x="46.333" y="130.667" type="curve" smooth="yes"/>
      <point x="46.333" y="181.333"/>
      <point x="69.333" y="231.333"/>
      <point x="142.333" y="252" type="curve" smooth="yes"/>
      <point x="217.333" y="273.333"/>
      <point x="310.667" y="301"/>
      <point x="339" y="326.333" type="curve"/>
      <point x="339" y="372" type="line" smooth="yes"/>
      <point x="339" y="444.333"/>
      <point x="298.667" y="463.333"/>
      <point x="263.667" y="463.333" type="curve" smooth="yes"/>
      <point x="226.333" y="463.333"/>
      <point x="187.667" y="442.333"/>
      <point x="164.333" y="366.667" type="curve" smooth="yes"/>
      <point x="157.667" y="345.333"/>
      <point x="150" y="332.667"/>
      <point x="130.333" y="332.667" type="curve" smooth="yes"/>
      <point x="108" y="332.667"/>
      <point x="62.667" y="348.667"/>
      <point x="62.667" y="388" type="curve" smooth="yes"/>
      <point x="62.667" y="443.333"/>
      <point x="150.667" y="502"/>
      <point x="276.667" y="502" type="curve" smooth="yes"/>
      <point x="436" y="502"/>
      <point x="448" y="426"/>
      <point x="448" y="366.667" type="curve" smooth="yes"/>
      <point x="448" y="128.333" type="line" smooth="yes"/>
      <point x="448" y="58"/>
      <point x="463.667" y="42.333"/>
      <point x="504" y="42.333" type="curve" smooth="yes"/>
      <point x="514.667" y="42.333"/>
      <point x="525.667" y="43.333"/>
      <point x="532" y="45" type="curve"/>
      <point x="537" y="18" type="line"/>
      <point x="500.667" y="1"/>
      <point x="451" y="-12"/>
      <point x="417" y="-12" type="curve" smooth="yes"/>
      <point x="369.667" y="-12"/>
      <point x="353.333" y="12.333"/>
      <point x="339.667" y="47.333" type="curve"/>
      <point x="307.333" y="25"/>
      <point x="252" y="-12"/>
      <point x="185.333" y="-12" type="curve" smooth="yes"/>
      <point x="95.667" y="-12"/>
      <point x="46.333" y="56"/>
    </contour>
    <contour>
      <point x="163.667" y="147" type="curve" smooth="yes"/>
      <point x="163.667" y="89"/>
      <point x="195.333" y="49.333"/>
      <point x="248.333" y="49.333" type="curve" smooth="yes"/>
      <point x="285.333" y="49.333"/>
      <point x="339" y="68"/>
      <point x="339" y="140" type="curve" smooth="yes"/>
      <point x="339" y="282.333" type="line"/>
      <point x="316.333" y="268.333"/>
      <point x="268.667" y="249.667"/>
      <point x="231.667" y="236.333" type="curve" smooth="yes"/>
      <point x="183.333" y="219"/>
      <point x="163.667" y="193"/>
    </contour>
  </outline>
</glyph>
<glyph name="b" format="2">
  <advance width="600"/>
  <unicode hex="0062"/>
  <outline>
    <contour>
      <point x="18.333" y="687.667" type="line"/>
      <point x="18.333" y="716.333" type="line"/>
      <point x="190.667" y="742" type="line"/>
      <point x="197.667" y="736" type="line"/>
      <point x="197.667" y="431.667" type="line"/>
      <point x="238" y="462.333"/>
      <point x="293.667" y="502"/>
      <point x="370.781" y="502" type="curve" smooth="yes"/>
      <point x="518.667" y="502"/>
      <point x="556.333" y="353.667"/>
      <point x="556.333" y="254.857" type="curve" smooth="yes"/>
      <point x="556.333" y="46.667"/>
      <point x="439.333" y="-12"/>
      <point x="305.101" y="-12" type="curve" smooth="yes"/>
      <point x="231.333" y="-12"/>
      <point x="187.333" y="5.667"/>
      <point x="152" y="25.333" type="curve"/>
      <point x="107.333" y="-12" type="line"/>
      <point x="84.667" y="-0.667" type="line"/>
      <point x="84.667" y="635" type="line" smooth="yes"/>
      <point x="84.667" y="673.667"/>
      <point x="78" y="680"/>
      <point x="55.333" y="683" type="curve" smooth="yes"/>
    </contour>
    <contour>
      <point x="197.667" y="160" type="line" smooth="yes"/>
      <point x="197.667" y="89.902"/>
      <point x="219.401" y="26.667"/>
      <point x="302.185" y="26.667" type="curve" smooth="yes"/>
      <point x="395.333" y="26.667"/>
      <point x="434" y="105.667"/>
      <point x="434" y="243.796" type="curve" smooth="yes"/>
      <point x="434" y="416"/>
      <point x="358.333" y="440.333"/>
      <point x="308.193" y="440.333" type="curve" smooth="yes"/>
      <point x="236.519" y="440.333"/>
      <point x="197.667" y="389.947"/>
      <point x="197.667" y="318" type="curve" smooth="yes"/>
    </contour>
  </outline>
</glyph>
<glyph name="c" format="2">
	<unicode hex="0063"/>
	<advance width="495"/>
	<outline>
		<contour>
			<point x="44" y="236.333" type="curve" smooth="yes"/>
			<point x="44" y="384.667"/>
			<point x="115.667" y="502"/>
			<point x="285.333" y="502" type="curve" smooth="yes"/>
			<point x="392.667" y="502"/>
			<point x="470" y="455"/>
			<point x="470" y="401" type="curve" smooth="yes"/>
			<point x="470" y="360.667"/>
			<point x="428" y="346"/>
			<point x="403.333" y="346" type="curve" smooth="yes"/>
			<point x="381.667" y="346"/>
			<point x="372.667" y="356.667"/>
			<point x="365.667" y="377" type="curve" smooth="yes"/>
			<point x="347.333" y="431"/>
			<point x="322.333" y="463.333"/>
			<point x="278.667" y="463.333" type="curve" smooth="yes"/>
			<point x="220" y="463.333"/>
			<point x="166.333" y="404.333"/>
			<point x="166.333" y="264.667" type="curve" smooth="yes"/>
			<point x="166.333" y="145.667"/>
			<point x="206" y="48.3333"/>
			<point x="312.667" y="48.3333" type="curve" smooth="yes"/>
			<point x="374" y="48.3333"/>
			<point x="413.667" y="80"/>
			<point x="445.667" y="149.333" type="curve"/>
			<point x="476.667" y="134.667" type="line"/>
			<point x="445" y="22"/>
			<point x="351.333" y="-12"/>
			<point x="277.333" y="-12" type="curve" smooth="yes"/>
			<point x="130" y="-12"/>
			<point x="44" y="73"/>
		</contour>
	</outline>
	<anchor name="cedilla" x="278" y="0"/>
</glyph>
<glyph name="d" format="2">
  <advance width="600"/>
  <unicode hex="0064"/>
  <anchor x="630.333" y="742" name="quote"/>
  <outline>
    <contour>
      <point x="44" y="235.333" type="curve" smooth="yes"/>
      <point x="44" y="397.667"/>
      <point x="135.333" y="502"/>
      <point x="299.333" y="502" type="curve" smooth="yes"/>
      <point x="342.667" y="502"/>
      <point x="376.667" y="494.667"/>
      <point x="402.667" y="481.667" type="curve"/>
      <point x="402.667" y="635" type="line" smooth="yes"/>
      <point x="402.667" y="673.667"/>
      <point x="396" y="680"/>
      <point x="373.333" y="683" type="curve" smooth="yes"/>
      <point x="336.333" y="687.667" type="line"/>
      <point x="336.333" y="716.333" type="line"/>
      <point x="508.667" y="742" type="line"/>
      <point x="515.667" y="736" type="line"/>
      <point x="515.667" y="87" type="line" smooth="yes"/>
      <point x="515.667" y="39"/>
      <point x="521" y="36.333"/>
      <point x="587.333" y="32" type="curve"/>
      <point x="587.333" y="0" type="line"/>
      <point x="410.667" y="0" type="line"/>
      <point x="402" y="8" type="line"/>
      <point x="402" y="54" type="line"/>
      <point x="348" y="10.333"/>
      <point x="298.667" y="-12"/>
      <point x="245.667" y="-12" type="curve" smooth="yes"/>
      <point x="120" y="-12"/>
      <point x="44" y="88"/>
    </contour>
    <contour>
      <point x="166.333" y="255.333" type="curve" smooth="yes"/>
      <point x="166.333" y="130.667"/>
      <point x="211.667" y="49.667"/>
      <point x="302.667" y="49.667" type="curve" smooth="yes"/>
      <point x="373.333" y="49.667"/>
      <point x="402.667" y="98.667"/>
      <point x="402.667" y="164" type="curve" smooth="yes"/>
      <point x="402.667" y="350" type="line" smooth="yes"/>
      <point x="402.667" y="414.333"/>
      <point x="376.333" y="463.333"/>
      <point x="305" y="463.333" type="curve" smooth="yes"/>
      <point x="216" y="463.333"/>
      <point x="166.333" y="385.667"/>
    </contour>
  </outline>
</glyph>
<glyph name="e" format="2">
  <advance width="516"/>
  <unicode hex="0065"/>
  <anchor x="329.333" y="0" name="ogonek"/>
  <outline>
    <contour>
      <point x="44" y="237" type="curve" smooth="yes"/>
      <point x="44" y="389.333"/>
      <point x="115.667" y="502"/>
      <point x="282.667" y="502" type="curve" smooth="yes"/>
      <point x="466" y="502"/>
      <point x="489" y="365.667"/>
      <point x="489" y="299.333" type="curve" smooth="yes"/>
      <point x="489" y="266"/>
      <point x="470.333" y="259.333"/>
      <point x="444" y="259.333" type="curve" smooth="yes"/>
      <point x="166.333" y="259.333" type="line"/>
      <point x="166.333" y="250.333" type="line" smooth="yes"/>
      <point x="166.333" y="148.667"/>
      <point x="195.667" y="47.667"/>
      <point x="308.333" y="47.667" type="curve" smooth="yes"/>
      <point x="381.667" y="47.667"/>
      <point x="421.333" y="90.333"/>
      <point x="450" y="148" type="curve"/>
      <point x="482.333" y="130.667" type="line"/>
      <point x="452.667" y="48.667"/>
      <point x="393" y="-12"/>
      <point x="277.333" y="-12" type="curve" smooth="yes"/>
      <point x="109" y="-12"/>
      <point x="44" y="91.667"/>
    </contour>
    <contour>
      <point x="166.333" y="301.333" type="curve"/>
      <point x="333.667" y="301.333" type="line" smooth="yes"/>
      <point x="360" y="301.333"/>
      <point x="366.667" y="312"/>
      <point x="366.667" y="340.667" type="curve" smooth="yes"/>
      <point x="366.667" y="375"/>
      <point x="356" y="463.333"/>
      <point x="274.667" y="463.333" type="curve" smooth="yes"/>
      <point x="182.667" y="463.333"/>
      <point x="166.333" y="353"/>
    </contour>
  </outline>
</glyph>
<glyph name="g" format="2">
  <advance width="524"/>
  <unicode hex="0067"/>
  <anchor x="250" y="580" name="top"/>
  <outline>
    <contour>
      <point x="36.333" y="-103.333" type="curve" smooth="yes"/>
      <point x="36.333" y="-25.667"/>
      <point x="109" y="-3.333"/>
      <point x="153" y="9" type="curve"/>
      <point x="153" y="11" type="line"/>
      <point x="105" y="17.667"/>
      <point x="62.333" y="56.333"/>
      <point x="62.333" y="95.667" type="curve" smooth="yes"/>
      <point x="62.333" y="133.667"/>
      <point x="101.667" y="165"/>
      <point x="160.667" y="184.333" type="curve"/>
      <point x="160.667" y="186.333" type="line"/>
      <point x="108.333" y="197"/>
      <point x="46.667" y="243"/>
      <point x="46.667" y="328.667" type="curve" smooth="yes"/>
      <point x="46.667" y="408.667"/>
      <point x="100.333" y="502"/>
      <point x="259.667" y="502" type="curve" smooth="yes"/>
      <point x="312.333" y="502"/>
      <point x="367.667" y="489.333"/>
      <point x="396.667" y="470.333" type="curve"/>
      <point x="523" y="512" type="line"/>
      <point x="532" y="502.333" type="line"/>
      <point x="512" y="435.333" type="line"/>
      <point x="437.333" y="423.333" type="line"/>
      <point x="453" y="406.333"/>
      <point x="465" y="372.667"/>
      <point x="465" y="333" type="curve" smooth="yes"/>
      <point x="465" y="214.333"/>
      <point x="360" y="171.333"/>
      <point x="259.333" y="171.333" type="curve" smooth="yes"/>
      <point x="246" y="171.333"/>
      <point x="227" y="172"/>
      <point x="208" y="174.667" type="curve"/>
      <point x="194.667" y="171"/>
      <point x="160" y="156.333"/>
      <point x="160" y="128.333" type="curve" smooth="yes"/>
      <point x="160" y="111"/>
      <point x="174" y="89.667"/>
      <point x="238.333" y="89.667" type="curve" smooth="yes"/>
      <point x="322.667" y="89.667" type="line" smooth="yes"/>
      <point x="427.667" y="89.667"/>
      <point x="516" y="52"/>
      <point x="516" y="-58.333" type="curve" smooth="yes"/>
      <point x="516" y="-196.667"/>
      <point x="377.667" y="-242"/>
      <point x="262.667" y="-242" type="curve" smooth="yes"/>
      <point x="137.667" y="-242"/>
      <point x="36.333" y="-196"/>
    </contour>
    <contour>
      <point x="144" y="-86" type="curve" smooth="yes"/>
      <point x="144" y="-161"/>
      <point x="205.333" y="-203.333"/>
      <point x="283.333" y="-203.333" type="curve" smooth="yes"/>
      <point x="354" y="-203.333"/>
      <point x="419.667" y="-168.333"/>
      <point x="419.667" y="-92.667" type="curve" smooth="yes"/>
      <point x="419.667" y="-21"/>
      <point x="360" y="-0.667"/>
      <point x="271.667" y="-0.667" type="curve" smooth="yes"/>
      <point x="207.333" y="-0.667"/>
      <point x="144" y="-10"/>
    </contour>
    <contour>
      <point x="168" y="339.667" type="curve" smooth="yes"/>
      <point x="168" y="255.333"/>
      <point x="210" y="210"/>
      <point x="262.333" y="210" type="curve" smooth="yes"/>
      <point x="315.667" y="210"/>
      <point x="354.667" y="255"/>
      <point x="354.667" y="337.667" type="curve" smooth="yes"/>
      <point x="354.667" y="427.333"/>
      <point x="309" y="463.333"/>
      <point x="261.333" y="463.333" type="curve" smooth="yes"/>
      <point x="214.667" y="463.333"/>
      <point x="168" y="428.667"/>
    </contour>
  </outline>
</glyph>
<glyph name="h" format="2">
	<unicode hex="0068"/>
	<advance width="615"/>
	<outline>
		<component base="l"/>
		<contour>
			<point x="417.333" y="200" type="line"/>
			<point x="417.333" y="326" type="line" smooth="yes"/>
			<point x="417.333" y="404"/>
			<point x="383.333" y="440.333"/>
			<point x="322.333" y="440.333" type="curve" smooth="yes"/>
			<point x="248" y="440.333"/>
			<point x="204.333" y="387"/>
			<point x="204.333" y="319.667" type="curve"/>
			<point x="161" y="319.788" type="line"/>
			<point x="161" y="394.239" type="line"/>
			<point x="204.333" y="428.333" type="line" smooth="yes"/>
			<point x="265.554" y="476.348"/>
			<point x="312" y="502"/>
			<point x="377.581" y="502" type="curve" smooth="yes"/>
			<point x="477.667" y="502"/>
			<point x="530.333" y="443"/>
			<point x="530.333" y="344.333" type="curve" smooth="yes"/>
			<point x="530.333" y="200" type="line"/>
		</contour>
		<contour>
			<point x="530.333" y="87" type="line" smooth="yes"/>
			<point x="530.323" y="40.3333"/>
			<point x="537" y="36.3333"/>
			<point x="602" y="32" type="curve"/>
			<point x="602" y="0" type="line"/>
			<point x="349.667" y="0" type="line"/>
			<point x="349.667" y="32" type="line"/>
			<point x="407.667" y="36.3333"/>
			<point x="417.444" y="40.3333"/>
			<point x="417.333" y="87" type="curve" smooth="yes"/>
			<point x="417.07" y="200" type="line"/>
			<point x="530.342" y="200" type="line"/>
		</contour>
	</outline>
	<anchor name="top" x="311.667" y="780"/>
</glyph>
<glyph name="i" format="2">
  <advance width="299"/>
  <unicode hex="0069"/>
  <anchor x="173.333" y="13.333" name="ogonek"/>
  <outline>
    <contour>
      <point x="30" y="0" type="line"/>
      <point x="30" y="32" type="line"/>
      <point x="97" y="36.333"/>
      <point x="101.667" y="39"/>
      <point x="101.667" y="87" type="curve" smooth="yes"/>
      <point x="101.667" y="395" type="line" smooth="yes"/>
      <point x="101.667" y="432.333"/>
      <point x="95" y="438.667"/>
      <point x="72.333" y="442" type="curve" smooth="yes"/>
      <point x="35.333" y="447" type="line"/>
      <point x="35.333" y="475.667" type="line"/>
      <point x="207.667" y="502" type="line"/>
      <point x="214.667" y="496" type="line"/>
      <point x="214.667" y="87" type="line" smooth="yes"/>
      <point x="214.667" y="39"/>
      <point x="220" y="36.333"/>
      <point x="286.333" y="32" type="curve"/>
      <point x="286.333" y="0" type="line"/>
    </contour>
    <contour>
      <point x="84.667" y="647" type="curve" smooth="yes"/>
      <point x="84.667" y="686.667"/>
      <point x="113" y="716.667"/>
      <point x="155.667" y="716.667" type="curve" smooth="yes"/>
      <point x="198.667" y="716.667"/>
      <point x="227" y="686.667"/>
      <point x="227" y="647" type="curve" smooth="yes"/>
      <point x="227" y="607"/>
      <point x="198" y="577"/>
      <point x="155.667" y="577" type="curve" smooth="yes"/>
      <point x="113" y="577"/>
      <point x="84.667" y="607"/>
    </contour>
  </outline>
</glyph>
<glyph name="j" format="2">
  <advance width="292"/>
  <unicode hex="006A"/>
  <outline>
    <contour>
      <point x="-26" y="-212.333" type="line"/>
      <point x="80.728" y="-183.709"/>
      <point x="103.333" y="-112.537"/>
      <point x="103.333" y="34.333" type="curve" smooth="yes"/>
      <point x="103.333" y="395" type="line" smooth="yes"/>
      <point x="103.333" y="430.753"/>
      <point x="96.922" y="439.019"/>
      <point x="74" y="442" type="curve" smooth="yes"/>
      <point x="37" y="447" type="line"/>
      <point x="37" y="475.667" type="line"/>
      <point x="209.333" y="502" type="line"/>
      <point x="216.333" y="496" type="line"/>
      <point x="216.333" y="13" type="line" smooth="yes"/>
      <point x="216.333" y="-164.258"/>
      <point x="143.199" y="-238.667"/>
      <point x="-23.333" y="-238.667" type="curve"/>
    </contour>
    <contour>
      <point x="87" y="647" type="curve" smooth="yes"/>
      <point x="87" y="686.667"/>
      <point x="115.333" y="716.667"/>
      <point x="158" y="716.667" type="curve" smooth="yes"/>
      <point x="201" y="716.667"/>
      <point x="229.333" y="686.667"/>
      <point x="229.333" y="647" type="curve" smooth="yes"/>
      <point x="229.333" y="607"/>
      <point x="200.333" y="577"/>
      <point x="158" y="577" type="curve" smooth="yes"/>
      <point x="115.333" y="577"/>
      <point x="87" y="607"/>
    </contour>
  </outline>
</glyph>
<glyph name="k" format="2">
	<unicode hex="006B"/>
	<advance width="559"/>
	<outline>
		<contour>
			<point x="19.6667" y="0" type="line"/>
			<point x="19.6667" y="32" type="line"/>
			<point x="86.6667" y="36.3333"/>
			<point x="91.3333" y="39"/>
			<point x="91.3333" y="87" type="curve" smooth="yes"/>
			<point x="91.3333" y="635" type="line" smooth="yes"/>
			<point x="91.3333" y="673.667"/>
			<point x="84.6667" y="680"/>
			<point x="62" y="683" type="curve" smooth="yes"/>
			<point x="25" y="687.667" type="line"/>
			<point x="25" y="716.333" type="line"/>
			<point x="197.333" y="742" type="line"/>
			<point x="204.333" y="736" type="line"/>
			<point x="204.333" y="269.333" type="line"/>
			<point x="206.333" y="269.333" type="line"/>
			<point x="223.676" y="294.847"/>
			<point x="309.441" y="405.514"/>
			<point x="331" y="432" type="curve" smooth="yes"/>
			<point x="352" y="458.667"/>
			<point x="364.667" y="471.667"/>
			<point x="393.667" y="480" type="curve"/>
			<point x="413.89" y="487.333"/>
			<point x="463.658" y="490"/>
			<point x="482" y="490" type="curve"/>
			<point x="530.333" y="471.333" type="line"/>
			<point x="491.667" y="464.874"/>
			<point x="475" y="450.447"/>
			<point x="452.333" y="432" type="curve"/>
			<point x="401.667" y="409.333"/>
			<point x="360" y="375.333"/>
			<point x="310.333" y="321.667" type="curve" smooth="yes"/>
			<point x="301.572" y="312.239"/>
			<point x="298.879" y="304.879"/>
			<point x="301" y="299" type="curve"/>
			<point x="344" y="235"/>
			<point x="414.667" y="145.667"/>
			<point x="478.333" y="80" type="curve" smooth="yes"/>
			<point x="509" y="48"/>
			<point x="530" y="34"/>
			<point x="557" y="26" type="curve"/>
			<point x="557" y="-3.33333" type="line"/>
			<point x="477" y="-1.33333" type="line" smooth="yes"/>
			<point x="431.333" y="0"/>
			<point x="392" y="12.3333"/>
			<point x="355.667" y="52.3333" type="curve" smooth="yes"/>
			<point x="305.667" y="108"/>
			<point x="245" y="188.667"/>
			<point x="206.333" y="254" type="curve"/>
			<point x="204.333" y="254" type="line"/>
			<point x="204.333" y="87" type="line" smooth="yes"/>
			<point x="204.333" y="39"/>
			<point x="209.667" y="36.3333"/>
			<point x="276" y="32" type="curve"/>
			<point x="276" y="0" type="line"/>
		</contour>
	</outline>
</glyph>
<glyph name="l" format="2">
	<unicode hex="006C"/>
	<advance width="289"/>
	<outline>
		<contour>
			<point x="19.6667" y="0" type="line"/>
			<point x="19.6667" y="32" type="line"/>
			<point x="86.6667" y="36.3333"/>
			<point x="91.3333" y="39"/>
			<point x="91.3333" y="87" type="curve" smooth="yes"/>
			<point x="91.3333" y="635" type="line" smooth="yes"/>
			<point x="91.3333" y="673.667"/>
			<point x="84.6667" y="680"/>
			<point x="62" y="683" type="curve" smooth="yes"/>
			<point x="25" y="687.667" type="line"/>
			<point x="25" y="716.333" type="line"/>
			<point x="197.333" y="742" type="line"/>
			<point x="204.333" y="736" type="line"/>
			<point x="204.333" y="87" type="line" smooth="yes"/>
			<point x="204.333" y="39"/>
			<point x="209.667" y="36.3333"/>
			<point x="276" y="32" type="curve"/>
			<point x="276" y="0" type="line"/>
		</contour>
	</outline>
	<anchor name="top" x="129" y="763.333"/>
</glyph>
<glyph name="m" format="2">
	<unicode hex="006D"/>
	<advance width="931"/>
	<outline>
		<contour>
			<point x="30" y="0" type="line"/>
			<point x="30" y="32" type="line"/>
			<point x="97" y="36.3333"/>
			<point x="101.667" y="39"/>
			<point x="101.667" y="87" type="curve" smooth="yes"/>
			<point x="101.667" y="395" type="line" smooth="yes"/>
			<point x="101.667" y="432.333"/>
			<point x="95" y="438.667"/>
			<point x="72.3333" y="442" type="curve" smooth="yes"/>
			<point x="35.3333" y="447" type="line"/>
			<point x="35.3333" y="475.667" type="line"/>
			<point x="204.333" y="502" type="line"/>
			<point x="214.667" y="428.333" type="line"/>
			<point x="256" y="458.667"/>
			<point x="313.667" y="502"/>
			<point x="390.667" y="502" type="curve" smooth="yes"/>
			<point x="458.333" y="502"/>
			<point x="497.333" y="469"/>
			<point x="520" y="425.667" type="curve"/>
			<point x="557.667" y="455.333"/>
			<point x="617.667" y="502"/>
			<point x="696.667" y="502" type="curve" smooth="yes"/>
			<point x="794" y="502"/>
			<point x="846.667" y="442.667"/>
			<point x="846.667" y="344.333" type="curve" smooth="yes"/>
			<point x="846.667" y="87" type="line" smooth="yes"/>
			<point x="846.667" y="39"/>
			<point x="852" y="36.3333"/>
			<point x="918.333" y="32" type="curve"/>
			<point x="918.333" y="0" type="line"/>
			<point x="666" y="0" type="line"/>
			<point x="666" y="32" type="line"/>
			<point x="725.333" y="36.3333"/>
			<point x="733.667" y="38.6667"/>
			<point x="733.667" y="84.6667" type="curve" smooth="yes"/>
			<point x="733.667" y="325" type="line" smooth="yes"/>
			<point x="733.667" y="402.667"/>
			<point x="699.667" y="440.333"/>
			<point x="638.667" y="440.333" type="curve" smooth="yes"/>
			<point x="571.667" y="440.333"/>
			<point x="530.667" y="395.667"/>
			<point x="530.667" y="317.333" type="curve" smooth="yes"/>
			<point x="530.667" y="84.6667" type="line" smooth="yes"/>
			<point x="530.667" y="38.6667"/>
			<point x="539.667" y="36.3333"/>
			<point x="598.333" y="32" type="curve"/>
			<point x="598.333" y="0" type="line"/>
			<point x="350" y="0" type="line"/>
			<point x="350" y="32" type="line"/>
			<point x="409.333" y="36.3333"/>
			<point x="417.667" y="38.6667"/>
			<point x="417.667" y="84.6667" type="curve" smooth="yes"/>
			<point x="417.667" y="325" type="line" smooth="yes"/>
			<point x="417.667" y="384.667"/>
			<point x="403.333" y="440.333"/>
			<point x="330.333" y="440.333" type="curve" smooth="yes"/>
			<point x="263.333" y="440.333"/>
			<point x="214.667" y="394.333"/>
			<point x="214.667" y="317.333" type="curve" smooth="yes"/>
			<point x="214.667" y="84.6667" type="line" smooth="yes"/>
			<point x="214.667" y="38.6667"/>
			<point x="223.667" y="36.3333"/>
			<point x="282.333" y="32" type="curve"/>
			<point x="282.333" y="0" type="line"/>
		</contour>
	</outline>
</glyph>
<glyph name="n" format="2">
  <advance width="625"/>
  <unicode hex="006E"/>
  <outline>
    <contour>
      <point x="30" y="0" type="line"/>
      <point x="30" y="32" type="line"/>
      <point x="97" y="36.333"/>
      <point x="101.667" y="39"/>
      <point x="101.667" y="87" type="curve" smooth="yes"/>
      <point x="101.667" y="395" type="line" smooth="yes"/>
      <point x="101.667" y="432.333"/>
      <point x="95" y="438.667"/>
      <point x="72.333" y="442" type="curve" smooth="yes"/>
      <point x="35.333" y="447" type="line"/>
      <point x="35.333" y="475.667" type="line"/>
      <point x="200.333" y="502" type="line"/>
      <point x="214" y="428.333" type="line"/>
      <point x="277.333" y="472"/>
      <point x="323.667" y="502"/>
      <point x="392.333" y="502" type="curve" smooth="yes"/>
      <point x="488" y="502"/>
      <point x="540.667" y="443.333"/>
      <point x="540.667" y="344.667" type="curve" smooth="yes"/>
      <point x="540.667" y="87" type="line" smooth="yes"/>
      <point x="540.667" y="39"/>
      <point x="546" y="36.333"/>
      <point x="612.333" y="32" type="curve"/>
      <point x="612.333" y="0" type="line"/>
      <point x="360" y="0" type="line"/>
      <point x="360" y="32" type="line"/>
      <point x="419.333" y="36.333"/>
      <point x="427.667" y="38.667"/>
      <point x="427.667" y="84.667" type="curve" smooth="yes"/>
      <point x="427.667" y="326.667" type="line" smooth="yes"/>
      <point x="427.667" y="404.667"/>
      <point x="393.667" y="440.333"/>
      <point x="334" y="440.333" type="curve" smooth="yes"/>
      <point x="259.667" y="440.333"/>
      <point x="214.667" y="387"/>
      <point x="214.667" y="319.667" type="curve" smooth="yes"/>
      <point x="214.667" y="84.667" type="line" smooth="yes"/>
      <point x="214.667" y="38.667"/>
      <point x="223.667" y="36.333"/>
      <point x="282.333" y="32" type="curve"/>
      <point x="282.333" y="0" type="line"/>
    </contour>
  </outline>
</glyph>
<glyph name="o" format="2">
	<unicode hex="006F"/>
	<advance width="580"/>
	<outline>
		<contour>
			<point x="44" y="245" type="curve" smooth="yes"/>
			<point x="44" y="406.333"/>
			<point x="122.333" y="502"/>
			<point x="290.333" y="502" type="curve" smooth="yes"/>
			<point x="458.333" y="502"/>
			<point x="536.667" y="406.333"/>
			<point x="536.667" y="245" type="curve" smooth="yes"/>
			<point x="536.667" y="83.6667"/>
			<point x="458.333" y="-12"/>
			<point x="290.333" y="-12" type="curve" smooth="yes"/>
			<point x="122.333" y="-12"/>
			<point x="44" y="83.6667"/>
		</contour>
		<contour>
			<point x="166.333" y="245" type="curve" smooth="yes"/>
			<point x="166.333" y="108.333"/>
			<point x="205.333" y="26.6667"/>
			<point x="290.333" y="26.6667" type="curve" smooth="yes"/>
			<point x="375.333" y="26.6667"/>
			<point x="414.333" y="108.333"/>
			<point x="414.333" y="245" type="curve" smooth="yes"/>
			<point x="414.333" y="381.667"/>
			<point x="375.333" y="463.333"/>
			<point x="290.333" y="463.333" type="curve" smooth="yes"/>
			<point x="205.333" y="463.333"/>
			<point x="166.333" y="381.667"/>
		</contour>
	</outline>
	<anchor name="top" x="290.333" y="559"/>
</glyph>
<glyph name="p" format="2">
  <advance width="610"/>
  <unicode hex="0070"/>
  <outline>
    <contour>
      <point x="23" y="-198" type="line"/>
      <point x="88.667" y="-193.667"/>
      <point x="94.667" y="-191"/>
      <point x="94.667" y="-143" type="curve" smooth="yes"/>
      <point x="94.667" y="395" type="line" smooth="yes"/>
      <point x="94.667" y="432.333"/>
      <point x="88" y="438.667"/>
      <point x="65.333" y="442" type="curve" smooth="yes"/>
      <point x="28.333" y="447" type="line"/>
      <point x="28.333" y="475.667" type="line"/>
      <point x="193" y="502" type="line"/>
      <point x="207.667" y="429.667" type="line"/>
      <point x="250" y="458.667"/>
      <point x="304" y="502"/>
      <point x="376" y="502" type="curve" smooth="yes"/>
      <point x="528.667" y="502"/>
      <point x="566.333" y="359.667"/>
      <point x="566.333" y="257" type="curve" smooth="yes"/>
      <point x="566.333" y="46.667"/>
      <point x="449.333" y="-12"/>
      <point x="310" y="-12" type="curve" smooth="yes"/>
      <point x="270.333" y="-12"/>
      <point x="227.333" y="-3"/>
      <point x="207.667" y="7.333" type="curve"/>
      <point x="207.667" y="-143" type="line" smooth="yes"/>
      <point x="207.667" y="-191"/>
      <point x="215" y="-193.667"/>
      <point x="295.333" y="-198" type="curve"/>
      <point x="295.333" y="-230" type="line"/>
      <point x="23" y="-230" type="line"/>
    </contour>
    <contour>
      <point x="207.667" y="155.333" type="line" smooth="yes"/>
      <point x="207.667" y="133.667"/>
      <point x="208.667" y="114.667"/>
      <point x="213.667" y="97.667" type="curve" smooth="yes"/>
      <point x="227.333" y="52.333"/>
      <point x="262.667" y="26.667"/>
      <point x="312" y="26.667" type="curve" smooth="yes"/>
      <point x="404.333" y="26.667"/>
      <point x="444" y="106.333"/>
      <point x="444" y="245.667" type="curve" smooth="yes"/>
      <point x="444" y="414.333"/>
      <point x="367" y="440.333"/>
      <point x="324.667" y="440.333" type="curve" smooth="yes"/>
      <point x="275.333" y="440.333"/>
      <point x="238.333" y="416.667"/>
      <point x="218.667" y="373.667" type="curve" smooth="yes"/>
      <point x="211" y="357"/>
      <point x="207.667" y="341"/>
      <point x="207.667" y="317.333" type="curve" smooth="yes"/>
    </contour>
  </outline>
</glyph>
<glyph name="q" format="2">
	<unicode hex="0071"/>
	<advance width="593"/>
	<outline>
		<contour>
			<point x="44" y="234.667" type="curve" smooth="yes"/>
			<point x="44" y="399.333"/>
			<point x="136.333" y="502"/>
			<point x="299" y="502" type="curve" smooth="yes"/>
			<point x="352" y="502"/>
			<point x="402.333" y="491"/>
			<point x="439" y="471" type="curve"/>
			<point x="482" y="502" type="line"/>
			<point x="515.667" y="502" type="line"/>
			<point x="515.667" y="-143" type="line" smooth="yes"/>
			<point x="515.667" y="-191"/>
			<point x="522.333" y="-193.667"/>
			<point x="587.333" y="-198" type="curve"/>
			<point x="587.333" y="-230" type="line"/>
			<point x="324.333" y="-230" type="line"/>
			<point x="324.333" y="-198" type="line"/>
			<point x="396.667" y="-193.667"/>
			<point x="402.667" y="-191"/>
			<point x="402.667" y="-143" type="curve" smooth="yes"/>
			<point x="402.667" y="51" type="line"/>
			<point x="350.667" y="10.3333"/>
			<point x="303.333" y="-12"/>
			<point x="245.333" y="-12" type="curve" smooth="yes"/>
			<point x="127.667" y="-12"/>
			<point x="44" y="78.3333"/>
		</contour>
		<contour>
			<point x="166.333" y="252.333" type="curve" smooth="yes"/>
			<point x="166.333" y="131.333"/>
			<point x="209.333" y="49.6667"/>
			<point x="302" y="49.6667" type="curve" smooth="yes"/>
			<point x="375.667" y="49.6667"/>
			<point x="402.667" y="100.667"/>
			<point x="402.667" y="164.667" type="curve" smooth="yes"/>
			<point x="402.667" y="344.333" type="line" smooth="yes"/>
			<point x="402.667" y="411.667"/>
			<point x="378.333" y="463.333"/>
			<point x="306.333" y="463.333" type="curve" smooth="yes"/>
			<point x="211.667" y="463.333"/>
			<point x="166.333" y="376.333"/>
		</contour>
	</outline>
</glyph>
<glyph name="r" format="2">
  <advance width="406"/>
  <unicode hex="0072"/>
  <outline>
    <contour>
      <point x="30" y="0" type="line"/>
      <point x="30" y="32" type="line"/>
      <point x="95.667" y="36.333"/>
      <point x="101.667" y="39"/>
      <point x="101.667" y="87" type="curve" smooth="yes"/>
      <point x="101.667" y="395" type="line" smooth="yes"/>
      <point x="101.667" y="432.333"/>
      <point x="95" y="438.667"/>
      <point x="72.333" y="442" type="curve" smooth="yes"/>
      <point x="35.333" y="447" type="line"/>
      <point x="35.333" y="475.667" type="line"/>
      <point x="201.667" y="502" type="line"/>
      <point x="213.667" y="419.333" type="line"/>
      <point x="277" y="478.333"/>
      <point x="308" y="502"/>
      <point x="346" y="502" type="curve" smooth="yes"/>
      <point x="386" y="502"/>
      <point x="404.667" y="475"/>
      <point x="404.667" y="444" type="curve" smooth="yes"/>
      <point x="404.667" y="411.667"/>
      <point x="383" y="381"/>
      <point x="351.667" y="381" type="curve" smooth="yes"/>
      <point x="342" y="381"/>
      <point x="332" y="384.333"/>
      <point x="323" y="389.667" type="curve" smooth="yes"/>
      <point x="296.333" y="404.667"/>
      <point x="280" y="411.333"/>
      <point x="266.333" y="411.333" type="curve" smooth="yes"/>
      <point x="240.667" y="411.333"/>
      <point x="214.667" y="386.333"/>
      <point x="214.667" y="317.667" type="curve" smooth="yes"/>
      <point x="214.667" y="87" type="line" smooth="yes"/>
      <point x="214.667" y="39"/>
      <point x="221.667" y="36.667"/>
      <point x="306.667" y="32" type="curve"/>
      <point x="306.667" y="0" type="line"/>
    </contour>
  </outline>
</glyph>
<glyph name="s" format="2">
	<unicode hex="0073"/>
	<advance width="439"/>
	<outline>
		<contour>
			<point x="44" y="173" type="line"/>
			<point x="76" y="173" type="line"/>
			<point x="98" y="89"/>
			<point x="145.667" y="26.6667"/>
			<point x="220.333" y="26.6667" type="curve" smooth="yes"/>
			<point x="271.667" y="26.6667"/>
			<point x="306.667" y="55.6667"/>
			<point x="306.667" y="103" type="curve" smooth="yes"/>
			<point x="306.667" y="163.667"/>
			<point x="248.333" y="189"/>
			<point x="202" y="204" type="curve" smooth="yes"/>
			<point x="116.333" y="231"/>
			<point x="51.6667" y="272.333"/>
			<point x="51.6667" y="357.667" type="curve" smooth="yes"/>
			<point x="51.6667" y="449"/>
			<point x="126.333" y="502"/>
			<point x="237.667" y="502" type="curve" smooth="yes"/>
			<point x="286.333" y="502"/>
			<point x="339.333" y="492"/>
			<point x="375" y="467.667" type="curve"/>
			<point x="375" y="345.333" type="line"/>
			<point x="343.333" y="345.333" type="line"/>
			<point x="332.333" y="411.333"/>
			<point x="295.333" y="463.333"/>
			<point x="230.667" y="463.333" type="curve" smooth="yes"/>
			<point x="184" y="463.333"/>
			<point x="150" y="435"/>
			<point x="150" y="393.667" type="curve" smooth="yes"/>
			<point x="150" y="339.333"/>
			<point x="208.333" y="317.333"/>
			<point x="254.667" y="301.667" type="curve" smooth="yes"/>
			<point x="354.333" y="269"/>
			<point x="408.333" y="228.333"/>
			<point x="408.333" y="145" type="curve" smooth="yes"/>
			<point x="408.333" y="48.3333"/>
			<point x="335" y="-12"/>
			<point x="215.667" y="-12" type="curve" smooth="yes"/>
			<point x="157" y="-12"/>
			<point x="91.3333" y="3"/>
			<point x="54.6667" y="36" type="curve"/>
		</contour>
	</outline>
	<anchor name="cedilla" x="222" y="0"/>
</glyph>
<glyph name="t" format="2">
  <advance width="353"/>
  <unicode hex="0074"/>
  <anchor x="172.333" y="683.333" name="top"/>
  <outline>
    <contour>
      <point x="31.333" y="446.667" type="line"/>
      <point x="31.333" y="490" type="line"/>
      <point x="103" y="490" type="line"/>
      <point x="173" y="616" type="line"/>
      <point x="211.667" y="616" type="line"/>
      <point x="211.667" y="490" type="line"/>
      <point x="332.333" y="490" type="line"/>
      <point x="332.333" y="446.667" type="line"/>
      <point x="211.667" y="446.667" type="line"/>
      <point x="211.667" y="145" type="line" smooth="yes"/>
      <point x="211.667" y="73"/>
      <point x="241.667" y="47.667"/>
      <point x="277" y="47.667" type="curve" smooth="yes"/>
      <point x="301" y="47.667"/>
      <point x="322.667" y="51"/>
      <point x="343.333" y="59.667" type="curve"/>
      <point x="352.333" y="35.333" type="line"/>
      <point x="314.333" y="11.667"/>
      <point x="261.667" y="-12"/>
      <point x="214" y="-12" type="curve" smooth="yes"/>
      <point x="172" y="-12"/>
      <point x="98.667" y="8.667"/>
      <point x="98.667" y="107" type="curve" smooth="yes"/>
      <point x="98.667" y="446.667" type="line"/>
    </contour>
  </outline>
</glyph>
<glyph name="u" format="2">
	<unicode hex="0075"/>
	<advance width="614"/>
	<outline>
		<contour>
			<point x="25" y="447" type="line"/>
			<point x="25" y="475.667" type="line"/>
			<point x="197.333" y="502" type="line"/>
			<point x="204.333" y="496" type="line"/>
			<point x="204.333" y="162.667" type="line" smooth="yes"/>
			<point x="204.333" y="84.6667"/>
			<point x="243.333" y="50.3333"/>
			<point x="303.667" y="50.3333" type="curve" smooth="yes"/>
			<point x="379" y="50.3333"/>
			<point x="416" y="103.333"/>
			<point x="416" y="174.667" type="curve" smooth="yes"/>
			<point x="416" y="395" type="line" smooth="yes"/>
			<point x="416" y="432.333"/>
			<point x="409.333" y="438.667"/>
			<point x="386.667" y="442" type="curve" smooth="yes"/>
			<point x="349.667" y="447" type="line"/>
			<point x="349.667" y="475.667" type="line"/>
			<point x="522" y="502" type="line"/>
			<point x="529" y="496" type="line"/>
			<point x="529" y="87" type="line" smooth="yes"/>
			<point x="529" y="39"/>
			<point x="535.667" y="36.3333"/>
			<point x="600.667" y="32" type="curve"/>
			<point x="600.667" y="0" type="line"/>
			<point x="424.667" y="0" type="line"/>
			<point x="415.333" y="58.6667" type="line"/>
			<point x="382.667" y="34"/>
			<point x="319.333" y="-12"/>
			<point x="234.333" y="-12" type="curve" smooth="yes"/>
			<point x="161" y="-12"/>
			<point x="91.3333" y="22.3333"/>
			<point x="91.3333" y="138" type="curve" smooth="yes"/>
			<point x="91.3333" y="395" type="line" smooth="yes"/>
			<point x="91.3333" y="432.333"/>
			<point x="84.6667" y="438.667"/>
			<point x="62" y="442" type="curve" smooth="yes"/>
		</contour>
	</outline>
	<anchor name="ogonek" x="527.667" y="12.6667"/>
	<anchor name="top" x="314" y="535.333"/>
</glyph>
<glyph name="v" format="2">
  <advance width="509"/>
  <unicode hex="0076"/>
  <outline>
    <contour>
      <point x="-2" y="458" type="curve"/>
      <point x="-2" y="490" type="line"/>
      <point x="235.667" y="490" type="line"/>
      <point x="235.667" y="458" type="line"/>
      <point x="193.333" y="453" type="line"/>
      <point x="180.667" y="452"/>
      <point x="175" y="447.333"/>
      <point x="175" y="438.333" type="curve" smooth="yes"/>
      <point x="175" y="434.333"/>
      <point x="176" y="430"/>
      <point x="178" y="424" type="curve" smooth="yes"/>
      <point x="290.667" y="104" type="line"/>
      <point x="293.333" y="104" type="line"/>
      <point x="401.333" y="424" type="line" smooth="yes"/>
      <point x="402.667" y="427.667"/>
      <point x="403.667" y="432"/>
      <point x="403.667" y="435.333" type="curve" smooth="yes"/>
      <point x="403.667" y="444.667"/>
      <point x="398.333" y="451.333"/>
      <point x="386" y="452.667" type="curve" smooth="yes"/>
      <point x="339" y="458" type="line"/>
      <point x="339" y="490" type="line"/>
      <point x="534.667" y="490" type="line"/>
      <point x="534.667" y="458" type="line"/>
      <point x="490.333" y="455.667"/>
      <point x="477.667" y="451"/>
      <point x="463.667" y="415" type="curve" smooth="yes"/>
      <point x="303.333" y="0" type="line"/>
      <point x="218.667" y="0" type="line"/>
      <point x="67" y="413.333" type="line" smooth="yes"/>
      <point x="53.667" y="449.333"/>
      <point x="42.333" y="454.333"/>
    </contour>
  </outline>
</glyph>
<glyph name="w" format="2">
  <advance width="770"/>
  <unicode hex="0077"/>
  <outline>
    <contour>
      <point x="-4.667" y="458" type="curve"/>
      <point x="-4.667" y="490" type="line"/>
      <point x="222.667" y="490" type="line"/>
      <point x="222.667" y="458" type="line"/>
      <point x="190" y="455" type="line" smooth="yes"/>
      <point x="175.786" y="453.713"/>
      <point x="169.814" y="448.324"/>
      <point x="169.814" y="437.41" type="curve" smooth="yes"/>
      <point x="169.814" y="434.038"/>
      <point x="170.44" y="429.811"/>
      <point x="172" y="424.333" type="curve" smooth="yes"/>
      <point x="263.333" y="106.667" type="line"/>
      <point x="265.667" y="106.667" type="line"/>
      <point x="374" y="482" type="line"/>
      <point x="459.667" y="482" type="line"/>
      <point x="577.333" y="106.667" type="line"/>
      <point x="580" y="106.667" type="line"/>
      <point x="662.333" y="419.667" type="line" smooth="yes"/>
      <point x="663.584" y="424.429"/>
      <point x="664.381" y="429.195"/>
      <point x="664.381" y="434.074" type="curve" smooth="yes"/>
      <point x="664.381" y="444.26"/>
      <point x="659.907" y="451.238"/>
      <point x="647.333" y="452.667" type="curve" smooth="yes"/>
      <point x="595" y="458" type="line"/>
      <point x="595" y="490" type="line"/>
      <point x="795.333" y="490" type="line"/>
      <point x="795.333" y="458" type="line"/>
      <point x="745" y="454.667"/>
      <point x="734.589" y="449.929"/>
      <point x="719" y="402.667" type="curve" smooth="yes"/>
      <point x="592" y="0" type="line"/>
      <point x="504.667" y="0" type="line"/>
      <point x="389.333" y="356.333" type="line"/>
      <point x="386" y="356.333" type="line"/>
      <point x="277" y="0" type="line"/>
      <point x="189.667" y="0" type="line"/>
      <point x="60.333" y="415" type="line" smooth="yes"/>
      <point x="48.642" y="451.771"/>
      <point x="36" y="455.333"/>
    </contour>
  </outline>
</glyph>
<glyph name="x" format="2">
	<unicode hex="0078"/>
	<advance width="526"/>
	<outline>
		<contour>
			<point x="1.66667" y="0" type="line"/>
			<point x="1.66667" y="32" type="line"/>
			<point x="48.3333" y="36"/>
			<point x="69" y="41.6667"/>
			<point x="97" y="77" type="curve" smooth="yes"/>
			<point x="137.333" y="127.667"/>
			<point x="175.333" y="181.333"/>
			<point x="213" y="233.667" type="curve"/>
			<point x="167.667" y="298.667"/>
			<point x="125" y="364"/>
			<point x="83.3333" y="421" type="curve" smooth="yes"/>
			<point x="60.6667" y="452"/>
			<point x="50.6667" y="455"/>
			<point x="9.33333" y="458" type="curve"/>
			<point x="9.33333" y="490" type="line"/>
			<point x="235.333" y="490" type="line"/>
			<point x="235.333" y="458" type="line"/>
			<point x="207.667" y="454.667" type="line" smooth="yes"/>
			<point x="193.667" y="452.667"/>
			<point x="192" y="442.333"/>
			<point x="199.667" y="431" type="curve" smooth="yes"/>
			<point x="276.333" y="316" type="line"/>
			<point x="277.667" y="316" type="line"/>
			<point x="301.346" y="352.124"/>
			<point x="332.691" y="399.919"/>
			<point x="351" y="429.667" type="curve"/>
			<point x="359.667" y="442.667"/>
			<point x="360" y="452.333"/>
			<point x="344.667" y="454.333" type="curve" smooth="yes"/>
			<point x="310" y="458" type="line"/>
			<point x="310" y="490" type="line"/>
			<point x="500" y="490" type="line"/>
			<point x="500" y="458" type="line"/>
			<point x="454.333" y="456.333"/>
			<point x="438.667" y="450.333"/>
			<point x="413.333" y="421" type="curve" smooth="yes"/>
			<point x="375.667" y="377.667"/>
			<point x="337.333" y="330.667"/>
			<point x="302.667" y="280.333" type="curve"/>
			<point x="347.667" y="210.667"/>
			<point x="394.667" y="141.333"/>
			<point x="441.333" y="75.6667" type="curve" smooth="yes"/>
			<point x="467.667" y="39.3333"/>
			<point x="484.333" y="34.3333"/>
			<point x="528.667" y="32" type="curve"/>
			<point x="528.667" y="0" type="line"/>
			<point x="279.333" y="0" type="line"/>
			<point x="279.333" y="32" type="line"/>
			<point x="314.667" y="36.3333" type="line" smooth="yes"/>
			<point x="330.333" y="38.3333"/>
			<point x="334.667" y="47.3333"/>
			<point x="323.667" y="64.3333" type="curve" smooth="yes"/>
			<point x="240" y="194.333" type="line"/>
			<point x="238" y="194.333" type="line"/>
			<point x="211.081" y="153.011"/>
			<point x="174.306" y="96.8414"/>
			<point x="156.333" y="63" type="curve"/>
			<point x="148.333" y="49.6667"/>
			<point x="149" y="39"/>
			<point x="163.667" y="37" type="curve" smooth="yes"/>
			<point x="203.333" y="32" type="line"/>
			<point x="203.333" y="0" type="line"/>
		</contour>
	</outline>
</glyph>
<glyph name="y" format="2">
	<unicode hex="0079"/>
	<advance width="512"/>
	<outline>
		<contour>
			<point x="-7.33333" y="458" type="curve"/>
			<point x="-7.33333" y="490" type="line"/>
			<point x="238.667" y="490" type="line"/>
			<point x="238.667" y="458" type="line"/>
			<point x="197.333" y="453.333" type="line" smooth="yes"/>
			<point x="184.333" y="452"/>
			<point x="179.333" y="447"/>
			<point x="179.333" y="438.667" type="curve" smooth="yes"/>
			<point x="179.333" y="434.333"/>
			<point x="180.333" y="428.667"/>
			<point x="183.333" y="421.667" type="curve"/>
			<point x="299" y="105.333" type="line"/>
			<point x="301" y="105.333" type="line"/>
			<point x="405.333" y="420" type="line" smooth="yes"/>
			<point x="407.333" y="425.667"/>
			<point x="408" y="431.667"/>
			<point x="408" y="435.333" type="curve" smooth="yes"/>
			<point x="408" y="445.667"/>
			<point x="402.667" y="451.333"/>
			<point x="391" y="452.667" type="curve" smooth="yes"/>
			<point x="342.667" y="458" type="line"/>
			<point x="342.667" y="490" type="line"/>
			<point x="537.667" y="490" type="line"/>
			<point x="537.667" y="458" type="line"/>
			<point x="488.333" y="456"/>
			<point x="479.333" y="446"/>
			<point x="462.333" y="401.667" type="curve" smooth="yes"/>
			<point x="280" y="-74.6667" type="line"/>
			<point x="225.333" y="-220.667"/>
			<point x="178.667" y="-242"/>
			<point x="136.667" y="-242" type="curve" smooth="yes"/>
			<point x="88.3333" y="-242"/>
			<point x="55.3333" y="-215.333"/>
			<point x="55.3333" y="-183.667" type="curve" smooth="yes"/>
			<point x="55.3333" y="-154.333"/>
			<point x="82.6667" y="-122"/>
			<point x="109.667" y="-122" type="curve" smooth="yes"/>
			<point x="119.667" y="-122"/>
			<point x="128.333" y="-127"/>
			<point x="139.667" y="-138" type="curve" smooth="yes"/>
			<point x="156.667" y="-153.667"/>
			<point x="167.333" y="-157.333"/>
			<point x="175.667" y="-157.333" type="curve" smooth="yes"/>
			<point x="213.667" y="-157.333"/>
			<point x="236.667" y="-78"/>
			<point x="236.667" y="-42.6667" type="curve" smooth="yes"/>
			<point x="236.667" y="-32.6667"/>
			<point x="235" y="-17.3333"/>
			<point x="228.667" y="-1.66667" type="curve" smooth="yes"/>
			<point x="67" y="408" type="line" smooth="yes"/>
			<point x="50.6667" y="449.333"/>
			<point x="39" y="456.667"/>
		</contour>
	</outline>
</glyph>
<glyph name="z" format="2">
  <advance width="481"/>
  <unicode hex="007A"/>
  <outline>
    <contour>
      <point x="12.333" y="17" type="line"/>
      <point x="318.667" y="451.333" type="line"/>
      <point x="224.667" y="451.333" type="line" smooth="yes"/>
      <point x="121" y="451.333"/>
      <point x="104" y="424.333"/>
      <point x="88.667" y="335.333" type="curve"/>
      <point x="55" y="335.333" type="line"/>
      <point x="55" y="490" type="line"/>
      <point x="451.667" y="490" type="line"/>
      <point x="460.667" y="474" type="line"/>
      <point x="156.333" y="38.667" type="line"/>
      <point x="274.667" y="38.667" type="line" smooth="yes"/>
      <point x="383.333" y="38.667"/>
      <point x="414.333" y="65"/>
      <point x="434.667" y="162" type="curve"/>
      <point x="468" y="162" type="line"/>
      <point x="457.333" y="0" type="line"/>
      <point x="21.667" y="0" type="line"/>
    </contour>
  </outline>
</glyph>
<glyph name="braceleft" format="2">
  <advance width="348"/>
  <unicode hex="007B"/>
  <outline>
    <contour>
      <point x="76.333" y="266.333" type="curve"/>
      <point x="76.333" y="297" type="line"/>
      <point x="141.667" y="297"/>
      <point x="165.333" y="328.667"/>
      <point x="165.333" y="378.333" type="curve" smooth="yes"/>
      <point x="165.333" y="387"/>
      <point x="165.333" y="398.333"/>
      <point x="164" y="409.667" type="curve" smooth="yes"/>
      <point x="152.333" y="504.333" type="line" smooth="yes"/>
      <point x="150.333" y="521"/>
      <point x="148.667" y="538.667"/>
      <point x="148.667" y="557" type="curve" smooth="yes"/>
      <point x="148.667" y="625"/>
      <point x="171.333" y="692"/>
      <point x="276" y="692" type="curve" smooth="yes"/>
      <point x="307" y="692" type="line"/>
      <point x="307" y="661.333" type="line"/>
      <point x="240.667" y="658.333"/>
      <point x="225.667" y="625.333"/>
      <point x="225.667" y="583.333" type="curve" smooth="yes"/>
      <point x="225.667" y="567.333"/>
      <point x="228" y="544.667"/>
      <point x="229" y="538.333" type="curve"/>
      <point x="237.333" y="460.667" type="line" smooth="yes"/>
      <point x="240.333" y="435.667"/>
      <point x="243.333" y="410.667"/>
      <point x="243.333" y="390.333" type="curve" smooth="yes"/>
      <point x="243.333" y="339.333"/>
      <point x="224.667" y="300.333"/>
      <point x="143.333" y="284.333" type="curve"/>
      <point x="143.333" y="279" type="line"/>
      <point x="224.667" y="263"/>
      <point x="243.333" y="224"/>
      <point x="243.333" y="173.667" type="curve" smooth="yes"/>
      <point x="243.333" y="152.667"/>
      <point x="240.333" y="127.667"/>
      <point x="237.333" y="102.667" type="curve" smooth="yes"/>
      <point x="229" y="25.667" type="line"/>
      <point x="227.667" y="16.333"/>
      <point x="225.667" y="-2.667"/>
      <point x="225.667" y="-17.667" type="curve" smooth="yes"/>
      <point x="225.667" y="-60"/>
      <point x="240.667" y="-94.333"/>
      <point x="307" y="-97.333" type="curve"/>
      <point x="307" y="-128" type="line"/>
      <point x="276" y="-128" type="line" smooth="yes"/>
      <point x="171.333" y="-128"/>
      <point x="148.667" y="-61"/>
      <point x="148.667" y="7" type="curve" smooth="yes"/>
      <point x="148.667" y="25.333"/>
      <point x="150.333" y="43"/>
      <point x="152.333" y="59.667" type="curve" smooth="yes"/>
      <point x="164" y="153.667" type="line"/>
      <point x="165" y="164.333"/>
      <point x="165.333" y="174.333"/>
      <point x="165.333" y="178.667" type="curve" smooth="yes"/>
      <point x="165.333" y="235.667"/>
      <point x="143" y="266.333"/>
    </contour>
  </outline>
</glyph>
<glyph name="asciitilde" format="2">
  <advance width="580"/>
  <unicode hex="007E"/>
  <outline>
    <contour>
      <point x="65.333" y="195.333" type="line"/>
      <point x="89.333" y="247.667"/>
      <point x="124.333" y="312"/>
      <point x="203.667" y="312" type="curve" smooth="yes"/>
      <point x="235.667" y="312"/>
      <point x="269" y="300"/>
      <point x="301" y="287.333" type="curve" smooth="yes"/>
      <point x="333" y="275"/>
      <point x="363.667" y="262.333"/>
      <point x="390" y="262.333" type="curve" smooth="yes"/>
      <point x="424.333" y="262.333"/>
      <point x="441.333" y="277.667"/>
      <point x="470.333" y="324.333" type="curve"/>
      <point x="515" y="298.333" type="line"/>
      <point x="487" y="235.667"/>
      <point x="450" y="186.667"/>
      <point x="383" y="186.667" type="curve" smooth="yes"/>
      <point x="349.333" y="186.667"/>
      <point x="315.333" y="199.333"/>
      <point x="283.667" y="211.667" type="curve" smooth="yes"/>
      <point x="251.667" y="224.333"/>
      <point x="220.667" y="236.333"/>
      <point x="191" y="236.333" type="curve" smooth="yes"/>
      <point x="154.333" y="236.333"/>
      <point x="133.333" y="213.667"/>
      <point x="111.333" y="169.333" type="curve"/>
    </contour>
  </outline>
</glyph>
<glyph name="sterling" format="2">
  <advance width="540"/>
  <unicode hex="00A3"/>
  <outline>
    <contour>
      <point x="25" y="6.333" type="line"/>
      <point x="44.333" y="54" type="line"/>
      <point x="124.333" y="80.667"/>
      <point x="200.333" y="118.414"/>
      <point x="200.333" y="195.373" type="curve" smooth="yes"/>
      <point x="200.333" y="218.084"/>
      <point x="193.333" y="248.544"/>
      <point x="167.667" y="291.333" type="curve"/>
      <point x="48" y="291.333" type="line"/>
      <point x="48" y="332" type="line"/>
      <point x="147.333" y="332" type="line"/>
      <point x="127" y="368.333"/>
      <point x="91.667" y="431.333"/>
      <point x="91.667" y="496.771" type="curve" smooth="yes"/>
      <point x="91.667" y="601.667"/>
      <point x="168.667" y="679.667"/>
      <point x="296.86" y="679.667" type="curve" smooth="yes"/>
      <point x="413.333" y="679.667"/>
      <point x="468.333" y="615.333"/>
      <point x="468.333" y="570.585" type="curve" smooth="yes"/>
      <point x="468.333" y="536.333"/>
      <point x="434.333" y="519.667"/>
      <point x="409.311" y="519.667" type="curve" smooth="yes"/>
      <point x="392.667" y="519.667"/>
      <point x="384.41" y="527.104"/>
      <point x="378.018" y="547.653" type="curve" smooth="yes"/>
      <point x="360.667" y="603"/>
      <point x="325.333" y="641"/>
      <point x="279.094" y="641" type="curve" smooth="yes"/>
      <point x="229.333" y="641"/>
      <point x="195.333" y="598.667"/>
      <point x="195.333" y="537.986" type="curve" smooth="yes"/>
      <point x="195.333" y="471.757"/>
      <point x="235.824" y="400.391"/>
      <point x="278.667" y="332" type="curve"/>
      <point x="428" y="332" type="line"/>
      <point x="428" y="291.333" type="line"/>
      <point x="294" y="291.333" type="line"/>
      <point x="298.906" y="278.106"/>
      <point x="302" y="257.9"/>
      <point x="302" y="239.5" type="curve" smooth="yes"/>
      <point x="302" y="181.333"/>
      <point x="271.667" y="132.805"/>
      <point x="200.333" y="92.674" type="curve"/>
      <point x="200.333" y="89.333" type="line"/>
      <point x="413.333" y="89.333" type="line" smooth="yes"/>
      <point x="453.448" y="89.333"/>
      <point x="470.28" y="105.545"/>
      <point x="495.333" y="149.579" type="curve"/>
      <point x="525" y="139.195" type="line"/>
      <point x="473" y="0" type="line"/>
      <point x="30.667" y="0" type="line"/>
    </contour>
  </outline>
</glyph>
<glyph name="currency" format="2">
  <advance width="540"/>
  <unicode hex="00A4"/>
  <outline>
    <contour>
      <point x="23.667" y="128" type="curve" smooth="yes"/>
      <point x="23.667" y="140.333"/>
      <point x="31.667" y="152.667"/>
      <point x="46.667" y="164.333" type="curve" smooth="yes"/>
      <point x="89" y="197.333" type="line"/>
      <point x="55.667" y="238.667"/>
      <point x="44" y="285"/>
      <point x="44" y="334" type="curve" smooth="yes"/>
      <point x="44" y="383"/>
      <point x="55.667" y="429.333"/>
      <point x="89" y="470.667" type="curve"/>
      <point x="46.667" y="503.667" type="line" smooth="yes"/>
      <point x="31.667" y="515.333"/>
      <point x="23.667" y="527.667"/>
      <point x="23.667" y="540" type="curve" smooth="yes"/>
      <point x="23.667" y="561.333"/>
      <point x="50" y="584"/>
      <point x="70.667" y="584" type="curve" smooth="yes"/>
      <point x="84" y="584"/>
      <point x="96" y="575.667"/>
      <point x="106.667" y="560.667" type="curve" smooth="yes"/>
      <point x="137.333" y="518.333" type="line"/>
      <point x="173" y="551"/>
      <point x="225.333" y="562.667"/>
      <point x="270" y="562.667" type="curve" smooth="yes"/>
      <point x="314.667" y="562.667"/>
      <point x="367" y="551"/>
      <point x="402.667" y="518.333" type="curve"/>
      <point x="433.333" y="560.667" type="line" smooth="yes"/>
      <point x="444" y="575.667"/>
      <point x="456" y="584"/>
      <point x="469.333" y="584" type="curve" smooth="yes"/>
      <point x="490" y="584"/>
      <point x="516.333" y="561.333"/>
      <point x="516.333" y="540" type="curve" smooth="yes"/>
      <point x="516.333" y="527.667"/>
      <point x="508.333" y="515.333"/>
      <point x="493.333" y="503.667" type="curve" smooth="yes"/>
      <point x="451" y="470.667" type="line"/>
      <point x="484.333" y="429.333"/>
      <point x="496" y="383"/>
      <point x="496" y="334" type="curve" smooth="yes"/>
      <point x="496" y="285"/>
      <point x="484.333" y="238.667"/>
      <point x="451" y="197.333" type="curve"/>
      <point x="493.333" y="164.333" type="line" smooth="yes"/>
      <point x="508.333" y="152.667"/>
      <point x="516.333" y="140.333"/>
      <point x="516.333" y="128" type="curve" smooth="yes"/>
      <point x="516.333" y="106.667"/>
      <point x="490" y="84"/>
      <point x="469.333" y="84" type="curve" smooth="yes"/>
      <point x="456" y="84"/>
      <point x="444" y="92.333"/>
      <point x="433.333" y="107.333" type="curve" smooth="yes"/>
      <point x="402.667" y="149.667" type="line"/>
      <point x="367" y="117"/>
      <point x="314.667" y="105.333"/>
      <point x="270" y="105.333" type="curve" smooth="yes"/>
      <point x="225.333" y="105.333"/>
      <point x="173" y="117"/>
      <point x="137.333" y="149.667" type="curve"/>
      <point x="106.667" y="107.333" type="line" smooth="yes"/>
      <point x="96" y="92.333"/>
      <point x="84" y="84"/>
      <point x="70.667" y="84" type="curve" smooth="yes"/>
      <point x="50" y="84"/>
      <point x="23.667" y="106.667"/>
    </contour>
    <contour>
      <point x="126" y="334" type="curve" smooth="yes"/>
      <point x="126" y="241"/>
      <point x="187" y="170.333"/>
      <point x="270" y="170.333" type="curve" smooth="yes"/>
      <point x="353" y="170.333"/>
      <point x="414" y="241"/>
      <point x="414" y="334" type="curve" smooth="yes"/>
      <point x="414" y="427"/>
      <point x="353" y="497.667"/>
      <point x="270" y="497.667" type="curve" smooth="yes"/>
      <point x="187" y="497.667"/>
      <point x="126" y="427"/>
    </contour>
  </outline>
</glyph>
<glyph name="yen" format="2">
  <advance width="540"/>
  <unicode hex="00A5"/>
  <outline>
    <contour>
      <point x="-0.333" y="636.667" type="line"/>
      <point x="-0.333" y="668" type="line"/>
      <point x="239.667" y="668" type="line"/>
      <point x="239.667" y="635.667" type="line"/>
      <point x="192.667" y="631.333" type="line" smooth="yes"/>
      <point x="181.835" y="630.298"/>
      <point x="178.009" y="624.812"/>
      <point x="178.009" y="618.102" type="curve" smooth="yes"/>
      <point x="178.009" y="614.445"/>
      <point x="179.513" y="609.792"/>
      <point x="181.667" y="605" type="curve" smooth="yes"/>
      <point x="293.333" y="360.819" type="line"/>
      <point x="295.333" y="360.819" type="line"/>
      <point x="398" y="598" type="line" smooth="yes"/>
      <point x="401.078" y="605.108"/>
      <point x="402.487" y="610.847"/>
      <point x="402.491" y="615.557" type="curve" smooth="yes"/>
      <point x="402.502" y="624.232"/>
      <point x="396.799" y="629.504"/>
      <point x="385" y="630.667" type="curve" smooth="yes"/>
      <point x="332.333" y="636.667" type="line"/>
      <point x="332.333" y="668" type="line"/>
      <point x="537.333" y="668" type="line"/>
      <point x="537.333" y="636.667" type="line"/>
      <point x="507.667" y="632.667" type="line" smooth="yes"/>
      <point x="482.333" y="629"/>
      <point x="469.325" y="619.936"/>
      <point x="453.667" y="588" type="curve" smooth="yes"/>
      <point x="344" y="364.333" type="line"/>
      <point x="486.333" y="364.333" type="line"/>
      <point x="486.333" y="323.667" type="line"/>
      <point x="328" y="323.667" type="line"/>
      <point x="323.537" y="308.892" type="line" smooth="yes"/>
      <point x="320.672" y="299.273"/>
      <point x="320.405" y="282.602"/>
      <point x="320.35" y="262.075" type="curve" smooth="yes"/>
      <point x="320.333" y="236.667" type="line"/>
      <point x="486.333" y="236.667" type="line"/>
      <point x="486.333" y="196" type="line"/>
      <point x="320.333" y="196" type="line"/>
      <point x="320.333" y="83.667" type="line" smooth="yes"/>
      <point x="320.333" y="40.306"/>
      <point x="335.775" y="36.104"/>
      <point x="410.333" y="31.333" type="curve"/>
      <point x="410.333" y="0" type="line"/>
      <point x="120.667" y="0" type="line"/>
      <point x="120.667" y="31.333" type="line"/>
      <point x="195.536" y="36.091"/>
      <point x="210.667" y="40.431"/>
      <point x="210.667" y="83.667" type="curve" smooth="yes"/>
      <point x="210.667" y="196" type="line"/>
      <point x="45" y="196" type="line"/>
      <point x="45" y="236.667" type="line"/>
      <point x="210.667" y="236.667" type="line"/>
      <point x="210.653" y="261.409" type="line" smooth="yes"/>
      <point x="210.595" y="281.197"/>
      <point x="209.814" y="296.662"/>
      <point x="204.997" y="308.195" type="curve" smooth="yes"/>
      <point x="198.333" y="323.667" type="line"/>
      <point x="45" y="323.667" type="line"/>
      <point x="45" y="364.333" type="line"/>
      <point x="182" y="364.333" type="line"/>
      <point x="68.667" y="596" type="line" smooth="yes"/>
      <point x="56.249" y="621.464"/>
      <point x="43.667" y="631"/>
      <point x="26" y="633.333" type="curve" smooth="yes"/>
    </contour>
  </outline>
</glyph>
<glyph name="brokenbar" format="2">
  <advance width="247"/>
  <unicode hex="00A6"/>
  <outline>
    <contour>
      <point x="84.667" y="-175" type="line"/>
      <point x="84.667" y="175" type="line"/>
      <point x="162" y="175" type="line"/>
      <point x="162" y="-175" type="line"/>
    </contour>
    <contour>
      <point x="84.667" y="325" type="line"/>
      <point x="84.667" y="675" type="line"/>
      <point x="162" y="675" type="line"/>
      <point x="162" y="325" type="line"/>
    </contour>
  </outline>
</glyph>
<glyph name="section" format="2">
  <advance width="558"/>
  <unicode hex="00A7"/>
  <outline>
    <contour>
      <point x="42.333" y="369.156" type="curve" smooth="yes"/>
      <point x="42.333" y="444"/>
      <point x="77.667" y="511.333"/>
      <point x="131.601" y="559" type="curve"/>
      <point x="134.261" y="620.333"/>
      <point x="176.516" y="707"/>
      <point x="299.287" y="707" type="curve" smooth="yes"/>
      <point x="376.153" y="707"/>
      <point x="443.034" y="673"/>
      <point x="443.034" y="628.39" type="curve" smooth="yes"/>
      <point x="443.034" y="599.667"/>
      <point x="414.412" y="584"/>
      <point x="392.913" y="584" type="curve" smooth="yes"/>
      <point x="378.803" y="584"/>
      <point x="370.484" y="591"/>
      <point x="361.589" y="604.898" type="curve"/>
      <point x="331.886" y="654.667"/>
      <point x="304.942" y="667.667"/>
      <point x="277.663" y="667.667" type="curve" smooth="yes"/>
      <point x="233.088" y="667.667"/>
      <point x="206.477" y="634.333"/>
      <point x="206.477" y="597.801" type="curve" smooth="yes"/>
      <point x="206.477" y="573.667"/>
      <point x="209.806" y="535.333"/>
      <point x="331.563" y="470.997" type="curve" smooth="yes"/>
      <point x="456.017" y="405.333"/>
      <point x="515" y="346.667"/>
      <point x="515" y="238.351" type="curve" smooth="yes"/>
      <point x="515" y="170"/>
      <point x="485.647" y="106.667"/>
      <point x="442.369" y="51.667" type="curve"/>
      <point x="442.369" y="-36.333"/>
      <point x="379.49" y="-115"/>
      <point x="261.161" y="-115" type="curve" smooth="yes"/>
      <point x="174.188" y="-115"/>
      <point x="104.458" y="-72.331"/>
      <point x="104.694" y="-24.75" type="curve" smooth="yes"/>
      <point x="104.823" y="4.67"/>
      <point x="129.948" y="23.667"/>
      <point x="155.076" y="23.667" type="curve" smooth="yes"/>
      <point x="171.544" y="23.667"/>
      <point x="182.407" y="15.457"/>
      <point x="190.181" y="0.667" type="curve" smooth="yes"/>
      <point x="223.78" y="-62.333"/>
      <point x="258.715" y="-74.333"/>
      <point x="286.292" y="-74.333" type="curve" smooth="yes"/>
      <point x="329.57" y="-74.333"/>
      <point x="363.832" y="-45.333"/>
      <point x="363.832" y="5.541" type="curve" smooth="yes"/>
      <point x="363.832" y="43.333"/>
      <point x="344.87" y="89.667"/>
      <point x="221.408" y="152.835" type="curve" smooth="yes"/>
      <point x="78.333" y="226"/>
      <point x="42.333" y="293.667"/>
    </contour>
    <contour>
      <point x="98.667" y="418.67" type="curve" smooth="yes"/>
      <point x="98.667" y="359"/>
      <point x="145.575" y="303.667"/>
      <point x="251.568" y="247.46" type="curve" smooth="yes"/>
      <point x="344.872" y="198.333"/>
      <point x="401.773" y="155"/>
      <point x="426.728" y="104.333" type="curve"/>
      <point x="444.358" y="118.667"/>
      <point x="458.667" y="148"/>
      <point x="458.667" y="183.634" type="curve" smooth="yes"/>
      <point x="458.667" y="254.667"/>
      <point x="403.114" y="320"/>
      <point x="314.929" y="368.333" type="curve"/>
      <point x="237.41" y="412.667"/>
      <point x="162.196" y="457.776"/>
      <point x="144.246" y="510" type="curve"/>
      <point x="118.965" y="493.333"/>
      <point x="98.667" y="457.667"/>
    </contour>
  </outline>
</glyph>
<glyph name="dieresis" format="2">
  <advance width="410"/>
  <unicode hex="00A8"/>
  <anchor x="206" y="726.667" name="top"/>
  <outline>
    <contour>
      <point x="29.333" y="629.667" type="curve" smooth="yes"/>
      <point x="29.333" y="661.667"/>
      <point x="52.667" y="692"/>
      <point x="95.667" y="692" type="curve" smooth="yes"/>
      <point x="138.667" y="692"/>
      <point x="162" y="661.667"/>
      <point x="162" y="629.667" type="curve" smooth="yes"/>
      <point x="162" y="597.667"/>
      <point x="138.667" y="566.667"/>
      <point x="95.667" y="566.667" type="curve" smooth="yes"/>
      <point x="52.667" y="566.667"/>
      <point x="29.333" y="597.667"/>
    </contour>
    <contour>
      <point x="248" y="629.667" type="curve" smooth="yes"/>
      <point x="248" y="661.667"/>
      <point x="271.333" y="692"/>
      <point x="314.333" y="692" type="curve" smooth="yes"/>
      <point x="357.333" y="692"/>
      <point x="380.667" y="661.667"/>
      <point x="380.667" y="629.667" type="curve" smooth="yes"/>
      <point x="380.667" y="597.667"/>
      <point x="357.333" y="566.667"/>
      <point x="314.333" y="566.667" type="curve" smooth="yes"/>
      <point x="271.333" y="566.667"/>
      <point x="248" y="597.667"/>
    </contour>
  </outline>
</glyph>
<glyph name="copyright" format="2">
  <advance width="812"/>
  <unicode hex="00A9"/>
  <outline>
    <contour>
      <point x="42" y="346" type="curve" smooth="yes"/>
      <point x="42" y="546"/>
      <point x="205" y="707"/>
      <point x="406" y="707" type="curve" smooth="yes"/>
      <point x="607" y="707"/>
      <point x="770" y="546"/>
      <point x="770" y="346" type="curve" smooth="yes"/>
      <point x="770" y="146"/>
      <point x="607" y="-15"/>
      <point x="406" y="-15" type="curve" smooth="yes"/>
      <point x="205" y="-15"/>
      <point x="42" y="146"/>
    </contour>
    <contour>
      <point x="112.333" y="346" type="curve" smooth="yes"/>
      <point x="112.333" y="172"/>
      <point x="242.333" y="36"/>
      <point x="406" y="36" type="curve" smooth="yes"/>
      <point x="569.667" y="36"/>
      <point x="699.667" y="172"/>
      <point x="699.667" y="346" type="curve" smooth="yes"/>
      <point x="699.667" y="520"/>
      <point x="569.667" y="656"/>
      <point x="406" y="656" type="curve" smooth="yes"/>
      <point x="242.333" y="656"/>
      <point x="112.333" y="520"/>
    </contour>
    <contour>
      <point x="215" y="348" type="curve" smooth="yes"/>
      <point x="215" y="465.333"/>
      <point x="284" y="549.333"/>
      <point x="426.667" y="549.333" type="curve" smooth="yes"/>
      <point x="477" y="549.333"/>
      <point x="530" y="538.667"/>
      <point x="561.333" y="519" type="curve"/>
      <point x="561.333" y="419" type="line"/>
      <point x="539" y="419" type="line"/>
      <point x="527.333" y="470.667"/>
      <point x="503" y="520"/>
      <point x="427.667" y="520" type="curve" smooth="yes"/>
      <point x="343.333" y="520"/>
      <point x="309" y="443.667"/>
      <point x="309" y="356" type="curve" smooth="yes"/>
      <point x="309" y="268.667"/>
      <point x="338.667" y="179"/>
      <point x="433" y="179" type="curve" smooth="yes"/>
      <point x="495.333" y="179"/>
      <point x="527.667" y="218.667"/>
      <point x="547.667" y="283.333" type="curve"/>
      <point x="570" y="283.333" type="line"/>
      <point x="559" y="180.667" type="line"/>
      <point x="531" y="161.333"/>
      <point x="481.667" y="149.667"/>
      <point x="421.667" y="149.667" type="curve" smooth="yes"/>
      <point x="271.667" y="149.667"/>
      <point x="215" y="235.333"/>
    </contour>
  </outline>
</glyph>
<glyph name="logicalnot" format="2">
  <advance width="580"/>
  <unicode hex="00AC"/>
  <outline>
    <contour>
      <point x="48" y="326.333" type="line"/>
      <point x="48" y="391.667" type="line"/>
      <point x="532" y="391.667" type="line"/>
      <point x="532" y="99.667" type="line"/>
      <point x="454.667" y="99.667" type="line"/>
      <point x="454.667" y="326.333" type="line"/>
    </contour>
  </outline>
</glyph>
<glyph name="registered" format="2">
  <advance width="812"/>
  <unicode hex="00AE"/>
  <outline>
    <contour>
      <point x="42" y="346" type="curve" smooth="yes"/>
      <point x="42" y="546"/>
      <point x="205" y="707"/>
      <point x="405.597" y="707" type="curve" smooth="yes"/>
      <point x="607" y="707"/>
      <point x="770" y="546"/>
      <point x="770" y="346" type="curve" smooth="yes"/>
      <point x="770" y="146"/>
      <point x="607" y="-15"/>
      <point x="405.597" y="-15" type="curve" smooth="yes"/>
      <point x="205" y="-15"/>
      <point x="42" y="146"/>
    </contour>
    <contour>
      <point x="112.333" y="346" type="curve" smooth="yes"/>
      <point x="112.333" y="172"/>
      <point x="242.333" y="36"/>
      <point x="405.597" y="36" type="curve" smooth="yes"/>
      <point x="569.667" y="36"/>
      <point x="699.667" y="172"/>
      <point x="699.667" y="346" type="curve" smooth="yes"/>
      <point x="699.667" y="519.595"/>
      <point x="569.667" y="656"/>
      <point x="405.597" y="656" type="curve" smooth="yes"/>
      <point x="242.333" y="656"/>
      <point x="112.333" y="519.595"/>
    </contour>
    <contour>
      <point x="236.333" y="159" type="line"/>
      <point x="236.333" y="181" type="line"/>
      <point x="266" y="185" type="line" smooth="yes"/>
      <point x="282.667" y="187"/>
      <point x="285.667" y="196.333"/>
      <point x="285.667" y="213.667" type="curve" smooth="yes"/>
      <point x="285.667" y="483.782" type="line" smooth="yes"/>
      <point x="285.667" y="502.031"/>
      <point x="282.753" y="511.236"/>
      <point x="266" y="513.429" type="curve" smooth="yes"/>
      <point x="236.333" y="517.524" type="line"/>
      <point x="236.333" y="540" type="line"/>
      <point x="425.344" y="540" type="line" smooth="yes"/>
      <point x="523.333" y="540"/>
      <point x="556.333" y="499.387"/>
      <point x="556.333" y="448.296" type="curve" smooth="yes"/>
      <point x="556.333" y="392.538"/>
      <point x="517" y="360.333"/>
      <point x="461.855" y="351" type="curve"/>
      <point x="461.855" y="349" type="line"/>
      <point x="519.333" y="334"/>
      <point x="529.333" y="297"/>
      <point x="538.193" y="251.949" type="curve" smooth="yes"/>
      <point x="545.394" y="213.439"/>
      <point x="556.716" y="189.156"/>
      <point x="596.333" y="177.667" type="curve"/>
      <point x="596.333" y="159" type="line"/>
      <point x="548.667" y="159" type="line" smooth="yes"/>
      <point x="500.667" y="159"/>
      <point x="481.333" y="174"/>
      <point x="468.945" y="207.012" type="curve" smooth="yes"/>
      <point x="457.237" y="238"/>
      <point x="452.887" y="281.333"/>
      <point x="444.234" y="302.228" type="curve" smooth="yes"/>
      <point x="436.118" y="322"/>
      <point x="420.349" y="333"/>
      <point x="390.516" y="333" type="curve" smooth="yes"/>
      <point x="361.667" y="333" type="line"/>
      <point x="361.667" y="213.667" type="line" smooth="yes"/>
      <point x="361.667" y="196.333"/>
      <point x="365.688" y="187"/>
      <point x="383.118" y="185" type="curve" smooth="yes"/>
      <point x="412.28" y="181" type="line"/>
      <point x="412.28" y="159" type="line"/>
    </contour>
    <contour>
      <point x="361.667" y="362.333" type="line"/>
      <point x="395.204" y="362.333" type="line" smooth="yes"/>
      <point x="445.629" y="362.333"/>
      <point x="474.667" y="385.845"/>
      <point x="474.667" y="436.346" type="curve" smooth="yes"/>
      <point x="474.667" y="494.724"/>
      <point x="438.113" y="510"/>
      <point x="393.61" y="510" type="curve" smooth="yes"/>
      <point x="365.688" y="510"/>
      <point x="361.667" y="504.36"/>
      <point x="361.667" y="489.427" type="curve" smooth="yes"/>
    </contour>
  </outline>
</glyph>
<glyph name="macron" format="2">
  <advance width="410"/>
  <unicode hex="00AF"/>
  <anchor x="205.333" y="712" name="top"/>
  <outline>
    <contour>
      <point x="205.167" y="662" type="line"/>
      <point x="353.333" y="662" type="line"/>
      <point x="353.333" y="593.667" type="line"/>
      <point x="205.167" y="593.667" type="line"/>
    </contour>
    <contour>
      <point x="205.167" y="593.667" type="line"/>
      <point x="57.333" y="593.667" type="line"/>
      <point x="57.333" y="662" type="line"/>
      <point x="205.167" y="662" type="line"/>
    </contour>
  </outline>
</glyph>
<glyph name="degree" format="2">
  <advance width="365"/>
  <unicode hex="00B0"/>
  <outline>
    <contour>
      <point x="36.333" y="534.667" type="curve"/>
      <point x="36" y="614.667"/>
      <point x="102.333" y="680"/>
      <point x="182.667" y="680" type="curve" smooth="yes"/>
      <point x="262.667" y="680"/>
      <point x="329" y="614.667"/>
      <point x="329" y="534.667" type="curve" smooth="yes"/>
      <point x="329" y="454.667"/>
      <point x="262.667" y="389.333"/>
      <point x="182.667" y="389.333" type="curve" smooth="yes"/>
      <point x="102.333" y="389.333"/>
      <point x="36.333" y="454.667"/>
    </contour>
    <contour>
      <point x="99.333" y="535" type="curve"/>
      <point x="99.333" y="481"/>
      <point x="137.333" y="440.667"/>
      <point x="182.667" y="440.667" type="curve" smooth="yes"/>
      <point x="227.667" y="440.667"/>
      <point x="266" y="481"/>
      <point x="266" y="535" type="curve" smooth="yes"/>
      <point x="266" y="588.333"/>
      <point x="227.667" y="628.667"/>
      <point x="182.333" y="628.667" type="curve" smooth="yes"/>
      <point x="137.333" y="628.667"/>
      <point x="99" y="588.333"/>
    </contour>
  </outline>
</glyph>
<glyph name="twosuperior" format="2">
	<unicode hex="00B2"/>
	<advance width="380"/>
	<outline>
		<contour>
			<point x="31" y="282" type="line"/>
			<point x="36.6667" y="333.333"/>
			<point x="78.6667" y="387"/>
			<point x="161.333" y="445.333" type="curve" smooth="yes"/>
			<point x="228.333" y="493"/>
			<point x="241.667" y="542.667"/>
			<point x="241.667" y="581.667" type="curve" smooth="yes"/>
			<point x="241.667" y="620"/>
			<point x="225.667" y="648.667"/>
			<point x="193.667" y="648.667" type="curve" smooth="yes"/>
			<point x="165.333" y="648.667"/>
			<point x="143.333" y="625.333"/>
			<point x="131.333" y="569.333" type="curve" smooth="yes"/>
			<point x="127.333" y="550.333"/>
			<point x="119" y="541.333"/>
			<point x="99.6667" y="541.333" type="curve" smooth="yes"/>
			<point x="77" y="541.333"/>
			<point x="47.6667" y="557"/>
			<point x="47.6667" y="583" type="curve" smooth="yes"/>
			<point x="47.6667" y="630"/>
			<point x="101" y="680"/>
			<point x="196" y="680" type="curve" smooth="yes"/>
			<point x="284" y="680"/>
			<point x="341" y="643.667"/>
			<point x="341" y="567.667" type="curve" smooth="yes"/>
			<point x="341" y="501.667"/>
			<point x="293.333" y="467"/>
			<point x="215.667" y="426.667" type="curve" smooth="yes"/>
			<point x="157.333" y="397.333"/>
			<point x="128" y="365.333"/>
			<point x="117.333" y="338.667" type="curve"/>
			<point x="281.333" y="338.667" type="line" smooth="yes"/>
			<point x="310" y="338.667"/>
			<point x="320.667" y="346.667"/>
			<point x="334.667" y="372.333" type="curve"/>
			<point x="359.333" y="366.333" type="line"/>
			<point x="331" y="272" type="line"/>
			<point x="40.6667" y="272" type="line"/>
		</contour>
	</outline>
</glyph>
<glyph name="uni00B2" format="2">
  <advance width="380"/>
  <unicode hex="00B2"/>
  <outline>
    <contour>
      <point x="31" y="418" type="line"/>
      <point x="36.667" y="469.333"/>
      <point x="78.703" y="522.95"/>
      <point x="161.333" y="581.333" type="curve" smooth="yes"/>
      <point x="228.37" y="628.95"/>
      <point x="241.667" y="678.667"/>
      <point x="241.667" y="715.862" type="curve" smooth="yes"/>
      <point x="241.667" y="756"/>
      <point x="225.667" y="784.667"/>
      <point x="193.667" y="784.667" type="curve" smooth="yes"/>
      <point x="165.333" y="784.667"/>
      <point x="143.383" y="761.322"/>
      <point x="132.441" y="709.997" type="curve" smooth="yes"/>
      <point x="127.383" y="686.322"/>
      <point x="119" y="677.333"/>
      <point x="100.237" y="677.333" type="curve" smooth="yes"/>
      <point x="77" y="677.333"/>
      <point x="47.667" y="693"/>
      <point x="47.667" y="724.033" type="curve" smooth="yes"/>
      <point x="47.667" y="766"/>
      <point x="101" y="816"/>
      <point x="199.751" y="816" type="curve" smooth="yes"/>
      <point x="284" y="816"/>
      <point x="341" y="779.667"/>
      <point x="341" y="705.488" type="curve" smooth="yes"/>
      <point x="341" y="637.667"/>
      <point x="293.333" y="597.667"/>
      <point x="214.88" y="562.511" type="curve" smooth="yes"/>
      <point x="155.871" y="536.233"/>
      <point x="128" y="501.333"/>
      <point x="117.333" y="474.667" type="curve"/>
      <point x="281.333" y="474.667" type="line" smooth="yes"/>
      <point x="310" y="474.667"/>
      <point x="320.667" y="482.667"/>
      <point x="334.667" y="508.333" type="curve"/>
      <point x="359.333" y="502.333" type="line"/>
      <point x="331" y="408" type="line"/>
      <point x="40.667" y="408" type="line"/>
    </contour>
  </outline>
</glyph>
<glyph name="threesuperior" format="2">
	<unicode hex="00B3"/>
	<advance width="380"/>
	<outline>
		<contour>
			<point x="32.3333" y="344" type="curve" smooth="yes"/>
			<point x="32.3333" y="372"/>
			<point x="60.6667" y="393.333"/>
			<point x="83.3333" y="393.333" type="curve" smooth="yes"/>
			<point x="99" y="393.333"/>
			<point x="107.667" y="384"/>
			<point x="112.333" y="369" type="curve" smooth="yes"/>
			<point x="129.333" y="317.667"/>
			<point x="155.333" y="296.333"/>
			<point x="184.333" y="296.333" type="curve" smooth="yes"/>
			<point x="219.333" y="296.333"/>
			<point x="247" y="321.333"/>
			<point x="247" y="384.667" type="curve" smooth="yes"/>
			<point x="247" y="458.333"/>
			<point x="202" y="467.333"/>
			<point x="183" y="467.333" type="curve" smooth="yes"/>
			<point x="154.667" y="467.333"/>
			<point x="134" y="458.667"/>
			<point x="123.333" y="458.667" type="curve" smooth="yes"/>
			<point x="109.667" y="458.667"/>
			<point x="104.667" y="470"/>
			<point x="104.667" y="484" type="curve" smooth="yes"/>
			<point x="104.667" y="498.667"/>
			<point x="109" y="510.667"/>
			<point x="123.333" y="510.667" type="curve" smooth="yes"/>
			<point x="134" y="510.667"/>
			<point x="155" y="502"/>
			<point x="183" y="502" type="curve" smooth="yes"/>
			<point x="223.333" y="502"/>
			<point x="233" y="546.333"/>
			<point x="233" y="578.667" type="curve" smooth="yes"/>
			<point x="233" y="605.667"/>
			<point x="224.333" y="648.667"/>
			<point x="183" y="648.667" type="curve" smooth="yes"/>
			<point x="153" y="648.667"/>
			<point x="136.333" y="622.333"/>
			<point x="124.333" y="577.333" type="curve" smooth="yes"/>
			<point x="119.667" y="561"/>
			<point x="110" y="554.667"/>
			<point x="95.3333" y="554.667" type="curve" smooth="yes"/>
			<point x="75.3333" y="554.667"/>
			<point x="47.6667" y="568.667"/>
			<point x="47" y="595" type="curve"/>
			<point x="47.3333" y="636.333"/>
			<point x="99.6667" y="680"/>
			<point x="189" y="680" type="curve" smooth="yes"/>
			<point x="254" y="680"/>
			<point x="329.333" y="656.667"/>
			<point x="329.333" y="580" type="curve" smooth="yes"/>
			<point x="329.333" y="520"/>
			<point x="277" y="496.667"/>
			<point x="241.667" y="489.333" type="curve"/>
			<point x="241.667" y="487" type="line"/>
			<point x="281.667" y="483"/>
			<point x="347" y="454.333"/>
			<point x="347" y="382.667" type="curve" smooth="yes"/>
			<point x="347" y="311.333"/>
			<point x="293.333" y="265"/>
			<point x="177.667" y="265" type="curve" smooth="yes"/>
			<point x="99" y="265"/>
			<point x="32.3333" y="298"/>
		</contour>
	</outline>
</glyph>
<glyph name="periodcentered" format="2">
  <advance width="270"/>
  <unicode hex="00B7"/>
  <anchor x="62.333" y="250.333" name="_dot"/>
  <outline>
    <contour>
      <point x="62.333" y="250.333" type="curve" smooth="yes"/>
      <point x="62.333" y="293.333"/>
      <point x="91.667" y="324.667"/>
      <point x="135.333" y="324.667" type="curve" smooth="yes"/>
      <point x="179.667" y="324.667"/>
      <point x="208.333" y="293.333"/>
      <point x="208.333" y="250.333" type="curve" smooth="yes"/>
      <point x="208.333" y="208"/>
      <point x="179.667" y="177.333"/>
      <point x="135.333" y="177.333" type="curve" smooth="yes"/>
      <point x="91.667" y="177.333"/>
      <point x="62.333" y="208"/>
    </contour>
  </outline>
</glyph>
<glyph name="cedilla" format="2">
  <advance width="410"/>
  <unicode hex="00B8"/>
  <outline>
    <contour>
      <point x="154" y="-204.333" type="line"/>
      <point x="205.333" y="-204.333"/>
      <point x="244" y="-189.333"/>
      <point x="244" y="-147.667" type="curve" smooth="yes"/>
      <point x="244" y="-101"/>
      <point x="200" y="-95.333"/>
      <point x="180.667" y="-94" type="curve"/>
      <point x="176.667" y="-86.667" type="line"/>
      <point x="226.333" y="0" type="line"/>
      <point x="273" y="0" type="line"/>
      <point x="238.667" y="-56" type="line"/>
      <point x="273.667" y="-60.667"/>
      <point x="331" y="-78.333"/>
      <point x="331" y="-142.667" type="curve" smooth="yes"/>
      <point x="331" y="-224"/>
      <point x="235.667" y="-235.333"/>
      <point x="199.333" y="-235.333" type="curve" smooth="yes"/>
      <point x="181" y="-235.333"/>
      <point x="169" y="-234.333"/>
      <point x="154" y="-232.333" type="curve"/>
    </contour>
  </outline>
</glyph>
<glyph name="onesuperior" format="2">
	<unicode hex="00B9"/>
	<advance width="380"/>
	<outline>
		<contour>
			<point x="79" y="272" type="line"/>
			<point x="79" y="295.667" type="line"/>
			<point x="128.333" y="300.667" type="line" smooth="yes"/>
			<point x="144" y="302.333"/>
			<point x="152" y="308.667"/>
			<point x="152" y="330" type="curve" smooth="yes"/>
			<point x="152" y="602" type="line" smooth="yes"/>
			<point x="152" y="620"/>
			<point x="146.667" y="627"/>
			<point x="134" y="629.333" type="curve"/>
			<point x="79.6667" y="636.667" type="line"/>
			<point x="79.6667" y="658" type="line"/>
			<point x="233.667" y="680" type="line"/>
			<point x="241" y="675" type="line"/>
			<point x="241" y="330" type="line" smooth="yes"/>
			<point x="241" y="308.667"/>
			<point x="249" y="302.333"/>
			<point x="265.333" y="300.667" type="curve" smooth="yes"/>
			<point x="314" y="295.667" type="line"/>
			<point x="314" y="272" type="line"/>
		</contour>
	</outline>
</glyph>
<glyph name="uni00B9" format="2">
  <advance width="380"/>
  <unicode hex="00B9"/>
  <outline>
    <contour>
      <point x="79" y="408" type="line"/>
      <point x="79" y="431.667" type="line"/>
      <point x="128.333" y="436.667" type="line" smooth="yes"/>
      <point x="144.001" y="438.376"/>
      <point x="152" y="444.667"/>
      <point x="152" y="466" type="curve" smooth="yes"/>
      <point x="152" y="738" type="line" smooth="yes"/>
      <point x="152" y="756"/>
      <point x="146.667" y="763"/>
      <point x="134" y="765.333" type="curve"/>
      <point x="79.667" y="772.667" type="line"/>
      <point x="79.667" y="794" type="line"/>
      <point x="233.667" y="816" type="line"/>
      <point x="241" y="811" type="line"/>
      <point x="241" y="466" type="line" smooth="yes"/>
      <point x="241" y="444.667"/>
      <point x="249.005" y="438.452"/>
      <point x="265.333" y="436.667" type="curve" smooth="yes"/>
      <point x="314" y="431.667" type="line"/>
      <point x="314" y="408" type="line"/>
    </contour>
  </outline>
</glyph>
<glyph name="ordmasculine" format="2">
  <advance width="408"/>
  <unicode hex="00BA"/>
  <outline>
    <contour>
      <point x="32.667" y="472.667" type="curve" smooth="yes"/>
      <point x="32.667" y="572.667"/>
      <point x="85.667" y="635.333"/>
      <point x="203.333" y="635.333" type="curve" smooth="yes"/>
      <point x="322.333" y="635.333"/>
      <point x="375" y="572.667"/>
      <point x="375" y="472.667" type="curve" smooth="yes"/>
      <point x="375" y="373"/>
      <point x="322.333" y="310.333"/>
      <point x="203.333" y="310.333" type="curve" smooth="yes"/>
      <point x="85.667" y="310.333"/>
      <point x="32.667" y="373"/>
    </contour>
    <contour>
      <point x="130" y="472.667" type="curve"/>
      <point x="131.333" y="392"/>
      <point x="152.667" y="341"/>
      <point x="203.333" y="341" type="curve" smooth="yes"/>
      <point x="255.333" y="341"/>
      <point x="276.333" y="392"/>
      <point x="277.667" y="472.667" type="curve"/>
      <point x="276.333" y="553.667"/>
      <point x="255.333" y="604.667"/>
      <point x="203.333" y="604.667" type="curve" smooth="yes"/>
      <point x="152.667" y="604.667"/>
      <point x="131.333" y="553.667"/>
    </contour>
  </outline>
</glyph>
<glyph name="guillemotright" format="2">
	<unicode hex="00BB"/>
	<advance width="457"/>
	<outline>
		<contour>
			<point x="39" y="57.3333" type="line"/>
			<point x="118" y="224.667" type="line" smooth="yes"/>
			<point x="120.955" y="230.895"/>
			<point x="122.045" y="236.895"/>
			<point x="122.045" y="242.775" type="curve" smooth="yes"/>
			<point x="122.045" y="248.168"/>
			<point x="120.871" y="254.084"/>
			<point x="118" y="259.333" type="curve"/>
			<point x="39" y="426.333" type="line"/>
			<point x="62" y="444.667" type="line"/>
			<point x="220" y="259.333" type="line" smooth="yes"/>
			<point x="223.873" y="254.623"/>
			<point x="226.21" y="248.493"/>
			<point x="226.21" y="242.942" type="curve" smooth="yes"/>
			<point x="226.21" y="236.819"/>
			<point x="223.957" y="231.283"/>
			<point x="220" y="225.667" type="curve"/>
			<point x="62" y="39.6667" type="line"/>
		</contour>
		<contour>
			<point x="229" y="57.3333" type="line"/>
			<point x="308" y="224.667" type="line" smooth="yes"/>
			<point x="310.955" y="230.895"/>
			<point x="312.045" y="236.895"/>
			<point x="312.045" y="242.775" type="curve" smooth="yes"/>
			<point x="312.045" y="248.168"/>
			<point x="310.871" y="254.084"/>
			<point x="308" y="259.333" type="curve"/>
			<point x="229" y="426.333" type="line"/>
			<point x="252" y="444.667" type="line"/>
			<point x="410" y="259.333" type="line" smooth="yes"/>
			<point x="413.873" y="254.623"/>
			<point x="416.21" y="248.493"/>
			<point x="416.21" y="242.942" type="curve" smooth="yes"/>
			<point x="416.21" y="236.819"/>
			<point x="413.957" y="231.283"/>
			<point x="410" y="225.667" type="curve"/>
			<point x="252" y="39.6667" type="line"/>
		</contour>
	</outline>
</glyph>
<glyph name="onequarter" format="2">
	<unicode hex="00BC"/>
	<advance width="873"/>
	<outline>
		<contour>
			<point x="69" y="272" type="line"/>
			<point x="69" y="295.667" type="line"/>
			<point x="118.333" y="300.667" type="line" smooth="yes"/>
			<point x="134" y="302.333"/>
			<point x="142" y="308.667"/>
			<point x="142" y="330" type="curve" smooth="yes"/>
			<point x="142" y="602" type="line" smooth="yes"/>
			<point x="142" y="620"/>
			<point x="136.667" y="627"/>
			<point x="124" y="629.333" type="curve"/>
			<point x="69.6667" y="636.667" type="line"/>
			<point x="69.6667" y="658" type="line"/>
			<point x="223.667" y="680" type="line"/>
			<point x="231" y="675" type="line"/>
			<point x="231" y="330" type="line" smooth="yes"/>
			<point x="231" y="308.667"/>
			<point x="239" y="302.333"/>
			<point x="255.333" y="300.667" type="curve" smooth="yes"/>
			<point x="304" y="295.667" type="line"/>
			<point x="304" y="272" type="line"/>
		</contour>
		<contour>
			<point x="213.667" y="1.33333" type="line"/>
			<point x="618" y="695" type="line"/>
			<point x="661" y="669.667" type="line"/>
			<point x="255" y="-27" type="line"/>
		</contour>
		<contour>
			<point x="470.667" y="119" type="line"/>
			<point x="530.667" y="217"/>
			<point x="613" y="337.667"/>
			<point x="663.667" y="401" type="curve"/>
			<point x="736.333" y="401" type="line"/>
			<point x="736.333" y="137.333" type="line"/>
			<point x="801.333" y="137.333" type="line"/>
			<point x="801.333" y="99" type="line"/>
			<point x="736.333" y="99" type="line"/>
			<point x="736.333" y="55.6667" type="line" smooth="yes"/>
			<point x="736.333" y="35.3333"/>
			<point x="744" y="29.3333"/>
			<point x="758.333" y="28" type="curve"/>
			<point x="790" y="23.6667" type="line"/>
			<point x="790" y="0" type="line"/>
			<point x="585" y="0" type="line"/>
			<point x="585" y="23.6667" type="line"/>
			<point x="627.333" y="28.3333" type="line" smooth="yes"/>
			<point x="640.667" y="29.6667"/>
			<point x="648.667" y="35.3333"/>
			<point x="648.667" y="55.6667" type="curve" smooth="yes"/>
			<point x="648.667" y="99" type="line"/>
			<point x="482.667" y="99" type="line"/>
		</contour>
		<contour>
			<point x="530.333" y="137.333" type="curve"/>
			<point x="648.667" y="137.333" type="line"/>
			<point x="648.667" y="325.667" type="line"/>
			<point x="646.667" y="325.667" type="line"/>
			<point x="610" y="271.667"/>
			<point x="567" y="202"/>
		</contour>
	</outline>
</glyph>
<glyph name="onehalf" format="2">
  <advance width="873"/>
  <unicode hex="00BD"/>
  <outline>
    <contour>
      <point x="57.667" y="272" type="line"/>
      <point x="57.667" y="295.667" type="line"/>
      <point x="107" y="300.667" type="line" smooth="yes"/>
      <point x="122.667" y="302.333"/>
      <point x="130.667" y="308.667"/>
      <point x="130.667" y="330" type="curve" smooth="yes"/>
      <point x="130.667" y="602" type="line" smooth="yes"/>
      <point x="130.667" y="620"/>
      <point x="125.333" y="627"/>
      <point x="112.667" y="629.333" type="curve"/>
      <point x="58.333" y="636.667" type="line"/>
      <point x="58.333" y="658" type="line"/>
      <point x="212.333" y="680" type="line"/>
      <point x="219.667" y="675" type="line"/>
      <point x="219.667" y="330" type="line" smooth="yes"/>
      <point x="219.667" y="308.667"/>
      <point x="227.667" y="302.333"/>
      <point x="244" y="300.667" type="curve" smooth="yes"/>
      <point x="292.667" y="295.667" type="line"/>
      <point x="292.667" y="272" type="line"/>
    </contour>
    <contour>
      <point x="187.333" y="1.333" type="line"/>
      <point x="591.667" y="695" type="line"/>
      <point x="634.667" y="669.667" type="line"/>
      <point x="228.667" y="-27" type="line"/>
    </contour>
    <contour>
      <point x="492.667" y="10" type="line"/>
      <point x="498.333" y="61.333"/>
      <point x="540.333" y="115"/>
      <point x="623" y="173.333" type="curve" smooth="yes"/>
      <point x="690" y="221"/>
      <point x="703.333" y="270.667"/>
      <point x="703.333" y="309.667" type="curve" smooth="yes"/>
      <point x="703.333" y="348"/>
      <point x="687.333" y="376.667"/>
      <point x="655.333" y="376.667" type="curve" smooth="yes"/>
      <point x="627" y="376.667"/>
      <point x="605" y="353.333"/>
      <point x="593" y="297.333" type="curve" smooth="yes"/>
      <point x="589" y="278.333"/>
      <point x="580.667" y="269.333"/>
      <point x="561.333" y="269.333" type="curve" smooth="yes"/>
      <point x="538.667" y="269.333"/>
      <point x="509.333" y="285"/>
      <point x="509.333" y="311" type="curve" smooth="yes"/>
      <point x="509.333" y="358"/>
      <point x="562.667" y="408"/>
      <point x="657.667" y="408" type="curve" smooth="yes"/>
      <point x="745.667" y="408"/>
      <point x="802.667" y="371.667"/>
      <point x="802.667" y="295.667" type="curve" smooth="yes"/>
      <point x="802.667" y="229.667"/>
      <point x="755" y="195"/>
      <point x="677.333" y="154.667" type="curve" smooth="yes"/>
      <point x="619" y="125.333"/>
      <point x="589.667" y="93.333"/>
      <point x="579" y="66.667" type="curve"/>
      <point x="743" y="66.667" type="line" smooth="yes"/>
      <point x="771.667" y="66.667"/>
      <point x="782.333" y="74.667"/>
      <point x="796.333" y="100.333" type="curve"/>
      <point x="821" y="94.333" type="line"/>
      <point x="792.667" y="0" type="line"/>
      <point x="502.333" y="0" type="line"/>
    </contour>
  </outline>
</glyph>
<glyph name="threequarters" format="2">
  <advance width="873"/>
  <unicode hex="00BE"/>
  <outline>
    <contour>
      <point x="45" y="344" type="curve" smooth="yes"/>
      <point x="45" y="372"/>
      <point x="73.333" y="393.333"/>
      <point x="96" y="393.333" type="curve" smooth="yes"/>
      <point x="111.667" y="393.333"/>
      <point x="120.333" y="384"/>
      <point x="125" y="369" type="curve" smooth="yes"/>
      <point x="142" y="317.667"/>
      <point x="168" y="296.333"/>
      <point x="197" y="296.333" type="curve" smooth="yes"/>
      <point x="232" y="296.333"/>
      <point x="259.667" y="321.333"/>
      <point x="259.667" y="384.667" type="curve" smooth="yes"/>
      <point x="259.667" y="458.333"/>
      <point x="214.667" y="467.333"/>
      <point x="195.667" y="467.333" type="curve" smooth="yes"/>
      <point x="167.333" y="467.333"/>
      <point x="146.667" y="458.667"/>
      <point x="136" y="458.667" type="curve" smooth="yes"/>
      <point x="122.333" y="458.667"/>
      <point x="117.333" y="470"/>
      <point x="117.333" y="484" type="curve" smooth="yes"/>
      <point x="117.333" y="498.667"/>
      <point x="121.667" y="510.667"/>
      <point x="136" y="510.667" type="curve" smooth="yes"/>
      <point x="146.667" y="510.667"/>
      <point x="167.667" y="502"/>
      <point x="195.667" y="502" type="curve" smooth="yes"/>
      <point x="236" y="502"/>
      <point x="245.667" y="546.333"/>
      <point x="245.667" y="578.667" type="curve" smooth="yes"/>
      <point x="245.667" y="605.667"/>
      <point x="237" y="648.667"/>
      <point x="195.667" y="648.667" type="curve" smooth="yes"/>
      <point x="165.667" y="648.667"/>
      <point x="149" y="622.333"/>
      <point x="137" y="577.333" type="curve" smooth="yes"/>
      <point x="132.333" y="561"/>
      <point x="122.667" y="554.667"/>
      <point x="108" y="554.667" type="curve" smooth="yes"/>
      <point x="88" y="554.667"/>
      <point x="60.333" y="568.667"/>
      <point x="59.667" y="595" type="curve"/>
      <point x="60" y="636.333"/>
      <point x="112.333" y="680"/>
      <point x="201.667" y="680" type="curve" smooth="yes"/>
      <point x="266.667" y="680"/>
      <point x="342" y="656.667"/>
      <point x="342" y="580" type="curve" smooth="yes"/>
      <point x="342" y="520"/>
      <point x="289.667" y="496.667"/>
      <point x="254.333" y="489.333" type="curve"/>
      <point x="254.333" y="487" type="line"/>
      <point x="294.333" y="483"/>
      <point x="359.667" y="454.333"/>
      <point x="359.667" y="382.667" type="curve" smooth="yes"/>
      <point x="359.667" y="311.333"/>
      <point x="306" y="265"/>
      <point x="190.333" y="265" type="curve" smooth="yes"/>
      <point x="111.667" y="265"/>
      <point x="45" y="298"/>
    </contour>
    <contour>
      <point x="240.333" y="1.333" type="line"/>
      <point x="644.667" y="695" type="line"/>
      <point x="687.667" y="669.667" type="line"/>
      <point x="281.667" y="-27" type="line"/>
    </contour>
    <contour>
      <point x="488.667" y="119" type="line"/>
      <point x="548.667" y="217"/>
      <point x="631" y="337.667"/>
      <point x="681.667" y="401" type="curve"/>
      <point x="754.333" y="401" type="line"/>
      <point x="754.333" y="137.333" type="line"/>
      <point x="819.333" y="137.333" type="line"/>
      <point x="819.333" y="99" type="line"/>
      <point x="754.333" y="99" type="line"/>
      <point x="754.333" y="55.667" type="line" smooth="yes"/>
      <point x="754.333" y="35.333"/>
      <point x="762" y="29.333"/>
      <point x="776.333" y="28" type="curve"/>
      <point x="808" y="23.667" type="line"/>
      <point x="808" y="0" type="line"/>
      <point x="603" y="0" type="line"/>
      <point x="603" y="23.667" type="line"/>
      <point x="645.333" y="28.333" type="line" smooth="yes"/>
      <point x="658.667" y="29.667"/>
      <point x="666.667" y="35.333"/>
      <point x="666.667" y="55.667" type="curve" smooth="yes"/>
      <point x="666.667" y="99" type="line"/>
      <point x="500.667" y="99" type="line"/>
    </contour>
    <contour>
      <point x="548.333" y="137.333" type="curve"/>
      <point x="666.667" y="137.333" type="line"/>
      <point x="666.667" y="325.667" type="line"/>
      <point x="664.667" y="325.667" type="line"/>
      <point x="628" y="271.667"/>
      <point x="585" y="202"/>
    </contour>
  </outline>
</glyph>
<glyph name="AE" format="2">
  <advance width="877"/>
  <unicode hex="00C6"/>
  <outline>
    <contour>
      <point x="-69" y="0" type="line"/>
      <point x="-69" y="32" type="line"/>
      <point x="-13.667" y="36"/>
      <point x="0.667" y="42"/>
      <point x="22.667" y="82.667" type="curve" smooth="yes"/>
      <point x="306.667" y="617" type="line" smooth="yes"/>
      <point x="311.667" y="626.667"/>
      <point x="314" y="634.333"/>
      <point x="314" y="640" type="curve" smooth="yes"/>
      <point x="314" y="649"/>
      <point x="308.333" y="652.667"/>
      <point x="295.667" y="653.667" type="curve" smooth="yes"/>
      <point x="224.333" y="660" type="line"/>
      <point x="224.333" y="692" type="line"/>
      <point x="814" y="692" type="line"/>
      <point x="814" y="521" type="line"/>
      <point x="781.333" y="521" type="line"/>
      <point x="761.667" y="623.333"/>
      <point x="740.333" y="653.333"/>
      <point x="630" y="653.333" type="curve" smooth="yes"/>
      <point x="539.667" y="653.333" type="line" smooth="yes"/>
      <point x="509" y="653.333"/>
      <point x="503.333" y="647"/>
      <point x="503.333" y="617.333" type="curve" smooth="yes"/>
      <point x="503.333" y="382.333" type="line"/>
      <point x="628.333" y="382.333" type="line" smooth="yes"/>
      <point x="706" y="382.333"/>
      <point x="713" y="404"/>
      <point x="724.333" y="469.667" type="curve"/>
      <point x="757" y="469.667" type="line"/>
      <point x="757" y="251.667" type="line"/>
      <point x="724.333" y="251.667" type="line"/>
      <point x="713" y="318"/>
      <point x="706" y="339.667"/>
      <point x="628.333" y="339.667" type="curve" smooth="yes"/>
      <point x="503.333" y="339.667" type="line"/>
      <point x="503.333" y="123" type="line" smooth="yes"/>
      <point x="503.333" y="42.333"/>
      <point x="545" y="38.667"/>
      <point x="630.333" y="38.667" type="curve" smooth="yes"/>
      <point x="751.667" y="38.667"/>
      <point x="789.333" y="67.667"/>
      <point x="816.667" y="184.667" type="curve"/>
      <point x="849.333" y="184.667" type="line"/>
      <point x="837.333" y="0" type="line"/>
      <point x="299" y="0" type="line"/>
      <point x="299" y="32" type="line"/>
      <point x="380.667" y="37"/>
      <point x="385.333" y="40"/>
      <point x="385.333" y="95.667" type="curve" smooth="yes"/>
      <point x="385.333" y="339.667" type="line"/>
      <point x="218.333" y="339.667" type="line"/>
      <point x="85.667" y="70.333" type="line"/>
      <point x="83" y="64.333"/>
      <point x="82" y="59.333"/>
      <point x="82" y="55" type="curve" smooth="yes"/>
      <point x="82" y="45.333"/>
      <point x="88.333" y="39.667"/>
      <point x="101.667" y="38.667" type="curve"/>
      <point x="167" y="32" type="line"/>
      <point x="167" y="0" type="line"/>
    </contour>
    <contour>
      <point x="239.333" y="382.333" type="line"/>
      <point x="385.333" y="382.333" type="line"/>
      <point x="385.333" y="648" type="line"/>
      <point x="378" y="648" type="line"/>
    </contour>
  </outline>
</glyph>
<glyph name="Eth" format="2">
  <advance width="784"/>
  <unicode hex="00D0"/>
  <outline>
    <contour>
      <point x="25" y="382.333" type="line"/>
      <point x="385.333" y="382.333" type="line"/>
      <point x="385.333" y="341" type="line"/>
      <point x="25" y="341" type="line"/>
    </contour>
    <contour>
      <point x="40.333" y="0" type="line"/>
      <point x="40.333" y="32" type="line"/>
      <point x="122.667" y="37"/>
      <point x="126.667" y="40"/>
      <point x="126.667" y="94.333" type="curve" smooth="yes"/>
      <point x="126.667" y="597.667" type="line" smooth="yes"/>
      <point x="126.667" y="652"/>
      <point x="122.667" y="655"/>
      <point x="40.333" y="660" type="curve"/>
      <point x="40.333" y="692" type="line"/>
      <point x="376" y="692" type="line" smooth="yes"/>
      <point x="647" y="692"/>
      <point x="738.333" y="545.667"/>
      <point x="738.333" y="353" type="curve" smooth="yes"/>
      <point x="738.333" y="126.333"/>
      <point x="604.667" y="0"/>
      <point x="348" y="0" type="curve" smooth="yes"/>
    </contour>
    <contour>
      <point x="246" y="113.333" type="line" smooth="yes"/>
      <point x="246" y="50"/>
      <point x="263" y="38.667"/>
      <point x="339.667" y="38.667" type="curve" smooth="yes"/>
      <point x="486.667" y="38.667"/>
      <point x="604.667" y="97.667"/>
      <point x="604.667" y="347" type="curve" smooth="yes"/>
      <point x="604.667" y="530.667"/>
      <point x="537" y="653.333"/>
      <point x="351" y="653.333" type="curve" smooth="yes"/>
      <point x="258.667" y="653.333"/>
      <point x="246" y="648.333"/>
      <point x="246" y="606" type="curve" smooth="yes"/>
    </contour>
  </outline>
</glyph>
<glyph name="multiply" format="2">
  <advance width="580"/>
  <unicode hex="00D7"/>
  <outline>
    <contour>
      <point x="67" y="71" type="line"/>
      <point x="241.333" y="249" type="line"/>
      <point x="67" y="425.667" type="line"/>
      <point x="113.667" y="477.333" type="line"/>
      <point x="290" y="298.667" type="line"/>
      <point x="465.333" y="477.333" type="line"/>
      <point x="513" y="425.667" type="line"/>
      <point x="338.667" y="249" type="line"/>
      <point x="513" y="71" type="line"/>
      <point x="465.333" y="21.333" type="line"/>
      <point x="290" y="199.667" type="line"/>
      <point x="113.667" y="21.333" type="line"/>
    </contour>
  </outline>
</glyph>
<glyph name="Thorn" format="2">
  <advance width="609"/>
  <unicode hex="00DE"/>
  <outline>
    <contour>
      <point x="34.333" y="0" type="line"/>
      <point x="34.333" y="32" type="line"/>
      <point x="116.667" y="37"/>
      <point x="120.667" y="40"/>
      <point x="120.667" y="94.333" type="curve" smooth="yes"/>
      <point x="120.667" y="597.667" type="line" smooth="yes"/>
      <point x="120.667" y="652"/>
      <point x="116.667" y="655"/>
      <point x="34.333" y="660" type="curve"/>
      <point x="34.333" y="692" type="line"/>
      <point x="326" y="692" type="line"/>
      <point x="326" y="660" type="line"/>
      <point x="244.667" y="655"/>
      <point x="240" y="652"/>
      <point x="240" y="597.667" type="curve" smooth="yes"/>
      <point x="240" y="551.333" type="line"/>
      <point x="322.667" y="551.333" type="line" smooth="yes"/>
      <point x="455.667" y="551.333"/>
      <point x="578" y="516"/>
      <point x="578" y="372" type="curve" smooth="yes"/>
      <point x="578" y="215.333"/>
      <point x="433" y="180"/>
      <point x="305.333" y="180" type="curve" smooth="yes"/>
      <point x="240" y="180" type="line"/>
      <point x="240" y="94.333" type="line" smooth="yes"/>
      <point x="240" y="40"/>
      <point x="244.667" y="37"/>
      <point x="337.333" y="32" type="curve"/>
      <point x="337.333" y="0" type="line"/>
    </contour>
    <contour>
      <point x="240" y="258" type="line" smooth="yes"/>
      <point x="240" y="229.667"/>
      <point x="250.333" y="218.667"/>
      <point x="299.667" y="218.667" type="curve" smooth="yes"/>
      <point x="399" y="218.667"/>
      <point x="450.667" y="265.333"/>
      <point x="450.667" y="361.667" type="curve" smooth="yes"/>
      <point x="450.667" y="465"/>
      <point x="393.333" y="512.667"/>
      <point x="309.667" y="512.667" type="curve" smooth="yes"/>
      <point x="253.333" y="512.667"/>
      <point x="240" y="507"/>
      <point x="240" y="475.333" type="curve" smooth="yes"/>
    </contour>
  </outline>
</glyph>
<glyph name="germandbls" format="2">
	<unicode hex="00DF"/>
	<advance width="621"/>
	<outline>
		<contour>
			<point x="24.3333" y="0" type="line"/>
			<point x="24.3333" y="31.3333" type="line"/>
			<point x="90.6667" y="36.3333"/>
			<point x="95.3333" y="39"/>
			<point x="95.3333" y="86.3333" type="curve" smooth="yes"/>
			<point x="95.3333" y="466.667" type="line" smooth="yes"/>
			<point x="95.3333" y="626.48"/>
			<point x="150.895" y="742"/>
			<point x="328.667" y="742" type="curve" smooth="yes"/>
			<point x="512.667" y="742"/>
			<point x="535.333" y="630"/>
			<point x="535.333" y="581.994" type="curve" smooth="yes"/>
			<point x="535.333" y="553"/>
			<point x="526.667" y="526.667"/>
			<point x="508.667" y="504.667" type="curve"/>
			<point x="439" y="496"/>
			<point x="397" y="462.333"/>
			<point x="397" y="411.05" type="curve" smooth="yes"/>
			<point x="397" y="364.667"/>
			<point x="433.333" y="333.667"/>
			<point x="490" y="295.333" type="curve" smooth="yes"/>
			<point x="539.319" y="261.979"/>
			<point x="597.667" y="212.333"/>
			<point x="597.667" y="130.555" type="curve" smooth="yes"/>
			<point x="597.667" y="44.3333"/>
			<point x="533.333" y="-12"/>
			<point x="430.216" y="-12" type="curve" smooth="yes"/>
			<point x="354.667" y="-12"/>
			<point x="301.333" y="18.3333"/>
			<point x="301.333" y="54.3333" type="curve" smooth="yes"/>
			<point x="301.333" y="77.3333"/>
			<point x="323" y="96.6667"/>
			<point x="343.667" y="96.6667" type="curve" smooth="yes"/>
			<point x="356" y="96.6667"/>
			<point x="364" y="89"/>
			<point x="373.072" y="73.5887" type="curve" smooth="yes"/>
			<point x="393.333" y="39"/>
			<point x="418.667" y="26.6667"/>
			<point x="441.032" y="26.6667" type="curve" smooth="yes"/>
			<point x="468.667" y="26.6667"/>
			<point x="501.667" y="45"/>
			<point x="501.667" y="95.7045" type="curve" smooth="yes"/>
			<point x="501.667" y="145.667"/>
			<point x="469" y="181"/>
			<point x="401.295" y="225.329" type="curve" smooth="yes"/>
			<point x="343" y="263.333"/>
			<point x="297.333" y="310.667"/>
			<point x="297.333" y="376.572" type="curve" smooth="yes"/>
			<point x="297.333" y="439.333"/>
			<point x="338" y="489"/>
			<point x="409.667" y="508.333" type="curve"/>
			<point x="426.333" y="528.333"/>
			<point x="431" y="560"/>
			<point x="431" y="582.155" type="curve" smooth="yes"/>
			<point x="431" y="653"/>
			<point x="387" y="703.333"/>
			<point x="320.884" y="703.333" type="curve" smooth="yes"/>
			<point x="226.892" y="703.333"/>
			<point x="208.333" y="602.454"/>
			<point x="208.333" y="469" type="curve" smooth="yes"/>
			<point x="208.333" y="86.3333" type="line" smooth="yes"/>
			<point x="208.333" y="39"/>
			<point x="213.667" y="36.3333"/>
			<point x="279.333" y="31.3333" type="curve"/>
			<point x="279.333" y="0" type="line"/>
		</contour>
	</outline>
</glyph>
<glyph name="ae" format="2">
  <advance width="800"/>
  <unicode hex="00E6"/>
  <outline>
    <contour>
      <point x="46.333" y="130.667" type="curve" smooth="yes"/>
      <point x="46.333" y="181.333"/>
      <point x="69" y="231.667"/>
      <point x="142" y="252.333" type="curve" smooth="yes"/>
      <point x="216.667" y="273"/>
      <point x="307" y="301.667"/>
      <point x="338.333" y="327" type="curve"/>
      <point x="338.333" y="373.667" type="line" smooth="yes"/>
      <point x="338.333" y="444.333"/>
      <point x="298" y="463.333"/>
      <point x="262.333" y="463.333" type="curve" smooth="yes"/>
      <point x="225" y="463.333"/>
      <point x="187" y="442.333"/>
      <point x="163.667" y="367.667" type="curve" smooth="yes"/>
      <point x="157" y="345.333"/>
      <point x="149.333" y="333.333"/>
      <point x="129.667" y="333.333" type="curve" smooth="yes"/>
      <point x="107.333" y="333.333"/>
      <point x="62" y="348.667"/>
      <point x="62" y="388.333" type="curve" smooth="yes"/>
      <point x="62" y="443.333"/>
      <point x="150" y="502"/>
      <point x="273.667" y="502" type="curve" smooth="yes"/>
      <point x="346.667" y="502"/>
      <point x="389.667" y="478"/>
      <point x="413" y="441.333" type="curve"/>
      <point x="452" y="480.333"/>
      <point x="502.333" y="502"/>
      <point x="568.667" y="502" type="curve" smooth="yes"/>
      <point x="756.333" y="502"/>
      <point x="773.333" y="356.667"/>
      <point x="773.333" y="299.333" type="curve" smooth="yes"/>
      <point x="773.333" y="266"/>
      <point x="754.667" y="259.333"/>
      <point x="728.333" y="259.333" type="curve" smooth="yes"/>
      <point x="449.333" y="259.333" type="line"/>
      <point x="449.333" y="157"/>
      <point x="478" y="49.333"/>
      <point x="593.333" y="49.333" type="curve" smooth="yes"/>
      <point x="665.333" y="49.333"/>
      <point x="705.333" y="90.333"/>
      <point x="734" y="148" type="curve"/>
      <point x="766.333" y="130.667" type="line"/>
      <point x="736.667" y="49"/>
      <point x="676.333" y="-12"/>
      <point x="558.333" y="-12" type="curve" smooth="yes"/>
      <point x="471" y="-12"/>
      <point x="411.667" y="21.667"/>
      <point x="378.667" y="75" type="curve"/>
      <point x="338.333" y="43.333" type="line" smooth="yes"/>
      <point x="309" y="20.333"/>
      <point x="255.333" y="-12"/>
      <point x="190" y="-12" type="curve" smooth="yes"/>
      <point x="95.333" y="-12"/>
      <point x="46.333" y="56.333"/>
    </contour>
    <contour>
      <point x="163.667" y="148.333" type="curve" smooth="yes"/>
      <point x="163.667" y="89"/>
      <point x="195.333" y="49.333"/>
      <point x="247.667" y="49.333" type="curve" smooth="yes"/>
      <point x="285.333" y="49.333"/>
      <point x="338.333" y="69.333"/>
      <point x="338.333" y="140" type="curve" smooth="yes"/>
      <point x="338.333" y="282.667" type="line"/>
      <point x="315.667" y="268.333"/>
      <point x="268" y="248"/>
      <point x="235.667" y="238" type="curve" smooth="yes"/>
      <point x="182" y="221.667"/>
      <point x="163.667" y="193"/>
    </contour>
    <contour>
      <point x="450" y="301.333" type="curve"/>
      <point x="618" y="301.333" type="line" smooth="yes"/>
      <point x="644.333" y="301.333"/>
      <point x="651" y="312"/>
      <point x="651" y="339.667" type="curve" smooth="yes"/>
      <point x="651" y="375"/>
      <point x="640.333" y="463.333"/>
      <point x="559" y="463.333" type="curve" smooth="yes"/>
      <point x="467" y="463.333"/>
      <point x="450" y="353.667"/>
    </contour>
  </outline>
</glyph>
<glyph name="eth" format="2">
  <advance width="580"/>
  <unicode hex="00F0"/>
  <outline>
    <contour>
      <point x="44" y="245" type="curve" smooth="yes"/>
      <point x="44" y="405"/>
      <point x="123" y="502"/>
      <point x="292" y="502" type="curve" smooth="yes"/>
      <point x="308.333" y="502"/>
      <point x="321.333" y="499.667"/>
      <point x="336.333" y="497" type="curve"/>
      <point x="337.667" y="500" type="line"/>
      <point x="316.667" y="528"/>
      <point x="290" y="558"/>
      <point x="256.667" y="590" type="curve"/>
      <point x="126" y="531.667" type="line"/>
      <point x="101" y="568.667" type="line"/>
      <point x="222.667" y="622" type="line"/>
      <point x="192" y="650"/>
      <point x="154.333" y="680"/>
      <point x="113.667" y="710.667" type="curve"/>
      <point x="113.667" y="720.667" type="line"/>
      <point x="158" y="742" type="line"/>
      <point x="206.333" y="714.333"/>
      <point x="253.667" y="683"/>
      <point x="293" y="652.667" type="curve"/>
      <point x="430.667" y="714.667" type="line"/>
      <point x="456" y="678" type="line"/>
      <point x="331.333" y="622.667" type="line"/>
      <point x="369.667" y="592.333"/>
      <point x="402.333" y="561"/>
      <point x="428.333" y="531" type="curve" smooth="yes"/>
      <point x="500.667" y="446.333"/>
      <point x="535.667" y="366.333"/>
      <point x="535.667" y="253.667" type="curve" smooth="yes"/>
      <point x="535.667" y="78.333"/>
      <point x="454.667" y="-12"/>
      <point x="289" y="-12" type="curve" smooth="yes"/>
      <point x="123" y="-12"/>
      <point x="44" y="85"/>
    </contour>
    <contour>
      <point x="166.333" y="245" type="curve" smooth="yes"/>
      <point x="166.333" y="111"/>
      <point x="199.333" y="26.667"/>
      <point x="289" y="26.667" type="curve" smooth="yes"/>
      <point x="381" y="26.667"/>
      <point x="413.333" y="111"/>
      <point x="413.333" y="245" type="curve" smooth="yes"/>
      <point x="413.333" y="389"/>
      <point x="385.667" y="463.333"/>
      <point x="289" y="463.333" type="curve" smooth="yes"/>
      <point x="199.333" y="463.333"/>
      <point x="166.333" y="379"/>
    </contour>
  </outline>
</glyph>
<glyph name="divide" format="2">
	<unicode hex="00F7"/>
	<advance width="580"/>
	<outline>
		<contour>
			<point x="48" y="217.333" type="line"/>
			<point x="48" y="283.333" type="line"/>
			<point x="532" y="283.333" type="line"/>
			<point x="532" y="217.333" type="line"/>
		</contour>
		<contour>
			<point x="227.333" y="82" type="curve" smooth="yes"/>
			<point x="227.333" y="117"/>
			<point x="255.333" y="144.667"/>
			<point x="289.667" y="144.667" type="curve" smooth="yes"/>
			<point x="323.667" y="144.667"/>
			<point x="351.667" y="117"/>
			<point x="351.667" y="82.3333" type="curve" smooth="yes"/>
			<point x="351.667" y="47.6667"/>
			<point x="324.333" y="19.3333"/>
			<point x="289.333" y="19.3333" type="curve" smooth="yes"/>
			<point x="254.667" y="19.3333"/>
			<point x="227.333" y="47"/>
		</contour>
		<contour>
			<point x="227.333" y="418" type="curve" smooth="yes"/>
			<point x="227.333" y="453"/>
			<point x="255.333" y="480.667"/>
			<point x="289.667" y="480.667" type="curve" smooth="yes"/>
			<point x="323.667" y="480.667"/>
			<point x="351.667" y="453"/>
			<point x="351.667" y="418.333" type="curve" smooth="yes"/>
			<point x="351.667" y="383.667"/>
			<point x="324.333" y="355.333"/>
			<point x="289.333" y="355.333" type="curve" smooth="yes"/>
			<point x="254.667" y="355.333"/>
			<point x="227.333" y="383"/>
		</contour>
	</outline>
</glyph>
<glyph name="oslash" format="2">
  <advance width="580"/>
  <unicode hex="00F8"/>
  <outline>
    <contour>
      <point x="440.333" y="533" type="line"/>
      <point x="474.667" y="511" type="line"/>
      <point x="130" y="-44.333" type="line"/>
      <point x="97" y="-19.667" type="line"/>
    </contour>
    <contour>
      <point x="44" y="245" type="curve" smooth="yes"/>
      <point x="44" y="406.333"/>
      <point x="122.333" y="502"/>
      <point x="290.333" y="502" type="curve" smooth="yes"/>
      <point x="458.333" y="502"/>
      <point x="536.667" y="406.333"/>
      <point x="536.667" y="245" type="curve" smooth="yes"/>
      <point x="536.667" y="83.667"/>
      <point x="458.333" y="-12"/>
      <point x="290.333" y="-12" type="curve" smooth="yes"/>
      <point x="122.333" y="-12"/>
      <point x="44" y="83.667"/>
    </contour>
    <contour>
      <point x="166.333" y="245" type="curve" smooth="yes"/>
      <point x="166.333" y="108.333"/>
      <point x="205.333" y="26.667"/>
      <point x="290.333" y="26.667" type="curve" smooth="yes"/>
      <point x="375.333" y="26.667"/>
      <point x="414.333" y="108.333"/>
      <point x="414.333" y="245" type="curve" smooth="yes"/>
      <point x="414.333" y="381.667"/>
      <point x="375.333" y="463.333"/>
      <point x="290.333" y="463.333" type="curve" smooth="yes"/>
      <point x="205.333" y="463.333"/>
      <point x="166.333" y="381.667"/>
    </contour>
  </outline>
</glyph>
<glyph name="thorn" format="2">
  <advance width="607"/>
  <unicode hex="00FE"/>
  <outline>
    <contour>
      <point x="19.667" y="-198" type="line"/>
      <point x="85.333" y="-193.667"/>
      <point x="91.333" y="-189.667"/>
      <point x="91.333" y="-143" type="curve" smooth="yes"/>
      <point x="91.333" y="615" type="line" smooth="yes"/>
      <point x="91.333" y="653.667"/>
      <point x="84.667" y="660"/>
      <point x="62" y="663" type="curve" smooth="yes"/>
      <point x="25" y="667.667" type="line"/>
      <point x="25" y="696.333" type="line"/>
      <point x="197.333" y="722" type="line"/>
      <point x="204.333" y="716" type="line"/>
      <point x="204.333" y="431" type="line"/>
      <point x="246.667" y="458.667"/>
      <point x="300.667" y="502"/>
      <point x="372.667" y="502" type="curve" smooth="yes"/>
      <point x="525.333" y="502"/>
      <point x="563" y="359.667"/>
      <point x="563" y="257" type="curve" smooth="yes"/>
      <point x="563" y="46"/>
      <point x="446" y="-12"/>
      <point x="306.667" y="-12" type="curve" smooth="yes"/>
      <point x="267" y="-12"/>
      <point x="224" y="-3"/>
      <point x="204.333" y="7.333" type="curve"/>
      <point x="204.333" y="-143" type="line" smooth="yes"/>
      <point x="204.333" y="-189.667"/>
      <point x="211.667" y="-193.667"/>
      <point x="292" y="-198" type="curve"/>
      <point x="292" y="-230" type="line"/>
      <point x="19.667" y="-230" type="line"/>
    </contour>
    <contour>
      <point x="204.333" y="155.333" type="line" smooth="yes"/>
      <point x="204.333" y="133.667"/>
      <point x="205.333" y="114.667"/>
      <point x="210.333" y="97.667" type="curve" smooth="yes"/>
      <point x="224" y="52.333"/>
      <point x="259.333" y="26.667"/>
      <point x="308.667" y="26.667" type="curve" smooth="yes"/>
      <point x="401" y="26.667"/>
      <point x="440.667" y="106.333"/>
      <point x="440.667" y="245.667" type="curve" smooth="yes"/>
      <point x="440.667" y="414.333"/>
      <point x="363.667" y="440.333"/>
      <point x="321.333" y="440.333" type="curve" smooth="yes"/>
      <point x="272" y="440.333"/>
      <point x="235" y="416.667"/>
      <point x="215.333" y="373.667" type="curve" smooth="yes"/>
      <point x="207.667" y="357"/>
      <point x="204.333" y="341"/>
      <point x="204.333" y="317.333" type="curve" smooth="yes"/>
    </contour>
  </outline>
</glyph>
<glyph name="Hbar" format="2">
  <advance width="801"/>
  <unicode hex="0126"/>
  <outline>
    <contour>
      <point x="34.333" y="0" type="line"/>
      <point x="34.333" y="32" type="line"/>
      <point x="116.667" y="37"/>
      <point x="120.667" y="40"/>
      <point x="120.667" y="94.333" type="curve" smooth="yes"/>
      <point x="120.667" y="560.333" type="line"/>
      <point x="46" y="560.333" type="line"/>
      <point x="46" y="599" type="line"/>
      <point x="120.667" y="599" type="line"/>
      <point x="120.667" y="652"/>
      <point x="116" y="655"/>
      <point x="34.333" y="660" type="curve"/>
      <point x="34.333" y="692" type="line"/>
      <point x="326.333" y="692" type="line"/>
      <point x="326.333" y="660" type="line"/>
      <point x="245.333" y="655"/>
      <point x="240" y="652"/>
      <point x="240" y="599" type="curve"/>
      <point x="561" y="599" type="line"/>
      <point x="561" y="652"/>
      <point x="556.333" y="655"/>
      <point x="474.667" y="660" type="curve"/>
      <point x="474.667" y="692" type="line"/>
      <point x="766.667" y="692" type="line"/>
      <point x="766.667" y="660" type="line"/>
      <point x="685.667" y="655"/>
      <point x="680.333" y="652"/>
      <point x="680.333" y="599" type="curve"/>
      <point x="755" y="599" type="line"/>
      <point x="755" y="560.333" type="line"/>
      <point x="680.333" y="560.333" type="line"/>
      <point x="680.333" y="94.333" type="line" smooth="yes"/>
      <point x="680.333" y="40"/>
      <point x="685" y="37"/>
      <point x="766.667" y="32" type="curve"/>
      <point x="766.667" y="0" type="line"/>
      <point x="474.667" y="0" type="line"/>
      <point x="474.667" y="32" type="line"/>
      <point x="557" y="37"/>
      <point x="561" y="40"/>
      <point x="561" y="94.333" type="curve" smooth="yes"/>
      <point x="561" y="341" type="line"/>
      <point x="240" y="341" type="line"/>
      <point x="240" y="94.333" type="line" smooth="yes"/>
      <point x="240" y="40"/>
      <point x="244.667" y="37"/>
      <point x="326.333" y="32" type="curve"/>
      <point x="326.333" y="0" type="line"/>
    </contour>
    <contour>
      <point x="240" y="382.333" type="line"/>
      <point x="561" y="382.333" type="line"/>
      <point x="561" y="560.333" type="line"/>
      <point x="240" y="560.333" type="line"/>
    </contour>
  </outline>
</glyph>
<glyph name="hbar" format="2">
  <advance width="615"/>
  <unicode hex="0127"/>
  <outline>
    <component base="h"/>
    <contour>
      <point x="19" y="601" type="line"/>
      <point x="19" y="562.667" type="line"/>
      <point x="418.667" y="562.667" type="line"/>
      <point x="418.667" y="601" type="line"/>
    </contour>
  </outline>
</glyph>
<glyph name="dotlessi" format="2">
  <advance width="299"/>
  <unicode hex="0131"/>
  <outline>
    <contour>
      <point x="30" y="0" type="line"/>
      <point x="30" y="32" type="line"/>
      <point x="97" y="36.333"/>
      <point x="101.667" y="39"/>
      <point x="101.667" y="87" type="curve" smooth="yes"/>
      <point x="101.667" y="395" type="line" smooth="yes"/>
      <point x="101.667" y="432.333"/>
      <point x="95" y="438.667"/>
      <point x="72.333" y="442" type="curve" smooth="yes"/>
      <point x="35.333" y="447" type="line"/>
      <point x="35.333" y="475.667" type="line"/>
      <point x="207.667" y="502" type="line"/>
      <point x="214.667" y="496" type="line"/>
      <point x="214.667" y="87" type="line" smooth="yes"/>
      <point x="214.667" y="39"/>
      <point x="220" y="36.333"/>
      <point x="286.333" y="32" type="curve"/>
      <point x="286.333" y="0" type="line"/>
    </contour>
  </outline>
</glyph>
